<svg xmlns="http://www.w3.org/2000/svg" viewBox="0 0 237.8 179.2"><defs><style>.cls-1{fill:#ebebeb;}.cls-2{fill:#e0e0e0;}.cls-3{fill:#e6e6e6;}.cls-4{fill:#f5f5f5;}.cls-5{fill:#f0f0f0;}.cls-6{fill:#fafafa;}.cls-16,.cls-7{fill:#407bff;}.cls-8{opacity:0.7;}.cls-12,.cls-13,.cls-15,.cls-22,.cls-24,.cls-25,.cls-27,.cls-9{fill:#fff;}.cls-10,.cls-13{opacity:0.9;}.cls-11,.cls-12{opacity:0.1;}.cls-14,.cls-19{opacity:0.2;}.cls-15,.cls-23,.cls-25{opacity:0.6;}.cls-15,.cls-16,.cls-19,.cls-23{isolation:isolate;}.cls-17{fill:#ffc3bd;}.cls-18{opacity:0.5;}.cls-20{fill:#263238;}.cls-21{fill:#ed847e;}.cls-22{opacity:0.8;}.cls-24,.cls-26{opacity:0.3;}.cls-27{opacity:0.4;}</style></defs><title>freepik-4195197</title><g id="Background_Complete" data-name="Background Complete"><rect class="cls-1" x="198.22" y="163.39" width="15.75" height="0.12"/><rect class="cls-1" x="153.39" y="164.68" width="4.13" height="0.12"/><rect class="cls-1" x="188.62" y="158.97" width="9.13" height="0.12"/><rect class="cls-1" x="24.95" y="159.77" width="20.54" height="0.12"/><rect class="cls-1" x="49.73" y="159.77" width="3.01" height="0.12"/><rect class="cls-1" x="62.53" y="161.78" width="44.55" height="0.12"/><path class="cls-1" d="M374.92,387.06H283.09a2.72,2.72,0,0,1-2.71-2.71V255.25a2.72,2.72,0,0,1,2.71-2.71h91.84a2.72,2.72,0,0,1,2.71,2.71V384.34A2.72,2.72,0,0,1,374.92,387.06Zm-91.84-134.4a2.6,2.6,0,0,0-2.6,2.6V384.34a2.6,2.6,0,0,0,2.6,2.6h91.84a2.6,2.6,0,0,0,2.6-2.6V255.25a2.6,2.6,0,0,0-2.6-2.6Z" transform="translate(-262.2 -252.53)"/><path class="cls-1" d="M477.79,387.06H386a2.72,2.72,0,0,1-2.71-2.71V255.25a2.72,2.72,0,0,1,2.71-2.71h91.84a2.72,2.72,0,0,1,2.71,2.71V384.34A2.72,2.72,0,0,1,477.79,387.06ZM386,252.65a2.6,2.6,0,0,0-2.6,2.6V384.34a2.6,2.6,0,0,0,2.6,2.6h91.84a2.6,2.6,0,0,0,2.6-2.6V255.25a2.6,2.6,0,0,0-2.6-2.6Z" transform="translate(-262.2 -252.53)"/><rect class="cls-1" y="155.73" width="237.8" height="0.12"/><rect class="cls-2" x="145.7" y="18.96" width="61.3" height="135.56"/><path class="cls-3" d="M469.21,270.31V408.24H480.5V270.31Z" transform="translate(-262.2 -252.53)"/><path class="cls-3" d="M397.15,270.31V408.24h11.29V270.31Z" transform="translate(-262.2 -252.53)"/><path class="cls-4" d="M395.23,270.31V408.24h75.33V270.31Zm72.62,2.38v24.73H397.94V272.68Zm-69.91,79V326.91h69.91v24.73ZM467.85,354v24.73H397.94V354Zm-69.91-29.49V299.8h69.91v24.73Zm0,81.33V381.13h69.91v24.73Z" transform="translate(-262.2 -252.53)"/><rect class="cls-3" x="443.43" y="278.45" width="2.61" height="19.19" transform="translate(627.26 323.56) rotate(180)"/><rect class="cls-2" x="446.03" y="278.45" width="2.61" height="19.19" transform="translate(632.47 323.56) rotate(180)"/><rect class="cls-3" x="438.22" y="279.8" width="5.21" height="17.84" transform="translate(619.44 324.91) rotate(180)"/><rect class="cls-5" x="432.24" y="278.45" width="3.37" height="19.19" transform="translate(605.65 323.56) rotate(180)"/><rect class="cls-1" x="435.61" y="278.45" width="2.61" height="19.19" transform="translate(611.63 323.56) rotate(180)"/><rect class="cls-3" x="412.48" y="278.45" width="3.37" height="19.19" transform="translate(566.13 323.56) rotate(180)"/><rect class="cls-1" x="415.85" y="278.45" width="2.61" height="19.19" transform="translate(572.1 323.56) rotate(180)"/><rect class="cls-3" x="423.66" y="278.45" width="3.37" height="19.19" transform="translate(588.5 323.56) rotate(180)"/><rect class="cls-2" x="427.03" y="278.45" width="2.61" height="19.19" transform="translate(594.47 323.56) rotate(180)"/><rect class="cls-1" x="407.27" y="278.91" width="5.21" height="18.74" transform="translate(557.55 324.02) rotate(180)"/><rect class="cls-2" x="404.66" y="278.91" width="2.61" height="18.74" transform="translate(549.73 324.02) rotate(180)"/><rect class="cls-2" x="420.19" y="278.91" width="3.47" height="18.74" transform="translate(581.65 324.02) rotate(180)"/><rect class="cls-5" x="418.45" y="278.91" width="1.74" height="18.74" transform="translate(576.44 324.02) rotate(180)"/><rect class="cls-4" x="427.03" y="279.8" width="5.21" height="17.84" transform="translate(597.08 324.91) rotate(180)"/><rect class="cls-1" x="456.46" y="278.45" width="3.37" height="19.19" transform="translate(654.08 323.56) rotate(180)"/><rect class="cls-3" x="459.82" y="278.45" width="2.61" height="19.19" transform="translate(660.05 323.56) rotate(180)"/><rect class="cls-2" x="451.24" y="278.91" width="5.21" height="18.74" transform="translate(645.5 324.02) rotate(180)"/><rect class="cls-1" x="448.64" y="278.91" width="2.61" height="18.74" transform="translate(637.68 324.02) rotate(180)"/><rect class="cls-1" x="464.17" y="278.91" width="3.47" height="18.74" transform="translate(669.61 324.02) rotate(180)"/><rect class="cls-6" x="462.43" y="278.91" width="1.74" height="18.74" transform="translate(664.39 324.02) rotate(180)"/><rect class="cls-3" x="164.07" y="52.79" width="2.61" height="19.19"/><rect class="cls-2" x="161.47" y="52.79" width="2.61" height="19.19"/><rect class="cls-3" x="166.68" y="54.14" width="5.21" height="17.84"/><rect class="cls-5" x="174.49" y="52.79" width="3.37" height="19.19"/><rect class="cls-1" x="171.89" y="52.79" width="2.61" height="19.19"/><rect class="cls-3" x="194.26" y="52.79" width="3.37" height="19.19"/><rect class="cls-1" x="191.65" y="52.79" width="2.61" height="19.19"/><rect class="cls-3" x="183.07" y="52.79" width="3.37" height="19.19"/><rect class="cls-2" x="180.47" y="52.79" width="2.61" height="19.19"/><rect class="cls-1" x="197.62" y="53.25" width="5.21" height="18.74"/><rect class="cls-2" x="202.83" y="53.25" width="2.61" height="18.74"/><rect class="cls-2" x="186.44" y="53.25" width="3.47" height="18.74"/><rect class="cls-5" x="189.91" y="53.25" width="1.74" height="18.74"/><rect class="cls-4" x="177.86" y="54.14" width="5.21" height="17.84"/><rect class="cls-1" x="150.28" y="52.79" width="3.37" height="19.19"/><rect class="cls-3" x="147.67" y="52.79" width="2.61" height="19.19"/><rect class="cls-2" x="153.65" y="53.25" width="5.21" height="18.74"/><rect class="cls-1" x="158.86" y="53.25" width="2.61" height="18.74"/><rect class="cls-1" x="142.46" y="53.25" width="3.47" height="18.74"/><rect class="cls-6" x="145.94" y="53.25" width="1.74" height="18.74"/><rect class="cls-3" x="164.07" y="80.14" width="2.61" height="19.19"/><rect class="cls-2" x="161.47" y="80.14" width="2.61" height="19.19"/><rect class="cls-3" x="166.68" y="81.49" width="5.21" height="17.84"/><rect class="cls-5" x="174.49" y="80.14" width="3.37" height="19.19"/><rect class="cls-1" x="171.89" y="80.14" width="2.61" height="19.19"/><rect class="cls-3" x="194.26" y="80.14" width="3.37" height="19.19"/><rect class="cls-1" x="191.65" y="80.14" width="2.61" height="19.19"/><rect class="cls-3" x="183.07" y="80.14" width="3.37" height="19.19"/><rect class="cls-2" x="180.47" y="80.14" width="2.61" height="19.19"/><rect class="cls-1" x="197.62" y="80.6" width="5.21" height="18.74"/><rect class="cls-2" x="202.83" y="80.6" width="2.61" height="18.74"/><rect class="cls-2" x="186.44" y="80.6" width="3.47" height="18.74"/><rect class="cls-5" x="189.91" y="80.6" width="1.74" height="18.74"/><rect class="cls-4" x="177.86" y="81.49" width="5.21" height="17.84"/><rect class="cls-1" x="150.28" y="80.14" width="3.37" height="19.19"/><rect class="cls-3" x="147.67" y="80.14" width="2.61" height="19.19"/><rect class="cls-2" x="153.65" y="80.6" width="5.21" height="18.74"/><rect class="cls-1" x="158.86" y="80.6" width="2.61" height="18.74"/><rect class="cls-1" x="142.46" y="80.6" width="3.47" height="18.74"/><rect class="cls-6" x="145.94" y="80.6" width="1.74" height="18.74"/><rect class="cls-3" x="443.43" y="360.03" width="2.61" height="19.19" transform="translate(627.26 486.71) rotate(180)"/><rect class="cls-2" x="446.03" y="360.03" width="2.61" height="19.19" transform="translate(632.47 486.71) rotate(180)"/><rect class="cls-3" x="438.22" y="360.03" width="5.21" height="17.84" transform="translate(619.44 485.36) rotate(180)"/><rect class="cls-5" x="432.24" y="360.03" width="3.37" height="19.19" transform="translate(605.65 486.71) rotate(180)"/><rect class="cls-1" x="435.61" y="360.03" width="2.61" height="19.19" transform="translate(611.63 486.71) rotate(180)"/><rect class="cls-3" x="412.48" y="360.03" width="3.37" height="19.19" transform="translate(566.13 486.71) rotate(180)"/><rect class="cls-1" x="415.85" y="360.03" width="2.61" height="19.19" transform="translate(572.1 486.71) rotate(180)"/><rect class="cls-3" x="423.66" y="360.03" width="3.37" height="19.19" transform="translate(588.5 486.71) rotate(180)"/><rect class="cls-2" x="427.03" y="360.03" width="2.61" height="19.19" transform="translate(594.47 486.71) rotate(180)"/><rect class="cls-1" x="407.27" y="360.03" width="5.21" height="18.74" transform="translate(557.55 486.25) rotate(180)"/><rect class="cls-2" x="404.66" y="360.03" width="2.61" height="18.74" transform="translate(549.73 486.25) rotate(180)"/><rect class="cls-2" x="420.19" y="360.03" width="3.47" height="18.74" transform="translate(581.65 486.25) rotate(180)"/><rect class="cls-5" x="418.45" y="360.03" width="1.74" height="18.74" transform="translate(576.44 486.25) rotate(180)"/><rect class="cls-4" x="427.03" y="360.03" width="5.21" height="17.84" transform="translate(597.08 485.36) rotate(180)"/><rect class="cls-1" x="456.46" y="360.03" width="3.37" height="19.19" transform="translate(654.08 486.71) rotate(180)"/><rect class="cls-3" x="459.82" y="360.03" width="2.61" height="19.19" transform="translate(660.05 486.71) rotate(180)"/><rect class="cls-2" x="451.24" y="360.03" width="5.21" height="18.74" transform="translate(645.5 486.25) rotate(180)"/><rect class="cls-1" x="448.64" y="360.03" width="2.61" height="18.74" transform="translate(637.68 486.25) rotate(180)"/><rect class="cls-1" x="464.17" y="360.03" width="3.47" height="18.74" transform="translate(669.61 486.25) rotate(180)"/><rect class="cls-6" x="462.43" y="360.03" width="1.74" height="18.74" transform="translate(664.39 486.25) rotate(180)"/><rect class="cls-3" x="164.07" y="134.84" width="2.61" height="19.19"/><rect class="cls-2" x="161.47" y="134.84" width="2.61" height="19.19"/><rect class="cls-3" x="166.68" y="134.84" width="5.21" height="17.84"/><rect class="cls-5" x="174.49" y="134.84" width="3.37" height="19.19"/><rect class="cls-1" x="171.89" y="134.84" width="2.61" height="19.19"/><rect class="cls-3" x="194.26" y="134.84" width="3.37" height="19.19"/><rect class="cls-1" x="191.65" y="134.84" width="2.61" height="19.19"/><rect class="cls-3" x="183.07" y="134.84" width="3.37" height="19.19"/><rect class="cls-2" x="180.47" y="134.84" width="2.61" height="19.19"/><rect class="cls-1" x="197.62" y="134.84" width="5.21" height="18.74"/><rect class="cls-2" x="202.83" y="134.84" width="2.61" height="18.74"/><rect class="cls-2" x="186.44" y="134.84" width="3.47" height="18.74"/><rect class="cls-5" x="189.91" y="134.84" width="1.74" height="18.74"/><rect class="cls-4" x="177.86" y="134.84" width="5.21" height="17.84"/><rect class="cls-1" x="150.28" y="134.84" width="3.37" height="19.19"/><rect class="cls-3" x="147.67" y="134.84" width="2.61" height="19.19"/><rect class="cls-2" x="153.65" y="134.84" width="5.21" height="18.74"/><rect class="cls-1" x="158.86" y="134.84" width="2.61" height="18.74"/><rect class="cls-1" x="142.46" y="134.84" width="3.47" height="18.74"/><rect class="cls-6" x="145.94" y="134.84" width="1.74" height="18.74"/><path class="cls-2" d="M332.65,274.26a91.09,91.09,0,0,1,0,22.66,1.87,1.87,0,0,1,.63.41,1.88,1.88,0,1,1-2.66,2.66c-.16-.16-.17-.43-.36-.53-1.58-.78-4.58.61-7.83.61s-6.25-1.39-7.82-.61c-.63.31-.94,1.08-1.7,1.08s-1.06-.77-1.7-1.08c-1.58-.78-4.58.61-7.82.61s-6.25-1.39-7.83-.61c-.19.09-.21.37-.36.53a1.88,1.88,0,0,1-2.66-2.66c.18-.18.51-.2.63-.41,1.1-2-.71-6.48-.71-11.33s1.81-9.31.71-11.33c-.12-.22-.44-.23-.63-.41a1.88,1.88,0,0,1,2.66-2.66c.16.16.17.43.36.53,1.58.78,4.58-.61,7.83-.61s6.25,1.39,7.82.61c.63-.31.94-1.08,1.7-1.08s1.06.77,1.7,1.08c1.58.78,4.58-.61,7.82-.61s6.25,1.39,7.83.61c.19-.09.21-.37.36-.53a1.88,1.88,0,1,1,2.66,2.66A1.88,1.88,0,0,1,332.65,274.26Z" transform="translate(-262.2 -252.53)"/><path class="cls-6" d="M331.79,273.4a91.08,91.08,0,0,1,0,22.66,1.87,1.87,0,0,1,.63.41,1.88,1.88,0,0,1-2.66,2.66c-.16-.16-.17-.43-.36-.53-1.58-.78-4.58.61-7.83.61s-6.25-1.39-7.82-.61c-.63.31-.94,1.08-1.7,1.08s-1.06-.77-1.7-1.08c-1.58-.78-4.58.61-7.82.61s-6.25-1.39-7.83-.61c-.19.09-.21.37-.36.53a1.88,1.88,0,0,1-2.66-2.66c.18-.18.51-.2.63-.41,1.1-2-.71-6.48-.71-11.33s1.81-9.31.71-11.33c-.12-.22-.44-.23-.63-.41a1.88,1.88,0,0,1,2.66-2.66c.16.16.17.43.36.53,1.58.78,4.58-.61,7.83-.61s6.25,1.39,7.82.61c.63-.31.94-1.08,1.7-1.08s1.06.77,1.7,1.08c1.58.78,4.58-.61,7.82-.61s6.25,1.39,7.83.61c.19-.09.21-.37.36-.53a1.88,1.88,0,0,1,2.66,2.66A1.88,1.88,0,0,1,331.79,273.4Z" transform="translate(-262.2 -252.53)"/><rect class="cls-1" x="300.71" y="267.83" width="22.67" height="33.8" transform="translate(334.58 -279.85) rotate(90)"/><rect class="cls-4" x="302.27" y="270.16" width="19.55" height="29.13" transform="translate(334.58 -279.85) rotate(90)"/><circle class="cls-2" cx="45" cy="33.05" r="3.92"/><polygon class="cls-1" points="60.24 29.13 53.38 34.87 60.24 36.97 60.24 29.13"/><path class="cls-1" d="M302.32,278.9c4.47-2.74,10-.76,13.66,2.36.56.48-.25,1.28-.81.81-3.25-2.78-8.27-4.64-12.28-2.18-.63.39-1.2-.6-.58-1Z" transform="translate(-262.2 -252.53)"/><polygon class="cls-1" points="37.14 37.91 39.28 35.82 41.07 37.91 39.1 39.82 37.14 37.91"/><path class="cls-6" d="M298.07,331.61A70.64,70.64,0,0,1,299.45,351,121.18,121.18,0,0,1,297,366s10.26-1.18,22.35-1.59a139.68,139.68,0,0,1,29.6,2.2l8.23.82s-5.08-22-.88-35.34Z" transform="translate(-262.2 -252.53)"/><polygon class="cls-1" points="96.26 82.75 32.72 82.54 32.72 77.24 96.02 76.23 96.26 82.75"/><path class="cls-4" d="M308.93,329.67l-.34-.31,17.8-19.92a1.59,1.59,0,0,1,2.35,0l17.88,19.19-.34.31-17.88-19.19a1.15,1.15,0,0,0-.84-.36,1.13,1.13,0,0,0-.83.38Z" transform="translate(-262.2 -252.53)"/><ellipse class="cls-2" cx="65.41" cy="57.17" rx="0.56" ry="0.56"/><path class="cls-1" d="M336.34,342.24a7.65,7.65,0,0,0-2.15,2.25l1.87,1.65a5,5,0,0,1,.52-1.35,1.69,1.69,0,0,1,1.15-.82,1.78,1.78,0,0,1,.82.11,6.09,6.09,0,0,1,2,1.43,1.26,1.26,0,0,0,.78-1.78,2.68,2.68,0,0,0-1.79-1.27,24.23,24.23,0,0,1,2.22-2.26,1.75,1.75,0,0,0-2.3-.67,5.1,5.1,0,0,0-1.89,1.82c.25-.34-1.58-2.36-2-2.49-1-.34-1.78.72-2.29,1.46A10.08,10.08,0,0,1,336.34,342.24Z" transform="translate(-262.2 -252.53)"/><path class="cls-2" d="M307.46,360.19l-.22-.06Zm-.21-.05-.23-.06,0,0Z" transform="translate(-262.2 -252.53)"/><path class="cls-2" d="M307.82,359.33l-.42-.18c.26-.59.54-1.19.85-1.78h0c.14-.28.3-.57.46-.87l.4.22c-.16.3-.32.58-.46.86l-.2-.1.2.1C308.36,358.16,308.08,358.75,307.82,359.33Z" transform="translate(-262.2 -252.53)"/><path class="cls-2" d="M310.12,355.06l-.39-.25h0Zm.54-.8-.37-.26c.39-.56.8-1.08,1.21-1.56l.17.15-.17-.15c.21-.25.44-.5.66-.73l.33.32c-.22.23-.44.47-.65.72h0C311.44,353.2,311,353.71,310.66,354.26Zm22.24-3.31h-.16l-1.12,0,0-.46,1.1,0h.15l.68,0h0c.31,0,.63-.07.95-.12l.08.45c-.33.06-.66.1-1,.13l0-.24,0,.24Zm-2.26-.1,0-.46h0Zm-16.74-.13-.29-.35,0,0Zm14.8,0-1-.12,0-.23,0,.23c-.65-.09-1.3-.19-1.94-.31l.08-.45c.63.12,1.28.22,1.92.31h0l1,.12Zm7.82-.43-.17-.43,0,0Zm-21.83-.1-.25-.38a9.42,9.42,0,0,1,1.77-.93h0a8.08,8.08,0,0,1,1-.31l.11.45a7.52,7.52,0,0,0-.9.29h0A9,9,0,0,0,314.68,350.15Zm10.12-.09.08-.45h0Zm12.63-.27-.24-.39a3.35,3.35,0,0,0,1.27-1.28h0a2.35,2.35,0,0,0,.25-.85l.46,0a2.8,2.8,0,0,1-.3,1l-.09,0,.1,0A3.8,3.8,0,0,1,337.44,349.79Zm-14.54-.17-.95-.26.06-.22-.06.22-.83-.25a7.82,7.82,0,0,0-1-.25l.07-.45a8.21,8.21,0,0,1,1.09.26l.82.24.94.25Zm-3.77-.84,0-.46h0Z" transform="translate(-262.2 -252.53)"/><polygon class="cls-2" points="76.15 92.96 76.13 92.91 76.57 92.78 76.15 92.96"/></g><g id="Shadow"><ellipse id="_Path_" data-name="&lt;Path&gt;" class="cls-4" cx="118.9" cy="171.57" rx="92.21" ry="5.39"/></g><g id="Knowledges"><path class="cls-7" d="M411,314.2c-2,2.25-4.58,3.69-6.89,5.51s-4.46,4.31-4.8,7.4c-.37,3.29,1.39,6.42,1.7,9.71.57,6.09-4.32,11.75-9.85,12.67s-11.16-2.14-14.89-6.7a16.84,16.84,0,0,1-3.9-8.51c-.64-5.46,2.23-10.83,1.77-16.32-.51-6.19-5.07-11-9.73-14.6s-9.87-6.7-13-11.92c-3.73-6.28-3.57-14.78-.43-21.44a29.42,29.42,0,0,1,15.32-14.22c6.39-2.68,13.36-3.35,20.2-3.09a33.58,33.58,0,0,1,12.29,2.37A17.48,17.48,0,0,1,408,264c2.1,4.91,1.5,10.48.27,15.85a9.4,9.4,0,0,0,1.22,7.18,36.14,36.14,0,0,1,4,8C415.63,301.37,415.29,309.28,411,314.2Z" transform="translate(-262.2 -252.53)"/><g class="cls-8"><path class="cls-9" d="M411,314.2c-2,2.25-4.58,3.69-6.89,5.51s-4.46,4.31-4.8,7.4c-.37,3.29,1.39,6.42,1.7,9.71.57,6.09-4.32,11.75-9.85,12.67s-11.16-2.14-14.89-6.7a16.84,16.84,0,0,1-3.9-8.51c-.64-5.46,2.23-10.83,1.77-16.32-.51-6.19-5.07-11-9.73-14.6s-9.87-6.7-13-11.92c-3.73-6.28-3.57-14.78-.43-21.44a29.42,29.42,0,0,1,15.32-14.22c6.39-2.68,13.36-3.35,20.2-3.09a33.58,33.58,0,0,1,12.29,2.37A17.48,17.48,0,0,1,408,264c2.1,4.91,1.5,10.48.27,15.85a9.4,9.4,0,0,0,1.22,7.18,36.14,36.14,0,0,1,4,8C415.63,301.37,415.29,309.28,411,314.2Z" transform="translate(-262.2 -252.53)"/></g><circle class="cls-7" cx="101.34" cy="23.9" r="12.92"/><g class="cls-10"><path class="cls-9" d="M365.27,264.45l1.63,1V267s-1.24-.17-1.63-.84c0,0,.34-.14-.62-.71S363.92,264.16,365.27,264.45Z" transform="translate(-262.2 -252.53)"/><path class="cls-9" d="M364.37,276.8l-.94.45s-.28.54-.22.52-.21,1.12-.15,1.14-.54.51-.54.51l-.28.69v.8l1.35,1.83,1,.56-.86,4.72.36.13,4.49-3.29.3-.8,1.33-.52.71-1.85.8-.94s.07-.94,0-.92l-.43.15-.67-.51a9.09,9.09,0,0,0-1.5-.19c-.07.07-.3-.87-.3-.87l-1.31-.36-1.37-.9-1,.19Z" transform="translate(-262.2 -252.53)"/><path class="cls-9" d="M361.82,274.49h.72l1,.54,1.92.48.09.15-1.9,0,.35-.22-.28-.18-.77,0,.09-.09-.79-.41s-.5-.12-.52-.06l-.21,0Z" transform="translate(-262.2 -252.53)"/><polygon class="cls-9" points="101.11 23.13 100.94 22.96 100.65 22.97 100.77 23.13 101.11 23.13"/><path class="cls-9" d="M367.85,264.45h-.22l1.6,1,.25.27,1.57.91.31.39.25.87.84.67-.39.28.9,1.12h.31l.11-.45-.67-1.4.93.52A10.86,10.86,0,0,0,367.85,264.45Z" transform="translate(-262.2 -252.53)"/><path class="cls-9" d="M374.44,269.62h-.24l-.41-.53-.43,1.18s.27,1.38.29,1.46-.12.28-.12.28l.12,1.52.31.53.24,1.29,1.06,1.46.86-1.23.14.3A12,12,0,0,0,374.44,269.62Z" transform="translate(-262.2 -252.53)"/><polygon class="cls-9" points="105.94 13.14 105.65 13.14 105.65 13.49 105.94 13.66 106.19 13.66 106.19 13.4 105.94 13.14"/><polygon class="cls-9" points="107.65 13.82 108.07 14.27 108.18 14.65 108.6 15.06 108.77 14.81 109.08 15.06 109.08 14.78 108.86 14.44 107.65 13.82"/><path class="cls-9" d="M366.9,269.34a23.13,23.13,0,0,0-2.7,1.18,1.53,1.53,0,0,0-.61,1.41l-1.18.67.28,1.29-.28.17L362,273a10.93,10.93,0,0,0-2.23-.11c-.66.11-.8,1.4-.8,1.4l.39,1.07.9.06.11-.62,1,.06-.62,1.18,1.12.17.11.83,1.13.86s.22.28,0,.39-5.56-3.09-6.07-3.87a6.29,6.29,0,0,1-.65-4.46c.41-1.23,1.17-2.37,1.42-3.12h0v0h0l0-.06a.45.45,0,0,0-.35-.53c-.2-.06-.56.17-.56.17h-.72l.74-.42.31-.33.2-.18.73-.31,0-.22a4.06,4.06,0,0,1,1.38-.52l-.53.41h.56l.11.64h1.12s-.28-.07.39-.45a11.28,11.28,0,0,1,2.86-.53l-.67,1,1.46.82-.17.62-1-.28v-.34l-.62-.38-.06.66-.22.28-.28-.22-.79.79,1.41,1.37.22-1.77,2,.45Z" transform="translate(-262.2 -252.53)"/></g><path class="cls-7" d="M407.38,297.69a2.21,2.21,0,0,0-2.27-.25,2.69,2.69,0,0,0-.83,2.34,2.65,2.65,0,0,0-3.48,1.16,3.59,3.59,0,0,0,.53,3.83,5.65,5.65,0,0,0,3.55,1.85,2.76,2.76,0,0,0,3.06-1.19c.54-.81,1.28-1.18,1.85-1.91C411.2,301.73,408.9,298.61,407.38,297.69Z" transform="translate(-262.2 -252.53)"/><path class="cls-7" d="M402.73,298a.89.89,0,0,0,.24-.5c.45.89,1,1.7,1.55,2.55C404.33,299.86,402.6,298.09,402.73,298Z" transform="translate(-262.2 -252.53)"/><path class="cls-7" d="M403.36,297.47a6.11,6.11,0,0,1,.27-1.33,3.22,3.22,0,0,1,.74,1.24,1.64,1.64,0,0,1-.27,1.36C403.57,299.45,403.35,297.79,403.36,297.47Z" transform="translate(-262.2 -252.53)"/><path class="cls-9" d="M401.86,301.15a.39.39,0,1,0,.44.53.42.42,0,0,0-.4-.55Z" transform="translate(-262.2 -252.53)"/><path class="cls-9" d="M404.91,305.7a.29.29,0,0,0,.19,0,.22.22,0,0,0,0-.32.74.74,0,0,0-.35-.13,2.53,2.53,0,0,1-1.8-1.53,3.88,3.88,0,0,0-.23-.58c-.25-.43-.84-.47-1,.05s.39,1,.62,1.22A3.84,3.84,0,0,0,404.91,305.7Z" transform="translate(-262.2 -252.53)"/><path class="cls-7" d="M393.39,262.88a5.56,5.56,0,1,0,5.56-5.56A5.56,5.56,0,0,0,393.39,262.88Zm4.63-4.12a.78.78,0,0,1-.56,0c.09.39-.29.73-.65.93s-1,.36-1.09-.06c-.06-.25.13-.61.6-.93a1.17,1.17,0,0,1,.93-.21c0-.23.17-.49.49-.6s.69,0,.77.23S398.37,258.65,398,258.77Zm2.7,1.91a.77.77,0,1,1-.24-1.07A.77.77,0,0,1,400.73,260.68Zm-2.6,6.34a.59.59,0,1,1,.59.59A.59.59,0,0,1,398.13,267Zm-.16-2a.68.68,0,0,1,.68-.68h0a2.51,2.51,0,0,1,3.25-2.84,1,1,0,1,1,1.46,1.25,2.51,2.51,0,0,1-1.55,3.55.51.51,0,1,1-.93.09,2.51,2.51,0,0,1-1.73-.94A.68.68,0,0,1,398,265Zm-1.49-4a.51.51,0,0,1,.79-.47.77.77,0,1,1,.21.56.51.51,0,0,1-1-.1Zm-.74,4.67a.39.39,0,1,1,.39.39A.39.39,0,0,1,395.74,265.69Zm-.75-4.35a.51.51,0,1,1,.55.46A.51.51,0,0,1,395,261.34Z" transform="translate(-262.2 -252.53)"/><path class="cls-7" d="M393.39,262.88a5.56,5.56,0,1,0,5.56-5.56A5.56,5.56,0,0,0,393.39,262.88Zm4.63-4.12a.78.78,0,0,1-.56,0c.09.39-.29.73-.65.93s-1,.36-1.09-.06c-.06-.25.13-.61.6-.93a1.17,1.17,0,0,1,.93-.21c0-.23.17-.49.49-.6s.69,0,.77.23S398.37,258.65,398,258.77Zm2.7,1.91a.77.77,0,1,1-.24-1.07A.77.77,0,0,1,400.73,260.68Zm-2.6,6.34a.59.59,0,1,1,.59.59A.59.59,0,0,1,398.13,267Zm-.16-2a.68.68,0,0,1,.68-.68h0a2.51,2.51,0,0,1,3.25-2.84,1,1,0,1,1,1.46,1.25,2.51,2.51,0,0,1-1.55,3.55.51.51,0,1,1-.93.09,2.51,2.51,0,0,1-1.73-.94A.68.68,0,0,1,398,265Zm-1.49-4a.51.51,0,0,1,.79-.47.77.77,0,1,1,.21.56.51.51,0,0,1-1-.1Zm-.74,4.67a.39.39,0,1,1,.39.39A.39.39,0,0,1,395.74,265.69Zm-.75-4.35a.51.51,0,1,1,.55.46A.51.51,0,0,1,395,261.34Z" transform="translate(-262.2 -252.53)"/><circle class="cls-3" cx="133.93" cy="13.15" r="0.39"/><path class="cls-7" d="M395.68,265.69a.44.44,0,1,1,.44.44A.44.44,0,0,1,395.68,265.69Z" transform="translate(-262.2 -252.53)"/><path class="cls-7" d="M398.07,267a.65.65,0,1,1,.65.65A.65.65,0,0,1,398.07,267Z" transform="translate(-262.2 -252.53)"/><path class="cls-7" d="M399.63,261a.83.83,0,1,1,.63.11l-.19,0A.82.82,0,0,1,399.63,261Z" transform="translate(-262.2 -252.53)"/><path class="cls-7" d="M396.62,261.41a.57.57,0,0,1,.32-1,.58.58,0,0,1,.28,0,.83.83,0,1,1,.89,1,.82.82,0,0,1-.62-.2.57.57,0,0,1-.46.32H397A.56.56,0,0,1,396.62,261.41Z" transform="translate(-262.2 -252.53)"/><path class="cls-7" d="M394.93,261.34h0a.57.57,0,1,1,.61.51h0A.57.57,0,0,1,394.93,261.34Zm.05,0h0Z" transform="translate(-262.2 -252.53)"/><g class="cls-11"><path class="cls-9" d="M396,264.89h0a.06.06,0,0,0,0-.07,8.22,8.22,0,0,1-.06-2.75.06.06,0,1,0-.11,0,8.14,8.14,0,0,0,.07,2.8A.06.06,0,0,0,396,264.89Z" transform="translate(-262.2 -252.53)"/></g><path class="cls-12" d="M395.33,265.39l0,0a.06.06,0,0,0,0-.08,2.6,2.6,0,0,1-.88-1.34.06.06,0,0,0-.11,0,2.7,2.7,0,0,0,.92,1.39Z" transform="translate(-262.2 -252.53)"/><path class="cls-12" d="M397.72,266.18a.06.06,0,0,0,0-.11,3.19,3.19,0,0,1-.8-.13.06.06,0,0,0,0,.11,3.31,3.31,0,0,0,.82.14Z" transform="translate(-262.2 -252.53)"/><path class="cls-12" d="M395.72,267.14a.06.06,0,0,0,.05,0l.19-.7a.06.06,0,0,0-.11,0l-.19.7a.06.06,0,0,0,0,.07Z" transform="translate(-262.2 -252.53)"/><path class="cls-12" d="M394.53,266.18h0a2.12,2.12,0,0,0,.82-.22.06.06,0,1,0-.05-.1,2,2,0,0,1-.78.21.06.06,0,0,0,0,.11Z" transform="translate(-262.2 -252.53)"/><path class="cls-12" d="M396.65,265.12a.06.06,0,0,0,.05,0c.22-.47,1-2.07,1-2.09a.06.06,0,1,0-.1-.05s-.82,1.62-1,2.09a.06.06,0,0,0,0,.07Z" transform="translate(-262.2 -252.53)"/><path class="cls-12" d="M397.71,267.65a.06.06,0,0,0,0-.1,3.38,3.38,0,0,1-1.22-1.23.06.06,0,1,0-.1.06,3.49,3.49,0,0,0,1.26,1.27Z" transform="translate(-262.2 -252.53)"/><path class="cls-7" d="M395.88,259.92a.39.39,0,0,1-.22-.28h0c-.07-.3.17-.68.63-1a1.33,1.33,0,0,1,.9-.24.72.72,0,0,1,.54-.57.87.87,0,0,1,.52,0,.46.46,0,0,1,.32.28c.09.27-.14.59-.52.71a.88.88,0,0,1-.51,0c0,.46-.52.8-.7.89a1.72,1.72,0,0,1-.73.23A.54.54,0,0,1,395.88,259.92Zm-.17-.29h0Z" transform="translate(-262.2 -252.53)"/><path class="cls-7" d="M400.83,266.52a.58.58,0,0,1,0-.12,2.59,2.59,0,0,1-1.06-.37,2.55,2.55,0,0,1-.61-.53.74.74,0,1,1-.56-1.25,2.57,2.57,0,0,1,3.28-2.85,1.06,1.06,0,1,1,1.56,1.34,2.57,2.57,0,0,1-1.54,3.57.57.57,0,1,1-1.09.23Z" transform="translate(-262.2 -252.53)"/><g class="cls-11"><path d="M400.83,266.52a.58.58,0,0,1,0-.12,2.59,2.59,0,0,1-1.06-.37,2.55,2.55,0,0,1-.61-.53.74.74,0,1,1-.56-1.25,2.57,2.57,0,0,1,3.28-2.85,1.06,1.06,0,1,1,1.56,1.34,2.57,2.57,0,0,1-1.54,3.57.57.57,0,1,1-1.09.23Z" transform="translate(-262.2 -252.53)"/></g><path class="cls-12" d="M401,264a.32.32,0,0,1-.14-.21.33.33,0,0,1,.5-.34.32.32,0,0,1-.11.59h-.07A.32.32,0,0,1,401,264Z" transform="translate(-262.2 -252.53)"/><g class="cls-11"><circle cx="133.93" cy="13.12" r="0.39"/><path d="M395.68,265.66a.44.44,0,1,1,.44.44A.44.44,0,0,1,395.68,265.66Z" transform="translate(-262.2 -252.53)"/><path d="M398.07,267a.65.65,0,1,1,.65.65A.65.65,0,0,1,398.07,267Z" transform="translate(-262.2 -252.53)"/><path d="M399.63,260.94a.83.83,0,1,1,.63.11l-.19,0A.82.82,0,0,1,399.63,260.94Z" transform="translate(-262.2 -252.53)"/><path d="M396.62,261.38a.57.57,0,0,1,.32-1,.58.58,0,0,1,.28,0,.83.83,0,1,1,.89,1,.82.82,0,0,1-.62-.2.57.57,0,0,1-.46.32H397A.56.56,0,0,1,396.62,261.38Z" transform="translate(-262.2 -252.53)"/><path d="M394.93,261.31h0a.57.57,0,1,1,.61.51h0A.57.57,0,0,1,394.93,261.31Zm.05,0h0Z" transform="translate(-262.2 -252.53)"/><path d="M395.88,259.89a.39.39,0,0,1-.22-.28h0c-.07-.3.17-.68.63-1a1.33,1.33,0,0,1,.9-.24.72.72,0,0,1,.54-.57.87.87,0,0,1,.52,0,.46.46,0,0,1,.32.28c.09.27-.14.59-.52.71a.87.87,0,0,1-.51,0c0,.46-.52.8-.7.89a1.72,1.72,0,0,1-.73.23A.54.54,0,0,1,395.88,259.89Zm-.17-.29h0Z" transform="translate(-262.2 -252.53)"/></g><polygon class="cls-7" points="124.75 45.13 123.76 40.93 124.32 40.8 124.93 43.39 127.43 38.01 137.18 39.38 137.1 39.94 127.77 38.64 124.75 45.13"/><path class="cls-9" d="M370.66,294.59l-.76.59,1.52,1.33-.63.49-1.52-1.34-.81.63,1.78,1.56-.66.5L367,296.12l3.52-2.69,2.47,2.17-.66.5Z" transform="translate(-262.2 -252.53)"/><path class="cls-9" d="M372.84,298.84l2.22,1.95-.61.47-2.22-2Zm1.25-.95,2.22,1.95-.61.46-2.22-1.95Z" transform="translate(-262.2 -252.53)"/><path class="cls-9" d="M381.61,305.9a2,2,0,0,1-.3.28l-1.5,1.15-.73-.64,1.44-1.11a1.28,1.28,0,0,0,.19-.18.47.47,0,0,0-.06-.74.88.88,0,0,0-1.21.05l-1.39,1.06-.73-.64,1.44-1.11a1.24,1.24,0,0,0,.18-.17.47.47,0,0,0-.05-.74.88.88,0,0,0-1.22.06l-1.37,1.06-.73-.64,2.7-2.07.69.61-.29.21a1.53,1.53,0,0,1,1.05.39,1.09,1.09,0,0,1,.41,1.09,1.67,1.67,0,0,1,1.32.43A1.07,1.07,0,0,1,381.61,305.9Z" transform="translate(-262.2 -252.53)"/><path class="cls-9" d="M381.5,306.88a1.93,1.93,0,0,1,2.81-.12,1.55,1.55,0,0,1,.57,1.63l-.89-.23a.76.76,0,0,0-.26-.83,1,1,0,0,0-1.47.17.7.7,0,0,0,.09,1.07.92.92,0,0,0,.91.2l.24.81a1.84,1.84,0,0,1-1.72-.45A1.51,1.51,0,0,1,381.5,306.88Z" transform="translate(-262.2 -252.53)"/><path class="cls-9" d="M385.94,309.31l.86.75-.42.33L384.75,309l.34-.26,1.55.16c.37,0,.52,0,.62-.12s.08-.3-.13-.48a.83.83,0,0,0-.63-.21l-.11-.52a1.44,1.44,0,0,1,1.19.4c.46.4.55.88.26,1.21s-.39.31-1.09.24Z" transform="translate(-262.2 -252.53)"/><path class="cls-7" d="M392.65,320.44l-6.11-3.88,12.83-6.7Zm-5.16-3.84,5,3.18L398,311.1Z" transform="translate(-262.2 -252.53)"/><path class="cls-7" d="M392.65,320.44l-2.71-1.72.12-.2a2.89,2.89,0,0,1,4.12-.92l.19.13Zm-2.05-1.87,1.91,1.21,1.21-1.9a2.42,2.42,0,0,0-3.12.69Z" transform="translate(-262.2 -252.53)"/><path class="cls-7" d="M384.34,336.43a2.86,2.86,0,0,1-2.11-.62,5.46,5.46,0,0,1-1.41-1.75,5.19,5.19,0,0,1-.71-2.13,2.64,2.64,0,0,1,.71-2.07,2.74,2.74,0,0,1,2-.68,3.83,3.83,0,0,1,3.43,5.15C385.93,335.31,385.46,336.26,384.34,336.43Z" transform="translate(-262.2 -252.53)"/><path class="cls-7" d="M386.41,325.12a5.94,5.94,0,0,1,5.48,5.83,9.3,9.3,0,0,0,0,3c.2.62.63,1.19.56,1.84-.1.85-1,1.32-1.78,1.65a6.47,6.47,0,0,1-2.3.65,2.2,2.2,0,0,1-2-1c-.18-.36-.84-1.87-1.24-1.86s-1.69.88-2.17.14c-.29-.45-.57-.39-.12-.68-.68.06.07,1.52-.58,1.14-1.83-1.08-2.5-3.8-2.61-4.72a4.76,4.76,0,0,1,2-4.19A8.28,8.28,0,0,1,386.41,325.12Z" transform="translate(-262.2 -252.53)"/><g class="cls-10"><path class="cls-9" d="M386.41,325.12a5.94,5.94,0,0,1,5.48,5.83,9.3,9.3,0,0,0,0,3c.2.62.63,1.19.56,1.84-.1.85-1,1.32-1.78,1.65a6.47,6.47,0,0,1-2.3.65,2.2,2.2,0,0,1-2-1c-.18-.36-.84-1.87-1.24-1.86s-1.69.88-2.17.14c-.29-.45-.57-.39-.12-.68-.68.06.07,1.52-.58,1.14-1.83-1.08-2.5-3.8-2.61-4.72a4.76,4.76,0,0,1,2-4.19A8.28,8.28,0,0,1,386.41,325.12Z" transform="translate(-262.2 -252.53)"/></g><path class="cls-7" d="M386.75,329.88a2.33,2.33,0,0,1-.25,1.88,2,2,0,0,1-1.53,1.06,1.61,1.61,0,0,1-1.48-1,2.09,2.09,0,0,1,.16-1.83,2.6,2.6,0,0,1,1.56-1.25A1.66,1.66,0,0,1,386.75,329.88Z" transform="translate(-262.2 -252.53)"/><path class="cls-7" d="M387.8,329.33a2.08,2.08,0,0,0,.9,1.44,1.75,1.75,0,0,0,1.64.3,1.44,1.44,0,0,0,.84-1.36,1.87,1.87,0,0,0-.81-1.43,2.33,2.33,0,0,0-1.73-.44A1.49,1.49,0,0,0,387.8,329.33Z" transform="translate(-262.2 -252.53)"/><path class="cls-7" d="M389.07,331.73a.89.89,0,0,1,.43.38.54.54,0,0,1-.4.68.79.79,0,0,1-.77-.35.81.81,0,0,1-.22.54.43.43,0,0,1-.54.06.46.46,0,0,1-.14-.44,1.36,1.36,0,0,1,.19-.44c.11-.19.35-.85.58-.89S388.89,331.63,389.07,331.73Z" transform="translate(-262.2 -252.53)"/><path class="cls-7" d="M391.31,333.82c0,.16.16.38.13.54a3.18,3.18,0,0,1-.6.41,18.27,18.27,0,0,1-3.77,1.28,1.73,1.73,0,0,0-.85-.92.94.94,0,0,1,.94.68,13.92,13.92,0,0,0,4.08-1.52c-.06-.29-.2-.8.27-.88C391.5,333.41,391.38,333.4,391.31,333.82Z" transform="translate(-262.2 -252.53)"/><polygon class="cls-5" points="125.37 32.7 123.42 32.1 123.1 31.23 126.12 32.16 125.37 32.7"/><path class="cls-7" d="M393.08,278a4.14,4.14,0,0,1-2.24,2.54,2.72,2.72,0,0,0-1.5,1.66l-.09.3-3.45-1.06.09-.3a2.72,2.72,0,0,0-.3-2.21,4.14,4.14,0,1,1,7.49-.92Z" transform="translate(-262.2 -252.53)"/><path class="cls-13" d="M393.08,278a4.14,4.14,0,0,1-2.24,2.54,2.72,2.72,0,0,0-1.5,1.66l-.09.3-3.45-1.06.09-.3a2.72,2.72,0,0,0-.3-2.21,4.14,4.14,0,1,1,7.49-.92Z" transform="translate(-262.2 -252.53)"/><rect class="cls-7" x="384.92" y="279.32" width="4.34" height="0.25" transform="translate(-190.99 384.88) rotate(-84.4)"/><rect class="cls-7" x="387.11" y="279.99" width="4.34" height="0.25" transform="translate(-305.29 235.08) rotate(-61.37)"/><polygon class="cls-7" points="126.55 27.13 126.33 26.11 125.59 26.83 125.01 25.52 125.24 25.42 125.67 26.4 126.49 25.62 126.72 26.73 127.63 26.16 127.77 26.37 126.55 27.13"/><polygon class="cls-7" points="127.09 29.81 126.43 31.94 122.97 30.89 123.63 28.76 127.09 29.81"/><rect class="cls-7" x="386.73" y="282.28" width="0.25" height="3.61" transform="translate(-259.11 319.8) rotate(-73.2)"/><rect class="cls-7" x="387.43" y="280.01" width="0.25" height="3.61" transform="translate(-256.42 318.88) rotate(-73.21)"/><g class="cls-14"><rect x="387.43" y="280.01" width="0.25" height="3.61" transform="translate(-256.42 318.88) rotate(-73.21)"/></g><g class="cls-14"><rect x="386.73" y="282.28" width="0.25" height="3.61" transform="translate(-259.11 319.8) rotate(-73.2)"/></g></g><g id="Sheets"><rect class="cls-7" x="316.33" y="404.69" width="23.26" height="5.78" transform="translate(393.71 562.62) rotate(180)"/><rect class="cls-15" x="316.4" y="404.71" width="23.26" height="5.78" transform="translate(393.86 562.67) rotate(180)"/><rect class="cls-15" x="316.33" y="404.71" width="17.85" height="5.78" transform="translate(388.31 562.67) rotate(180)"/><polygon class="cls-16" points="54.24 157.2 77.39 157.92 77.36 157.33 54.23 157.03 54.24 157.2"/><polygon class="cls-16" points="77.39 154.52 54.28 153.22 54.28 153.42 77.39 154.96 77.39 154.52"/><polygon class="cls-16" points="77.39 152.78 54.28 153.31 54.28 153.5 77.39 153.22 77.39 152.78"/><polygon class="cls-16" points="77.45 155.66 54.34 156.79 54.34 156.62 77.45 155.28 77.45 155.66"/><polygon class="cls-16" points="54.18 152.23 77.3 152.25 77.3 152.44 54.18 152.44 54.18 152.23"/><rect class="cls-7" x="317.99" y="387.46" width="23.26" height="5.78" transform="translate(397.05 528.17) rotate(180)"/><rect class="cls-15" x="318.07" y="387.48" width="23.26" height="5.78" transform="translate(397.2 528.22) rotate(180)"/><rect class="cls-15" x="317.99" y="387.48" width="17.85" height="5.78" transform="translate(391.64 528.22) rotate(180)"/><polygon class="cls-16" points="55.91 139.97 79.06 140.69 79.03 140.11 55.9 139.8 55.91 139.97"/><polygon class="cls-16" points="79.06 137.3 55.94 136 55.94 136.19 79.06 137.74 79.06 137.3"/><polygon class="cls-16" points="79.06 135.55 55.94 136.08 55.94 136.27 79.06 135.99 79.06 135.55"/><polygon class="cls-16" points="79.12 138.44 56.01 139.56 56.01 139.39 79.12 138.05 79.12 138.44"/><rect class="cls-7" x="317.7" y="398.82" width="23.26" height="5.78" transform="translate(396.47 550.89) rotate(180)"/><rect class="cls-15" x="317.78" y="398.85" width="23.26" height="5.78" transform="translate(396.62 550.94) rotate(180)"/><rect class="cls-15" x="55.56" y="146.31" width="17.85" height="5.78"/><polygon class="cls-16" points="78.67 151.17 55.53 151.47 55.51 152.05 78.65 151.34 78.67 151.17"/><polygon class="cls-16" points="55.66 146.36 78.77 146.38 78.77 146.57 55.66 146.57 55.66 146.36"/><polygon class="cls-16" points="55.51 149.1 78.62 147.56 78.62 147.36 55.51 148.66 55.51 149.1"/><polygon class="cls-16" points="78.77 146.91 55.66 147.44 55.66 147.63 78.77 147.35 78.77 146.91"/><polygon class="cls-16" points="78.83 149.8 55.72 150.92 55.72 150.75 78.83 149.41 78.83 149.8"/><polygon class="cls-7" points="77.96 140.84 54.71 140.95 54.68 146.62 77.96 146.62 77.96 140.84"/><rect class="cls-15" x="316.9" y="393.37" width="23.26" height="5.78" transform="translate(394.86 539.99) rotate(180)"/><rect class="cls-15" x="54.68" y="140.83" width="17.85" height="5.78"/><polygon class="cls-16" points="73.23 140.95 54.71 140.95 54.71 141.54 72.83 141.54 73.23 140.95"/><polygon class="cls-16" points="77.83 143.32 54.71 143.54 54.71 143.71 77.83 143.71 77.83 143.32"/><polygon class="cls-16" points="54.71 146 77.83 144.87 77.83 145.04 54.71 146.38 54.71 146"/><polygon class="cls-16" points="54.71 143.82 77.83 144.28 77.83 144.45 54.71 144.21 54.71 143.82"/><rect class="cls-7" x="60.79" y="128.25" width="23.11" height="2.91"/><rect class="cls-15" x="60.79" y="128.25" width="23.11" height="2.91"/><rect class="cls-15" x="60.79" y="128.25" width="18.42" height="2.91"/><polygon class="cls-16" points="83.91 130.32 60.8 130.43 60.8 130.52 83.91 130.52 83.91 130.32"/><polygon class="cls-16" points="60.8 129.23 83.91 128.64 83.91 128.73 60.8 129.43 60.8 129.23"/><polygon class="cls-16" points="60.73 129.07 83.84 129.31 83.84 129.4 60.73 129.27 60.73 129.07"/><rect class="cls-7" x="57.55" y="126.97" width="23.11" height="1.4"/><rect class="cls-15" x="57.55" y="126.98" width="23.11" height="1.39"/><rect class="cls-15" x="57.55" y="126.9" width="18.42" height="1.48"/><polygon class="cls-16" points="57.56 128.04 80.68 127.45 80.68 127.54 57.56 128.24 57.56 128.04"/><polygon class="cls-16" points="57.56 127.34 80.68 127.57 80.68 127.66 57.56 127.53 57.56 127.34"/><rect class="cls-7" x="59.71" y="125.54" width="23.11" height="1.4"/><rect class="cls-15" x="59.71" y="125.55" width="23.11" height="1.39"/><rect class="cls-15" x="59.71" y="125.46" width="18.42" height="1.48"/><polygon class="cls-16" points="59.72 126.17 82.84 126.45 82.83 126.54 59.71 126.37 59.72 126.17"/><polygon class="cls-16" points="59.72 125.9 82.83 126.14 82.83 126.23 59.72 126.1 59.72 125.9"/><rect class="cls-7" x="59.22" y="131.17" width="23.11" height="3.75"/><rect class="cls-15" x="59.22" y="131.17" width="23.11" height="3.75"/><rect class="cls-15" x="59.22" y="131.17" width="17.83" height="3.75"/><polygon class="cls-16" points="82.19 132.33 59.08 132.2 59.08 132.1 82.19 132.1 82.19 132.33"/><polygon class="cls-16" points="59.24 132.88 82.35 133.55 82.35 133.45 59.24 132.65 59.24 132.88"/><polygon class="cls-16" points="82.35 131.17 60.55 131.17 61.03 131.63 82.35 131.63 82.35 131.17"/><polygon class="cls-16" points="59.32 134.34 82.43 134.06 82.43 133.96 59.32 134.1 59.32 134.34"/></g><g id="Character"><g id="_Group_" data-name="&lt;Group&gt;"><path class="cls-17" d="M382,371.69c0,1.58,0,3.06-.08,4.59s-.18,3-.33,4.56a53.11,53.11,0,0,1-1.67,9.19l-.38,1.17-.1.29,0,.08,0,.11-.12.31a4.89,4.89,0,0,1-.58,1,5.91,5.91,0,0,1-1.34,1.33,8.66,8.66,0,0,1-1.33.8,18.19,18.19,0,0,1-4.86,1.48,41.68,41.68,0,0,1-9.24.48l-.16-3,2.11-.43c.71-.15,1.41-.32,2.1-.48,1.39-.33,2.77-.69,4.07-1.12a15.83,15.83,0,0,0,3.45-1.5,2,2,0,0,0,.72-.66c0-.07-.12.24,0-.25l.24-1a61.07,61.07,0,0,0,1.06-8.3c.11-1.42.17-2.85.24-4.29s.09-2.89.1-4.26Z" transform="translate(-262.2 -252.53)"/><path class="cls-17" d="M363,394.23l-3.32-2.4-1,5.06s3.29,1.42,4.23-.24Z" transform="translate(-262.2 -252.53)"/><polygon class="cls-17" points="94.12 139.4 93.49 143.63 96.49 144.36 97.49 139.29 94.12 139.4"/><path class="cls-7" d="M384.4,367.47c.73,3.79-2.23,12.74-2.23,12.74L372.53,379c1.48-3.39,2-8.28,3.87-11.47C378.13,364.66,383.6,363.34,384.4,367.47Z" transform="translate(-262.2 -252.53)"/><path class="cls-18" d="M384.4,367.47c.73,3.79-2.23,12.74-2.23,12.74L372.53,379c1.48-3.39,2-8.28,3.87-11.47C378.13,364.66,383.6,363.34,384.4,367.47Z" transform="translate(-262.2 -252.53)"/><path class="cls-7" d="M398.15,364.74a2.31,2.31,0,0,1,2,2.59v.06a94.92,94.92,0,0,0-1,11.18c-.1,3.15-.06,6.15,0,8.86.23,6.35.8,11.16.76,12.82L378.7,402c-3.71-16.89-2.5-29.39-1.46-33.94a3.85,3.85,0,0,1,2.9-2.91c.82-.18,1.79-.37,2.83-.53.36,0,.73-.1,1.1-.14a80.17,80.17,0,0,1,9.19-.21c.58,0,1.17.05,1.74.09C396.15,364.49,397.24,364.62,398.15,364.74Z" transform="translate(-262.2 -252.53)"/><path class="cls-18" d="M398.15,364.74a2.31,2.31,0,0,1,2,2.59v.06a94.92,94.92,0,0,0-1,11.18c-.1,3.15-.06,6.15,0,8.86.23,6.35.8,11.16.76,12.82L378.7,402c-3.71-16.89-2.5-29.39-1.46-33.94a3.85,3.85,0,0,1,2.9-2.91c.82-.18,1.79-.37,2.83-.53.36,0,.73-.1,1.1-.14a80.17,80.17,0,0,1,9.19-.21c.58,0,1.17.05,1.74.09C396.15,364.49,397.24,364.62,398.15,364.74Z" transform="translate(-262.2 -252.53)"/><path class="cls-17" d="M392.16,354c-.52,3-1,8.39,1.11,10.32-4.68,3.8-7.43,8.79-8.44,7.85-.53-.49-1.29-6.7-.75-7.67,3.28-.85,3.15-3.29,2.53-5.58Z" transform="translate(-262.2 -252.53)"/><path class="cls-19" d="M389.9,356l-3.28,2.91a9.21,9.21,0,0,1,.32,1.63c1.26-.21,3-1.62,3.06-2.95A4.4,4.4,0,0,0,389.9,356Z" transform="translate(-262.2 -252.53)"/><path class="cls-20" d="M381.09,346.54c-2,.26-2.74,3.74-.49,6.37S383.72,346.19,381.09,346.54Z" transform="translate(-262.2 -252.53)"/><path class="cls-17" d="M391,348.65c.59,4,1.14,6.26-.41,8.68-2.33,3.65-7.55,2.89-9.32-.82-1.58-3.34-2.29-9.27,1.22-11.64a5.47,5.47,0,0,1,8.51,3.77Z" transform="translate(-262.2 -252.53)"/><path class="cls-20" d="M387.32,349.24a2.17,2.17,0,0,0,1.82,1.49,3.69,3.69,0,0,1,.29,2.75l1.46.19a2.31,2.31,0,0,1,2.13-2.34q-.6,2.39-1.41,4.72a12.15,12.15,0,0,0,3.54-5,6.94,6.94,0,0,0,.53-2.92,3.77,3.77,0,0,0-1.23-2.63,4.11,4.11,0,0,0-3.7-.6C388.54,345.53,386.35,346.68,387.32,349.24Z" transform="translate(-262.2 -252.53)"/><path class="cls-17" d="M393.75,351.75a3.79,3.79,0,0,1-1.32,2.59c-1,.86-2.09.08-2.26-1.17s.18-2.94,1.43-3.31A1.7,1.7,0,0,1,393.75,351.75Z" transform="translate(-262.2 -252.53)"/><path class="cls-20" d="M385.33,351c.07.32,0,.62-.26.66s-.43-.18-.5-.5,0-.61.26-.66S385.26,350.68,385.33,351Z" transform="translate(-262.2 -252.53)"/><path class="cls-20" d="M381.74,351.76c.07.32,0,.61-.26.66s-.43-.18-.5-.5,0-.61.25-.66S381.66,351.44,381.74,351.76Z" transform="translate(-262.2 -252.53)"/><path class="cls-21" d="M382.91,351.68a11.69,11.69,0,0,1-.95,3,1.89,1.89,0,0,0,1.59,0Z" transform="translate(-262.2 -252.53)"/><path class="cls-20" d="M386.2,349.6a.19.19,0,0,1-.2,0,1.53,1.53,0,0,0-1.33-.37.19.19,0,0,1-.25-.11v0a.18.18,0,0,1,.12-.23h0a1.89,1.89,0,0,1,1.68.45.19.19,0,0,1,0,.27h0Z" transform="translate(-262.2 -252.53)"/><path class="cls-20" d="M385.35,355.83h0a2.94,2.94,0,0,0,1.93-1.9.1.1,0,0,0-.07-.13.11.11,0,0,0-.13.07,2.78,2.78,0,0,1-1.79,1.75.1.1,0,0,0,.06.2Z" transform="translate(-262.2 -252.53)"/><path class="cls-20" d="M379.92,350.85a.16.16,0,0,1-.12,0,.19.19,0,0,1-.14-.23,1.91,1.91,0,0,1,1.12-1.34.19.19,0,0,1,.24.11h0a.18.18,0,0,1-.11.24h0a1.52,1.52,0,0,0-.88,1.05A.17.17,0,0,1,379.92,350.85Z" transform="translate(-262.2 -252.53)"/><path class="cls-7" d="M354.81,380.25l4.94,15.94s4.89-1.54,7-.2a22.54,22.54,0,0,1,3.68,2.92l-3.42-17.35S362.51,376.19,354.81,380.25Z" transform="translate(-262.2 -252.53)"/><path class="cls-7" d="M367.05,381.56l3.42,17.35s5.31-5.74,10.17-3.34l1.65.85-2-17.34S374,375.86,367.05,381.56Z" transform="translate(-262.2 -252.53)"/><path class="cls-22" d="M367.05,381.56l3.42,17.35s5.31-5.74,10.17-3.34l1.65.85-2-17.34S374,375.86,367.05,381.56Z" transform="translate(-262.2 -252.53)"/><path class="cls-22" d="M354.81,380.25l4.94,15.94s4.89-1.54,7-.2a22.54,22.54,0,0,1,3.68,2.92l-3.42-17.35S362.51,376.19,354.81,380.25Z" transform="translate(-262.2 -252.53)"/><path class="cls-20" d="M370.46,398.73c-4.13-1.33-8.15-2.74-11.44.19-1.23-4.71-3-9.2-4.42-13.87-1.1-3.74-1.11-3.08.87-4.17,1.71-.94,9.68-1.8,11.37,2.58C367.45,385,370.15,398.36,370.46,398.73Z" transform="translate(-262.2 -252.53)"/><path class="cls-20" d="M383.53,398a7,7,0,0,0-8.82,0,7,7,0,0,1-2.59,1.35v0l-3.52-16.21-.14.11c.72-2.45,4.47-3.64,6.84-3.71a10.76,10.76,0,0,1,5.9,1.88S383,393.3,383.53,398Z" transform="translate(-262.2 -252.53)"/><path class="cls-20" d="M372.13,399.35s-1.43.44-2-.72L366.67,383s.58,1,1.79.19l.14-.11,3.52,16.21Z" transform="translate(-262.2 -252.53)"/><path class="cls-12" d="M372.13,399.35s-1.43.44-2-.72L366.67,383s.58,1,1.79.19l.14-.11,3.52,16.21Z" transform="translate(-262.2 -252.53)"/><path class="cls-11" d="M397.09,366.88c-1.78-.26-2.52.38-3.76,2.81-1.14,2.25-1.77,8.73-1.77,8.73-.22,3.55-.67,3.15,2.68,3.41,2.15.17,4.87.62,4.87.62S402.42,367.66,397.09,366.88Z" transform="translate(-262.2 -252.53)"/><path class="cls-17" d="M402.06,370.24c0,1.58,0,3.06-.08,4.59s-.18,3-.33,4.56a53.11,53.11,0,0,1-1.67,9.19l-.38,1.17-.1.29,0,.08,0,.11-.12.31a4.89,4.89,0,0,1-.58,1,5.91,5.91,0,0,1-1.34,1.33,8.66,8.66,0,0,1-1.33.8,18.19,18.19,0,0,1-4.86,1.48,41.68,41.68,0,0,1-9.24.48l-.16-3,2.11-.43c.71-.15,1.41-.32,2.1-.48,1.39-.33,2.77-.69,4.07-1.12a15.82,15.82,0,0,0,3.45-1.5,2,2,0,0,0,.72-.66c0-.07-.12.24,0-.25l.24-1a61.07,61.07,0,0,0,1.06-8.3c.11-1.42.17-2.85.24-4.29s.09-2.89.1-4.26Z" transform="translate(-262.2 -252.53)"/><path class="cls-17" d="M383.09,392.77l-3.32-2.4-1,5.06s3.29,1.42,4.23-.24Z" transform="translate(-262.2 -252.53)"/><polygon class="cls-17" points="114.19 137.94 113.56 142.17 116.57 142.9 117.57 137.84 114.19 137.94"/><path class="cls-7" d="M402.15,367.29c2.27,3.13,1.52,13.66,1.52,13.66l-10.5-1s-1.09-5.9.47-10.64C395.33,364.16,399.41,363.5,402.15,367.29Z" transform="translate(-262.2 -252.53)"/><path class="cls-18" d="M402.15,367.29c2.27,3.13,1.52,13.66,1.52,13.66l-10.5-1s-1.09-5.9.47-10.64C395.33,364.16,399.41,363.5,402.15,367.29Z" transform="translate(-262.2 -252.53)"/><path class="cls-20" d="M379.42,347.93a13.38,13.38,0,0,1-1.11-1.69c1.38.28,1.53-.43,2.09-2.37a6.2,6.2,0,0,1,4.44-3.81c9.14-1.48,9.66,3.71,9.75,4.55a1.57,1.57,0,0,1-1,1.47,4.61,4.61,0,0,1-1.83.33c-1.33.06-3.3.53-4.58.19C382,345.25,380.05,348,379.42,347.93Z" transform="translate(-262.2 -252.53)"/></g><polygon class="cls-17" points="110.33 163.47 116.52 166.7 119.5 168.26 118.22 171.57 115.27 170.5 108.09 167.89 110.33 163.47"/><polygon class="cls-19" points="110.33 163.47 116.52 166.7 115.27 170.5 108.09 167.89 110.33 163.47"/><polygon class="cls-17" points="99.87 172.26 93.22 174.43 90.03 175.47 88.56 172.23 91.39 170.88 98.28 167.57 99.87 172.26"/><polygon class="cls-19" points="99.87 172.26 93.22 174.43 91.39 170.88 98.28 167.57 99.87 172.26"/><path class="cls-7" d="M402.26,406.42a3,3,0,0,0-.51-.89c-2.16-2.58-10.11-2.53-14.93-2a26,26,0,0,0-8.16,2.91,5.66,5.66,0,0,0-1.75-1.73c-4-2.34-9.5-3.2-14.89-3.12,7.83-.25,16.68.47,16.68.47l21.12-1.75A16.83,16.83,0,0,1,402.26,406.42Z" transform="translate(-262.2 -252.53)"/><path class="cls-11" d="M402.26,406.42a3,3,0,0,0-.51-.89c-2.16-2.58-10.11-2.53-14.93-2a26,26,0,0,0-8.16,2.91,5.66,5.66,0,0,0-1.75-1.73c-4-2.34-9.5-3.2-14.89-3.12,7.83-.25,16.68.47,16.68.47l21.12-1.75A16.83,16.83,0,0,1,402.26,406.42Z" transform="translate(-262.2 -252.53)"/><path class="cls-7" d="M379.82,415.23a7.51,7.51,0,0,1-5.53,3.11,22.06,22.06,0,0,1-6.51-.5l-5.62-1L353,415.23a15.9,15.9,0,0,1-5-1.48c-4.93-2.74-5.93-5.83-3.37-8.07a9.13,9.13,0,0,1,2.89-1.63l.13-.05a41.72,41.72,0,0,1,9.07-2.07h.11a49.13,49.13,0,0,1,5.2-.35c5.4-.08,10.87.78,14.89,3.12a5.66,5.66,0,0,1,1.75,1.73C380.4,409,381.18,413.09,379.82,415.23Z" transform="translate(-262.2 -252.53)"/><path class="cls-11" d="M379.82,415.23a7.51,7.51,0,0,1-5.53,3.11,22.06,22.06,0,0,1-6.51-.5l-5.62-1L353,415.23a15.9,15.9,0,0,1-5-1.48c-4.93-2.74-5.93-5.83-3.37-8.07a9.13,9.13,0,0,1,2.89-1.63l.13-.05a41.72,41.72,0,0,1,9.07-2.07h.11a49.13,49.13,0,0,1,5.2-.35c5.4-.08,10.87.78,14.89,3.12a5.66,5.66,0,0,1,1.75,1.73C380.4,409,381.18,413.09,379.82,415.23Z" transform="translate(-262.2 -252.53)"/><path class="cls-7" d="M346.08,404.75s-5.3,2.66-4.12,7.92c0,0,.85,3.36,10.86,5.35s22.69,4.29,22.69,4.29l1.28-4.09s-13.16-11.36-23.11-13.8A13.21,13.21,0,0,0,346.08,404.75Z" transform="translate(-262.2 -252.53)"/><polygon class="cls-7" points="113.86 171.38 110.64 171.32 113.45 163.38 116 164.88 113.86 171.38"/><g class="cls-23"><polygon class="cls-9" points="113.86 171.38 110.64 171.32 113.45 163.38 116 164.88 113.86 171.38"/></g><path class="cls-7" d="M379.9,419c.06.27,9.64,2.85,13.21,1.58C404.27,416.64,377.27,407.63,379.9,419Z" transform="translate(-262.2 -252.53)"/><path class="cls-11" d="M379.9,419c.06.27,9.64,2.85,13.21,1.58C404.27,416.64,377.27,407.63,379.9,419Z" transform="translate(-262.2 -252.53)"/><path class="cls-7" d="M401.9,412.86a14.61,14.61,0,0,1-1,2.29h0l-.2.37c-.18.32-.37.62-.57.91l0,.06-.28.39c-2.85,3.68-10.32,5.12-12.09,2.74a12.89,12.89,0,0,1-1.66-3.62,130,130,0,0,1-18.71,7.9c-3.31,1.1-6.84,2.15-10.41,3l-2.15-4.52.85-.67c1.19-.93,3.55-2.75,6.51-4.88a135,135,0,0,1,16.49-10.43,26,26,0,0,1,8.16-2.91c4.83-.51,12.77-.56,14.93,2a3,3,0,0,1,.51.89C402.89,408,402.68,410.51,401.9,412.86Z" transform="translate(-262.2 -252.53)"/><polygon class="cls-7" points="92.21 169.01 94.62 166.85 97.96 174.58 95.07 175.23 92.21 169.01"/><g class="cls-23"><polygon class="cls-9" points="92.21 169.01 94.62 166.85 97.96 174.58 95.07 175.23 92.21 169.01"/></g><path class="cls-7" d="M376.12,426.72a.78.78,0,0,0,.61.13l.3-.12a1.74,1.74,0,0,0,.67-.53l.16-.2a7,7,0,0,0,.63-.94.08.08,0,0,0,0-.11.13.13,0,0,0-.14,0l-.32.13-.07,0h0l-.45.21c-.65.32-1.45.76-1.5,1.11A.31.31,0,0,0,376.12,426.72Zm.1-.26a.3.3,0,0,1,.1-.16,6.38,6.38,0,0,1,1.51-.92l.13-.05.18-.07c-.07.12-.15.24-.23.35a4.37,4.37,0,0,1-.56.67,1.36,1.36,0,0,1-.65.4.49.49,0,0,1-.41-.09A.11.11,0,0,1,376.22,426.46Z" transform="translate(-262.2 -252.53)"/><path class="cls-7" d="M375.33,424.84c.22.35,1.38.51,2.14.49l.39,0h0l0,0a.12.12,0,0,0,0,0,.08.08,0,0,0,0-.09h0a3.44,3.44,0,0,0-1.77-.9,1,1,0,0,0-.66.18C375.24,424.58,375.27,424.73,375.33,424.84Zm.21-.09s-.05-.08.11-.2l.06,0a.76.76,0,0,1,.43-.09,3,3,0,0,1,1.46.71A3.63,3.63,0,0,1,375.55,424.75Z" transform="translate(-262.2 -252.53)"/><path class="cls-20" d="M378.35,423.57l3.18-3.31a.48.48,0,0,1,.52-.1l4,1.74a.59.59,0,0,1,.3.9l0,.06a39,39,0,0,1-7.24,8.06c-1.71,1.67-3.13.37-2.75-.3,1.67-3,1.68-4.07,1.56-5.49A2.81,2.81,0,0,1,378.35,423.57Z" transform="translate(-262.2 -252.53)"/><path class="cls-7" d="M348.32,421a.78.78,0,0,0-.31.54,2.09,2.09,0,0,0,0,.33,1.74,1.74,0,0,0,.31.8l.14.21a7,7,0,0,0,.71.88.08.08,0,0,0,.11,0,.13.13,0,0,0,0-.13s0-.17,0-.34v-.08h0c0-.14,0-.31-.06-.49-.1-.72-.29-1.61-.61-1.76A.31.31,0,0,0,348.32,421Zm.22.17a.3.3,0,0,1,.13.14,6.38,6.38,0,0,1,.42,1.71s0,.09,0,.14,0,.13,0,.2l-.26-.32a4.37,4.37,0,0,1-.47-.74,1.36,1.36,0,0,1-.18-.74.49.49,0,0,1,.21-.36A.11.11,0,0,1,348.53,421.15Z" transform="translate(-262.2 -252.53)"/><path class="cls-7" d="M350.35,420.8c-.4.11-.9,1.16-1.11,1.89a2.85,2.85,0,0,0-.09.38v0a.07.07,0,0,0,0,0,.12.12,0,0,0,0,.05.08.08,0,0,0,.1,0h0a3.44,3.44,0,0,0,1.39-1.41,1,1,0,0,0,0-.68C350.62,420.8,350.47,420.77,350.35,420.8Zm0,.23s.1,0,.16.17l0,.07a.76.76,0,0,1,0,.44,3,3,0,0,1-1.12,1.18C349.56,422.18,350.08,421.11,350.37,421Z" transform="translate(-262.2 -252.53)"/><path class="cls-20" d="M350.84,424.37l1.71,3.31a.48.48,0,0,1-.06.53l-3.42,2.57a.59.59,0,0,1-.95,0l0-.06a46.05,46.05,0,0,1-5.66-9.21c-1.07-2.14.6-3.09,1.12-2.54,2.34,2.5,4.14,3.91,5.53,4.23C351,423.9,350.71,424.13,350.84,424.37Z" transform="translate(-262.2 -252.53)"/><path class="cls-20" d="M380.69,353.79h0a2,2,0,1,1,2-2h0A2,2,0,0,1,380.69,353.79Zm0-3.52a1.54,1.54,0,0,0,0,3.07h0a1.54,1.54,0,0,0,0-3.07Z" transform="translate(-262.2 -252.53)"/><path class="cls-20" d="M385.26,352.7h0a2,2,0,1,1,2-2h0A2,2,0,0,1,385.26,352.7Zm0-3.52a1.54,1.54,0,0,0,0,3.07,1.54,1.54,0,0,0,0-3.07Z" transform="translate(-262.2 -252.53)"/><path class="cls-20" d="M382.5,351.1l-.44-.09c0-.07.16-.73.63-.87.3-.09.62,0,1,.4l-.32.31c-.22-.22-.4-.32-.52-.28S382.53,351,382.5,351.1Z" transform="translate(-262.2 -252.53)"/><polygon class="cls-20" points="124.84 98.09 124.74 97.66 129.25 96.58 130.13 96.78 130.03 97.21 129.26 97.04 124.84 98.09"/></g><g id="Books"><path class="cls-7" d="M408.66,412.4v3.05a.29.29,0,0,0,0,.58h3.49v-4.24h-3.49A.29.29,0,0,0,408.66,412.4Z" transform="translate(-262.2 -252.53)"/><path class="cls-24" d="M408.66,412.4v3.05a.29.29,0,0,0,0,.58h3.49v-4.24h-3.49A.29.29,0,0,0,408.66,412.4Z" transform="translate(-262.2 -252.53)"/><rect class="cls-7" x="146.46" y="159.87" width="2.71" height="3.05"/><rect class="cls-25" x="146.46" y="159.87" width="2.71" height="3.05"/><path class="cls-7" d="M410.8,412.1h15c.65,0,1.17.81,1.17,1.82s-.52,1.82-1.17,1.82h-15Z" transform="translate(-262.2 -252.53)"/><path class="cls-13" d="M410.8,412.1h15c.65,0,1.17.81,1.17,1.82s-.52,1.82-1.17,1.82h-15Z" transform="translate(-262.2 -252.53)"/><path class="cls-7" d="M410.8,416c3.08,0,11.73.06,14.81,0,2.11,0,2.22-4.08.15-4.22-1.44-.1-2.93,0-4.37,0H410.8a.29.29,0,0,0,0,.58h14.33c.68,0,1.16,0,1.42.8s.15,2.1-.77,2.25a2,2,0,0,1-.32,0H410.8a.29.29,0,0,0,0,.58Z" transform="translate(-262.2 -252.53)"/><g class="cls-14"><path class="cls-9" d="M410.8,416c3.08,0,11.73.06,14.81,0,2.11,0,2.22-4.08.15-4.22-1.44-.1-2.93,0-4.37,0H410.8a.29.29,0,0,0,0,.58h14.33c.68,0,1.16,0,1.42.8s.15,2.1-.77,2.25a2,2,0,0,1-.32,0H410.8a.29.29,0,0,0,0,.58Z" transform="translate(-262.2 -252.53)"/></g><path class="cls-7" d="M409.18,416.52v2.83a.27.27,0,0,0,0,.54h3.23V416h-3.23A.27.27,0,0,0,409.18,416.52Z" transform="translate(-262.2 -252.53)"/><path class="cls-24" d="M409.18,416.52v2.83a.27.27,0,0,0,0,.54h3.23V416h-3.23A.27.27,0,0,0,409.18,416.52Z" transform="translate(-262.2 -252.53)"/><rect class="cls-7" x="146.98" y="163.99" width="2.51" height="2.82"/><rect class="cls-25" x="146.98" y="163.99" width="2.51" height="2.82"/><path class="cls-7" d="M411.16,416.25H425c.6,0,1.08.75,1.08,1.68s-.49,1.68-1.08,1.68H411.16Z" transform="translate(-262.2 -252.53)"/><path class="cls-13" d="M411.16,416.25H425c.6,0,1.08.75,1.08,1.68s-.49,1.68-1.08,1.68H411.16Z" transform="translate(-262.2 -252.53)"/><path class="cls-7" d="M411.16,419.89c2.85,0,10.87.05,13.72,0,2,0,2.06-3.78.14-3.91-1.34-.09-2.71,0-4,0h-9.81a.27.27,0,0,0,0,.54h13.27c.63,0,1.07,0,1.31.74s.14,1.94-.71,2.08a1.89,1.89,0,0,1-.29,0H411.16a.27.27,0,0,0,0,.54Z" transform="translate(-262.2 -252.53)"/><path class="cls-7" d="M407.57,420.48v3.36a.32.32,0,0,0,0,.64l3.85,0v-4.67h-3.85A.32.32,0,0,0,407.57,420.48Z" transform="translate(-262.2 -252.53)"/><path class="cls-24" d="M407.57,420.48v3.36a.32.32,0,0,0,0,.64l3.85,0v-4.67h-3.85A.32.32,0,0,0,407.57,420.48Z" transform="translate(-262.2 -252.53)"/><rect class="cls-7" x="145.37" y="167.95" width="2.99" height="3.36"/><rect class="cls-25" x="145.37" y="167.95" width="2.99" height="3.36"/><path class="cls-7" d="M409.93,420.16h16.51c.71,0,1.29.9,1.29,2s-.58,2-1.29,2H409.93Z" transform="translate(-262.2 -252.53)"/><path class="cls-13" d="M409.93,420.16h16.51c.71,0,1.29.9,1.29,2s-.58,2-1.29,2H409.93Z" transform="translate(-262.2 -252.53)"/><path class="cls-7" d="M409.93,424.49c3.39,0,12.93.06,16.33,0,2.32,0,2.45-4.5.17-4.65-1.59-.11-3.22,0-4.82,0H409.93a.32.32,0,0,0,0,.64h15.79c.74,0,1.28,0,1.56.89s.17,2.31-.85,2.48a2.25,2.25,0,0,1-.35,0H409.93a.32.32,0,0,0,0,.64Z" transform="translate(-262.2 -252.53)"/><g class="cls-14"><path d="M409.93,424.49c3.39,0,12.93.06,16.33,0,2.32,0,2.45-4.5.17-4.65-1.59-.11-3.22,0-4.82,0H409.93a.32.32,0,0,0,0,.64h15.79c.74,0,1.28,0,1.56.89s.17,2.31-.85,2.48a2.25,2.25,0,0,1-.35,0H409.93a.32.32,0,0,0,0,.64Z" transform="translate(-262.2 -252.53)"/></g><polygon class="cls-7" points="43.9 171.2 48.41 164.11 56.27 161.57 67.31 163.3 67.97 169.89 62.5 170.93 57.79 170.22 55.18 169.2 52.17 171.78 47.97 172.51 45.19 172.16 43.9 171.2"/><polygon class="cls-11" points="43.9 171.2 48.41 164.11 56.27 161.57 67.31 163.3 67.97 169.89 62.5 170.93 57.79 170.22 55.18 169.2 52.17 171.78 47.97 172.51 45.19 172.16 43.9 171.2"/><polygon class="cls-14" points="57.8 161.81 56.99 169.91 55.18 169.2 53.1 170.98 54.87 162.02 56.27 161.57 57.8 161.81"/><path class="cls-7" d="M305.81,424.86s7.81,3.25,11.81-2.39c0,0,8.19,4,12.55,0l-.75-1.24s-2.12,3.47-12.13-.25a9.68,9.68,0,0,1-11.19,2.78Z" transform="translate(-262.2 -252.53)"/><path class="cls-22" d="M305.81,424.86s7.81,3.25,11.81-2.39c0,0,8.19,4,12.55,0l-.75-1.24s-2.12,3.47-12.13-.25a9.68,9.68,0,0,1-11.19,2.78Z" transform="translate(-262.2 -252.53)"/><polygon class="cls-7" points="49.48 165.32 55.15 160.77 63.15 160.33 73.37 163.75 72.75 168.91 67.31 168.65 62.95 167.22 60.65 165.94 57.28 167.34 53.13 167.09 50.54 166.29 49.48 165.32"/><polygon class="cls-11" points="49.48 165.32 55.15 160.77 63.15 160.33 73.37 163.75 72.75 168.91 67.31 168.65 62.95 167.22 60.65 165.94 57.28 167.34 53.13 167.09 50.54 166.29 49.48 165.32"/><polygon class="cls-14" points="64.56 160.8 62.25 166.83 60.65 165.94 58.32 166.9 61.72 160.41 63.15 160.33 64.56 160.8"/><path class="cls-7" d="M311.2,418.66s6.85,4,11.74.43c0,0,7.06,4.62,12,2.35l-.49-1.09s-2.69,2.25-11.54-2.5a11.11,11.11,0,0,1-11.23,0Z" transform="translate(-262.2 -252.53)"/><path class="cls-22" d="M311.2,418.66s6.85,4,11.74.43c0,0,7.06,4.62,12,2.35l-.49-1.09s-2.69,2.25-11.54-2.5a11.11,11.11,0,0,1-11.23,0Z" transform="translate(-262.2 -252.53)"/><path class="cls-7" d="M378,404.09l25.05,1.06s-.45-3.07-.78-3.15-4.44-3.63-9.24-1.94c-1,.37-1.81.64-2.35.85-.52-.25-1.26-.59-2.27-1-4.64-2.09-9,1.1-9.38,1.15S378,404.09,378,404.09Z" transform="translate(-262.2 -252.53)"/><path class="cls-25" d="M378,404.09l25.05,1.06v-.08c-.07-.47-.47-3-.77-3.08l-.05,0c-.58-.32-4.57-3.54-9.18-1.92-1.05.37-1.81.64-2.35.85-.53-.25-1.26-.59-2.27-1-4.64-2.09-9,1.1-9.38,1.15S378,404.09,378,404.09Z" transform="translate(-262.2 -252.53)"/><path class="cls-7" d="M375.15,404,400.51,405s-.46-3.1-.79-3.19-4.52-3.21-9.37-1.5a8.14,8.14,0,0,0-2.42,1.93,8.14,8.14,0,0,0-2.25-2.13c-4.7-2.11-9.13.64-9.47.7S375.15,404,375.15,404Z" transform="translate(-262.2 -252.53)"/><path class="cls-22" d="M375.15,404,400.51,405s-.46-3.1-.79-3.19-4.52-3.21-9.37-1.5a8.14,8.14,0,0,0-2.42,1.93,8.14,8.14,0,0,0-2.25-2.13c-4.7-2.11-9.13.64-9.47.7S375.15,404,375.15,404Z" transform="translate(-262.2 -252.53)"/><polygon class="cls-7" points="125.58 150.59 126.32 152.08 124.41 152 125.58 150.59"/><g class="cls-26"><polygon points="125.58 150.59 126.32 152.08 124.41 152 125.58 150.59"/></g><path class="cls-11" d="M399.75,401.87a5.64,5.64,0,0,1,.36,1.1c.2.94.4,2.07.4,2.07l2.56.11v-.08c-.07-.47-.47-3-.77-3.08l-.05,0Z" transform="translate(-262.2 -252.53)"/><path class="cls-20" d="M374.14,404.86l12.42.82,0,0a1.39,1.39,0,0,1,1.85.08l0,0,12.81.38,3.23.1-.2-1.12-15.79-.67a1.39,1.39,0,0,0-1.91-.08l-12.12-.53Z" transform="translate(-262.2 -252.53)"/><g class="cls-26"><polygon points="138.88 152.44 139.08 153.6 142.32 153.7 142.12 152.58 138.88 152.44"/></g><path class="cls-7" d="M386.7,402.4s-1.85-2.32-4.24-2C382.46,400.39,384.13,400.25,386.7,402.4Z" transform="translate(-262.2 -252.53)"/><path class="cls-27" d="M386.7,402.4s-1.85-2.32-4.24-2C382.46,400.39,384.13,400.25,386.7,402.4Z" transform="translate(-262.2 -252.53)"/><path class="cls-7" d="M391.3,403.62s2.67-1.31,4.69,0C396,403.62,394.55,402.78,391.3,403.62Z" transform="translate(-262.2 -252.53)"/><path class="cls-27" d="M391.3,403.62s2.67-1.31,4.69,0C396,403.62,394.55,402.78,391.3,403.62Z" transform="translate(-262.2 -252.53)"/><path class="cls-7" d="M388.87,402.75s2.18-2,4.49-1.36C393.36,401.39,391.73,401,388.87,402.75Z" transform="translate(-262.2 -252.53)"/><path class="cls-27" d="M388.87,402.75s2.18-2,4.49-1.36C393.36,401.39,391.73,401,388.87,402.75Z" transform="translate(-262.2 -252.53)"/><path class="cls-7" d="M383.6,402.23s-2.54-1.54-4.67-.43C378.93,401.8,380.44,401.1,383.6,402.23Z" transform="translate(-262.2 -252.53)"/><path class="cls-27" d="M383.6,402.23s-2.54-1.54-4.67-.43C378.93,401.8,380.44,401.1,383.6,402.23Z" transform="translate(-262.2 -252.53)"/></g><g id="Globe"><path class="cls-7" d="M416.39,401.87a12.9,12.9,0,0,1-2.47.25,12.68,12.68,0,0,1-9-3.71l-.37.37a13.2,13.2,0,0,0,9.41,3.87,13.43,13.43,0,0,0,2.6-.26.6.6,0,0,1-.15-.41A.75.75,0,0,1,416.39,401.87Z" transform="translate(-262.2 -252.53)"/><rect class="cls-7" x="415.42" y="401.48" width="2.52" height="7.3" transform="translate(-263.33 -251.37) rotate(-0.16)"/><g class="cls-14"><rect x="415.42" y="401.48" width="2.52" height="7.3" transform="translate(-263.33 -251.37) rotate(-0.16)"/></g><path class="cls-7" d="M409,411.79c0-1.9,3.43-3.46,7.66-3.47s7.68,1.52,7.68,3.43h0a28.75,28.75,0,0,1-15.16.09Z" transform="translate(-262.2 -252.53)"/><rect class="cls-7" x="401.72" y="389.73" width="25.99" height="0.52" transform="translate(-416.38 158.53) rotate(-45.36)"/><path class="cls-7" d="M427.18,389.32a13.2,13.2,0,0,0-3.92-9.39l-.37.37a12.77,12.77,0,0,1-6.5,21.57.75.75,0,0,0,0,.1.6.6,0,0,0,.15.41,13.3,13.3,0,0,0,10.65-13.07Z" transform="translate(-262.2 -252.53)"/><circle class="cls-7" cx="414.81" cy="390" r="9.46" transform="translate(-416.08 164.98) rotate(-46)"/><path class="cls-7" d="M418.39,393.45l-.31-.3c2.18-2.26,3.95-6.38,3.11-9.89l.41-.1C422.48,386.82,420.65,391.11,418.39,393.45Z" transform="translate(-262.2 -252.53)"/><path class="cls-7" d="M408.42,396.82l.08-.42c3.54.71,7.6-1.2,9.78-3.46l.31.3C416.33,395.58,412.11,397.56,408.42,396.82Z" transform="translate(-262.2 -252.53)"/><path class="cls-7" d="M411.58,386.88l-.31-.3c2.26-2.34,6.48-4.32,10.17-3.58l-.08.42C417.82,382.71,413.76,384.62,411.58,386.88Z" transform="translate(-262.2 -252.53)"/><path class="cls-7" d="M408.26,396.66c-.87-3.66,1-7.95,3.22-10.29l.31.3c-2.18,2.26-3.95,6.38-3.11,9.89Z" transform="translate(-262.2 -252.53)"/><rect class="cls-7" x="405.37" y="389.8" width="18.92" height="0.43" transform="translate(-416.08 165.01) rotate(-46)"/><rect class="cls-7" x="418.12" y="378.38" width="0.43" height="16.02" transform="translate(-412.41 166.4) rotate(-46)"/><rect class="cls-7" x="414.51" y="380.67" width="0.43" height="18.91" transform="translate(-416.2 164.95) rotate(-46)"/><rect class="cls-7" x="410.9" y="386.07" width="0.43" height="15.59" transform="translate(-419.99 163.5) rotate(-46)"/><g class="cls-14"><path d="M418.39,393.45l-.31-.3c2.18-2.26,3.95-6.38,3.11-9.89l.41-.1C422.48,386.82,420.65,391.11,418.39,393.45Z" transform="translate(-262.2 -252.53)"/><path d="M408.42,396.82l.08-.42c3.54.71,7.6-1.2,9.78-3.46l.31.3C416.33,395.58,412.11,397.56,408.42,396.82Z" transform="translate(-262.2 -252.53)"/><path d="M411.58,386.88l-.31-.3c2.26-2.34,6.48-4.32,10.17-3.58l-.08.42C417.82,382.71,413.76,384.62,411.58,386.88Z" transform="translate(-262.2 -252.53)"/><path d="M408.26,396.66c-.87-3.66,1-7.95,3.22-10.29l.31.3c-2.18,2.26-3.95,6.38-3.11,9.89Z" transform="translate(-262.2 -252.53)"/><rect x="405.37" y="389.8" width="18.92" height="0.43" transform="translate(-416.08 165.01) rotate(-46)"/><rect x="418.12" y="378.38" width="0.43" height="16.02" transform="translate(-412.41 166.4) rotate(-46)"/><rect x="414.51" y="380.67" width="0.43" height="18.91" transform="translate(-416.2 164.95) rotate(-46)"/><rect x="410.9" y="386.07" width="0.43" height="15.59" transform="translate(-419.99 163.5) rotate(-46)"/></g></g></svg>