<svg xmlns="http://www.w3.org/2000/svg" viewBox="0 0 382.9 288.54"><defs><style>.cls-1{fill:#ebebeb;}.cls-2{fill:#e0e0e0;}.cls-3{fill:#e6e6e6;}.cls-4{fill:#f5f5f5;}.cls-5{fill:#f0f0f0;}.cls-6{fill:#fafafa;}.cls-16,.cls-7{fill:#407bff;}.cls-8{opacity:0.7;}.cls-12,.cls-13,.cls-15,.cls-22,.cls-24,.cls-25,.cls-27,.cls-9{fill:#fff;}.cls-10,.cls-13{opacity:0.9;}.cls-11,.cls-12{opacity:0.1;}.cls-14,.cls-19{opacity:0.2;}.cls-15,.cls-23,.cls-25{opacity:0.6;}.cls-15,.cls-16,.cls-19,.cls-23{isolation:isolate;}.cls-17{fill:#ffc3bd;}.cls-18{opacity:0.5;}.cls-20{fill:#263238;}.cls-21{fill:#ed847e;}.cls-22{opacity:0.8;}.cls-24,.cls-26{opacity:0.3;}.cls-27{opacity:0.4;}</style></defs><title>freepik-4195197</title><g id="Background_Complete" data-name="Background Complete"><rect class="cls-1" x="319.17" y="263.09" width="25.36" height="0.19"/><rect class="cls-1" x="246.99" y="265.16" width="6.66" height="0.19"/><rect class="cls-1" x="303.71" y="255.97" width="14.7" height="0.19"/><rect class="cls-1" x="40.17" y="257.26" width="33.08" height="0.19"/><rect class="cls-1" x="80.07" y="257.26" width="4.85" height="0.19"/><rect class="cls-1" x="100.68" y="260.49" width="71.74" height="0.19"/><path class="cls-1" d="M298.6,359.8H150.73a4.38,4.38,0,0,1-4.37-4.37V147.56a4.38,4.38,0,0,1,4.37-4.37H298.6a4.38,4.38,0,0,1,4.37,4.37V355.43A4.38,4.38,0,0,1,298.6,359.8ZM150.73,143.38a4.18,4.18,0,0,0-4.18,4.18V355.43a4.18,4.18,0,0,0,4.18,4.18H298.6a4.18,4.18,0,0,0,4.18-4.18V147.56a4.18,4.18,0,0,0-4.18-4.18Z" transform="translate(-117.1 -143.19)"/><path class="cls-1" d="M464.25,359.8H316.37a4.38,4.38,0,0,1-4.37-4.37V147.56a4.38,4.38,0,0,1,4.37-4.37H464.25a4.38,4.38,0,0,1,4.37,4.37V355.43A4.38,4.38,0,0,1,464.25,359.8ZM316.37,143.38a4.18,4.18,0,0,0-4.18,4.18V355.43a4.18,4.18,0,0,0,4.18,4.18H464.25a4.18,4.18,0,0,0,4.18-4.18V147.56a4.18,4.18,0,0,0-4.18-4.18Z" transform="translate(-117.1 -143.19)"/><rect class="cls-1" y="250.76" width="382.9" height="0.19"/><rect class="cls-2" x="234.61" y="30.53" width="98.71" height="218.27"/><path class="cls-3" d="M450.41,171.81v222.1H468.6V171.81Z" transform="translate(-117.1 -143.19)"/><path class="cls-3" d="M334.39,171.81v222.1h18.19V171.81Z" transform="translate(-117.1 -143.19)"/><path class="cls-4" d="M331.3,171.81v222.1H452.6V171.81Zm116.93,3.83v39.82H335.67V175.64ZM335.67,302.77V262.95H448.23v39.82Zm112.57,3.83v39.82H335.67V306.6ZM335.67,259.12V219.29H448.23v39.82Zm0,131V350.25H448.23v39.82Z" transform="translate(-117.1 -143.19)"/><rect class="cls-3" x="408.91" y="184.93" width="4.2" height="30.9" transform="translate(704.91 257.56) rotate(180)"/><rect class="cls-2" x="413.1" y="184.93" width="4.2" height="30.9" transform="translate(713.3 257.56) rotate(180)"/><rect class="cls-3" x="400.52" y="187.1" width="8.39" height="28.73" transform="translate(692.33 259.74) rotate(180)"/><rect class="cls-5" x="390.9" y="184.93" width="5.42" height="30.9" transform="translate(670.12 257.56) rotate(180)"/><rect class="cls-1" x="396.32" y="184.93" width="4.2" height="30.9" transform="translate(679.74 257.56) rotate(180)"/><rect class="cls-3" x="359.08" y="184.93" width="5.42" height="30.9" transform="translate(606.48 257.56) rotate(180)"/><rect class="cls-1" x="364.5" y="184.93" width="4.2" height="30.9" transform="translate(616.1 257.56) rotate(180)"/><rect class="cls-3" x="377.09" y="184.93" width="5.42" height="30.9" transform="translate(642.5 257.56) rotate(180)"/><rect class="cls-2" x="382.51" y="184.93" width="4.2" height="30.9" transform="translate(652.11 257.56) rotate(180)"/><rect class="cls-1" x="350.69" y="185.66" width="8.39" height="30.17" transform="translate(592.66 258.3) rotate(180)"/><rect class="cls-2" x="346.49" y="185.66" width="4.2" height="30.17" transform="translate(580.08 258.3) rotate(180)"/><rect class="cls-2" x="371.49" y="185.66" width="5.59" height="30.17" transform="translate(631.48 258.3) rotate(180)"/><rect class="cls-5" x="368.69" y="185.66" width="2.8" height="30.17" transform="translate(623.09 258.3) rotate(180)"/><rect class="cls-4" x="382.51" y="187.1" width="8.39" height="28.73" transform="translate(656.31 259.74) rotate(180)"/><rect class="cls-1" x="429.89" y="184.93" width="5.42" height="30.9" transform="translate(748.09 257.56) rotate(180)"/><rect class="cls-3" x="435.31" y="184.93" width="4.2" height="30.9" transform="translate(757.71 257.56) rotate(180)"/><rect class="cls-2" x="421.49" y="185.66" width="8.39" height="30.17" transform="translate(734.28 258.3) rotate(180)"/><rect class="cls-1" x="417.3" y="185.66" width="4.2" height="30.17" transform="translate(721.69 258.3) rotate(180)"/><rect class="cls-1" x="442.3" y="185.66" width="5.59" height="30.17" transform="translate(773.1 258.3) rotate(180)"/><rect class="cls-6" x="439.5" y="185.66" width="2.8" height="30.17" transform="translate(764.7 258.3) rotate(180)"/><rect class="cls-3" x="264.18" y="85.01" width="4.2" height="30.9"/><rect class="cls-2" x="259.99" y="85.01" width="4.2" height="30.9"/><rect class="cls-3" x="268.38" y="87.18" width="8.39" height="28.73"/><rect class="cls-5" x="280.96" y="85.01" width="5.42" height="30.9"/><rect class="cls-1" x="276.77" y="85.01" width="4.2" height="30.9"/><rect class="cls-3" x="312.79" y="85.01" width="5.42" height="30.9"/><rect class="cls-1" x="308.59" y="85.01" width="4.2" height="30.9"/><rect class="cls-3" x="294.78" y="85.01" width="5.42" height="30.9"/><rect class="cls-2" x="290.58" y="85.01" width="4.2" height="30.9"/><rect class="cls-1" x="318.21" y="85.74" width="8.39" height="30.17"/><rect class="cls-2" x="326.6" y="85.74" width="4.2" height="30.17"/><rect class="cls-2" x="300.2" y="85.74" width="5.59" height="30.17"/><rect class="cls-5" x="305.79" y="85.74" width="2.8" height="30.17"/><rect class="cls-4" x="286.39" y="87.18" width="8.39" height="28.73"/><rect class="cls-1" x="241.98" y="85.01" width="5.42" height="30.9"/><rect class="cls-3" x="237.78" y="85.01" width="4.2" height="30.9"/><rect class="cls-2" x="247.4" y="85.74" width="8.39" height="30.17"/><rect class="cls-1" x="255.79" y="85.74" width="4.2" height="30.17"/><rect class="cls-1" x="229.39" y="85.74" width="5.59" height="30.17"/><rect class="cls-6" x="234.99" y="85.74" width="2.8" height="30.17"/><rect class="cls-3" x="264.18" y="129.04" width="4.2" height="30.9"/><rect class="cls-2" x="259.99" y="129.04" width="4.2" height="30.9"/><rect class="cls-3" x="268.38" y="131.21" width="8.39" height="28.73"/><rect class="cls-5" x="280.96" y="129.04" width="5.42" height="30.9"/><rect class="cls-1" x="276.77" y="129.04" width="4.2" height="30.9"/><rect class="cls-3" x="312.79" y="129.04" width="5.42" height="30.9"/><rect class="cls-1" x="308.59" y="129.04" width="4.2" height="30.9"/><rect class="cls-3" x="294.78" y="129.04" width="5.42" height="30.9"/><rect class="cls-2" x="290.58" y="129.04" width="4.2" height="30.9"/><rect class="cls-1" x="318.21" y="129.77" width="8.39" height="30.17"/><rect class="cls-2" x="326.6" y="129.77" width="4.2" height="30.17"/><rect class="cls-2" x="300.2" y="129.77" width="5.59" height="30.17"/><rect class="cls-5" x="305.79" y="129.77" width="2.8" height="30.17"/><rect class="cls-4" x="286.39" y="131.21" width="8.39" height="28.73"/><rect class="cls-1" x="241.98" y="129.04" width="5.42" height="30.9"/><rect class="cls-3" x="237.78" y="129.04" width="4.2" height="30.9"/><rect class="cls-2" x="247.4" y="129.77" width="8.39" height="30.17"/><rect class="cls-1" x="255.79" y="129.77" width="4.2" height="30.17"/><rect class="cls-1" x="229.39" y="129.77" width="5.59" height="30.17"/><rect class="cls-6" x="234.99" y="129.77" width="2.8" height="30.17"/><rect class="cls-3" x="408.91" y="316.27" width="4.2" height="30.9" transform="translate(704.91 520.25) rotate(180)"/><rect class="cls-2" x="413.1" y="316.27" width="4.2" height="30.9" transform="translate(713.3 520.25) rotate(180)"/><rect class="cls-3" x="400.52" y="316.27" width="8.39" height="28.73" transform="translate(692.33 518.08) rotate(180)"/><rect class="cls-5" x="390.9" y="316.27" width="5.42" height="30.9" transform="translate(670.12 520.25) rotate(180)"/><rect class="cls-1" x="396.32" y="316.27" width="4.2" height="30.9" transform="translate(679.74 520.25) rotate(180)"/><rect class="cls-3" x="359.08" y="316.27" width="5.42" height="30.9" transform="translate(606.48 520.25) rotate(180)"/><rect class="cls-1" x="364.5" y="316.27" width="4.2" height="30.9" transform="translate(616.1 520.25) rotate(180)"/><rect class="cls-3" x="377.09" y="316.27" width="5.42" height="30.9" transform="translate(642.5 520.25) rotate(180)"/><rect class="cls-2" x="382.51" y="316.27" width="4.2" height="30.9" transform="translate(652.11 520.25) rotate(180)"/><rect class="cls-1" x="350.69" y="316.27" width="8.39" height="30.17" transform="translate(592.66 519.52) rotate(180)"/><rect class="cls-2" x="346.49" y="316.27" width="4.2" height="30.17" transform="translate(580.08 519.52) rotate(180)"/><rect class="cls-2" x="371.49" y="316.27" width="5.59" height="30.17" transform="translate(631.48 519.52) rotate(180)"/><rect class="cls-5" x="368.69" y="316.27" width="2.8" height="30.17" transform="translate(623.09 519.52) rotate(180)"/><rect class="cls-4" x="382.51" y="316.27" width="8.39" height="28.73" transform="translate(656.31 518.08) rotate(180)"/><rect class="cls-1" x="429.89" y="316.27" width="5.42" height="30.9" transform="translate(748.09 520.25) rotate(180)"/><rect class="cls-3" x="435.31" y="316.27" width="4.2" height="30.9" transform="translate(757.71 520.25) rotate(180)"/><rect class="cls-2" x="421.49" y="316.27" width="8.39" height="30.17" transform="translate(734.28 519.52) rotate(180)"/><rect class="cls-1" x="417.3" y="316.27" width="4.2" height="30.17" transform="translate(721.69 519.52) rotate(180)"/><rect class="cls-1" x="442.3" y="316.27" width="5.59" height="30.17" transform="translate(773.1 519.52) rotate(180)"/><rect class="cls-6" x="439.5" y="316.27" width="2.8" height="30.17" transform="translate(764.7 519.52) rotate(180)"/><rect class="cls-3" x="264.18" y="217.12" width="4.2" height="30.9"/><rect class="cls-2" x="259.99" y="217.12" width="4.2" height="30.9"/><rect class="cls-3" x="268.38" y="217.12" width="8.39" height="28.73"/><rect class="cls-5" x="280.96" y="217.12" width="5.42" height="30.9"/><rect class="cls-1" x="276.77" y="217.12" width="4.2" height="30.9"/><rect class="cls-3" x="312.79" y="217.12" width="5.42" height="30.9"/><rect class="cls-1" x="308.59" y="217.12" width="4.2" height="30.9"/><rect class="cls-3" x="294.78" y="217.12" width="5.42" height="30.9"/><rect class="cls-2" x="290.58" y="217.12" width="4.2" height="30.9"/><rect class="cls-1" x="318.21" y="217.12" width="8.39" height="30.17"/><rect class="cls-2" x="326.6" y="217.12" width="4.2" height="30.17"/><rect class="cls-2" x="300.2" y="217.12" width="5.59" height="30.17"/><rect class="cls-5" x="305.79" y="217.12" width="2.8" height="30.17"/><rect class="cls-4" x="286.39" y="217.12" width="8.39" height="28.73"/><rect class="cls-1" x="241.98" y="217.12" width="5.42" height="30.9"/><rect class="cls-3" x="237.78" y="217.12" width="4.2" height="30.9"/><rect class="cls-2" x="247.4" y="217.12" width="8.39" height="30.17"/><rect class="cls-1" x="255.79" y="217.12" width="4.2" height="30.17"/><rect class="cls-1" x="229.39" y="217.12" width="5.59" height="30.17"/><rect class="cls-6" x="234.99" y="217.12" width="2.8" height="30.17"/><path class="cls-2" d="M230.53,178.17a115.43,115.43,0,0,1,1.14,18.24,115.43,115.43,0,0,1-1.14,18.24,3,3,0,0,1,1,.67,3,3,0,0,1-4.29,4.29c-.25-.25-.28-.7-.58-.85-2.54-1.25-7.38,1-12.6,1s-10.06-2.23-12.6-1c-1,.5-1.52,1.74-2.73,1.74s-1.71-1.23-2.73-1.74c-2.54-1.25-7.38,1-12.6,1s-10.06-2.23-12.6-1c-.3.15-.33.6-.58.85a3,3,0,0,1-4.29-4.29c.3-.3.82-.32,1-.67,1.78-3.24-1.14-10.44-1.14-18.24s2.92-15,1.14-18.24c-.19-.35-.71-.37-1-.67a3,3,0,0,1,4.29-4.29c.25.25.28.7.58.85,2.54,1.25,7.38-1,12.6-1s10.06,2.23,12.6,1c1-.5,1.52-1.74,2.73-1.74s1.71,1.23,2.73,1.74c2.54,1.25,7.38-1,12.6-1s10.06,2.23,12.6,1c.3-.15.33-.6.58-.85a3,3,0,0,1,4.29,4.29A3,3,0,0,1,230.53,178.17Z" transform="translate(-117.1 -143.19)"/><path class="cls-6" d="M229.15,176.79A115.43,115.43,0,0,1,230.29,195a115.43,115.43,0,0,1-1.14,18.24,3,3,0,0,1,1,.67,3,3,0,1,1-4.29,4.29c-.25-.25-.28-.7-.58-.85-2.54-1.25-7.38,1-12.6,1s-10.06-2.23-12.6-1c-1,.5-1.52,1.74-2.73,1.74s-1.71-1.23-2.73-1.74c-2.54-1.25-7.38,1-12.6,1s-10.06-2.23-12.6-1c-.3.15-.33.6-.58.85a3,3,0,0,1-4.29-4.29c.3-.3.82-.32,1-.67,1.78-3.25-1.14-10.44-1.14-18.24s2.92-15,1.14-18.24c-.19-.35-.71-.37-1-.67a3,3,0,0,1,4.29-4.29c.25.25.28.7.58.85,2.54,1.25,7.38-1,12.6-1s10.06,2.23,12.6,1c1-.5,1.52-1.74,2.73-1.74s1.71,1.23,2.73,1.74c2.54,1.25,7.38-1,12.6-1s10.06,2.23,12.6,1c.3-.15.33-.6.58-.85a3,3,0,1,1,4.29,4.29A3,3,0,0,1,229.15,176.79Z" transform="translate(-117.1 -143.19)"/><rect class="cls-1" x="179.11" y="167.82" width="36.51" height="54.42" transform="translate(275.3 -145.52) rotate(90)"/><rect class="cls-4" x="181.63" y="171.58" width="31.47" height="46.91" transform="translate(275.3 -145.52) rotate(90)"/><circle class="cls-2" cx="72.45" cy="53.22" r="6.31"/><polygon class="cls-1" points="97 46.91 85.95 56.14 97 59.53 97 46.91"/><path class="cls-1" d="M181.7,185.65c7.2-4.42,16.13-1.22,22,3.8.9.77-.41,2.07-1.3,1.3-5.24-4.48-13.32-7.47-19.77-3.51-1,.62-1.94-1-.93-1.59Z" transform="translate(-117.1 -143.19)"/><polygon class="cls-1" points="59.8 61.05 63.25 57.67 66.14 61.05 62.97 64.12 59.8 61.05"/><path class="cls-6" d="M174.86,270.52s3.64,15.8,2.22,31.28a195.13,195.13,0,0,1-4,24.11s16.52-1.91,36-2.56a224.91,224.91,0,0,1,47.67,3.54L270,328.21s-8.18-35.38-1.41-56.9Z" transform="translate(-117.1 -143.19)"/><polygon class="cls-1" points="154.99 133.24 52.68 132.9 52.68 124.36 154.6 122.74 154.99 133.24"/><path class="cls-4" d="M192.35,267.4l-.55-.49,28.66-32.08a2.57,2.57,0,0,1,3.79,0L253,265.68l-.54.5-28.79-30.9a1.85,1.85,0,0,0-1.35-.58,1.83,1.83,0,0,0-1.34.61Z" transform="translate(-117.1 -143.19)"/><ellipse class="cls-2" cx="105.32" cy="92.05" rx="0.9" ry="0.89"/><path class="cls-1" d="M236.48,287.64a12.32,12.32,0,0,0-3.46,3.62l3,2.66a8.07,8.07,0,0,1,.84-2.18,2.72,2.72,0,0,1,1.85-1.32,2.86,2.86,0,0,1,1.32.18,9.81,9.81,0,0,1,3.27,2.31c1.21-.15,1.77-1.77,1.26-2.87a4.32,4.32,0,0,0-2.88-2,39,39,0,0,1,3.57-3.64c-.57-1.31-2.39-1.65-3.7-1.07a8.2,8.2,0,0,0-3,2.93c.4-.55-2.54-3.8-3.14-4-1.65-.55-2.86,1.15-3.69,2.35A16.23,16.23,0,0,1,236.48,287.64Z" transform="translate(-117.1 -143.19)"/><path class="cls-2" d="M190,316.54l-.36-.09Zm-.34-.09-.38-.09,0-.08Z" transform="translate(-117.1 -143.19)"/><path class="cls-2" d="M190.56,315.15l-.68-.3c.41-.95.87-1.91,1.36-2.86h0c.23-.45.48-.91.75-1.4l.65.36c-.26.48-.51.94-.74,1.38l-.32-.17.32.17C191.42,313.27,191,314.22,190.56,315.15Z" transform="translate(-117.1 -143.19)"/><path class="cls-2" d="M194.25,308.27l-.62-.4h0Zm.87-1.29-.6-.43c.63-.9,1.29-1.74,1.95-2.52l.28.24-.28-.24c.34-.4.7-.8,1.07-1.18l.53.51c-.36.37-.71.76-1,1.15h0C196.39,305.28,195.75,306.11,195.13,307Zm35.82-5.33h-.25l-1.8-.06,0-.74,1.78.06h.24c.35,0,.71,0,1.09,0h0c.5,0,1-.11,1.53-.19l.13.73c-.53.09-1.07.16-1.6.2l0-.38,0,.38C231.69,301.64,231.31,301.65,230.94,301.65Zm-3.65-.15,0-.74h.07Zm-27-.21-.47-.57.06,0Zm23.83-.07-1.57-.19,0-.36,0,.36c-1-.14-2.1-.31-3.13-.5l.13-.73c1,.19,2.06.35,3.09.49h0l1.55.19Zm12.59-.69-.27-.69.07,0Zm-35.15-.16-.41-.62a15.17,15.17,0,0,1,2.85-1.49h0a13,13,0,0,1,1.54-.49l.18.72a12.11,12.11,0,0,0-1.45.46h0A14.46,14.46,0,0,0,201.61,300.37Zm16.3-.15.13-.73h.06Zm20.34-.44-.39-.63a5.39,5.39,0,0,0,2.05-2.06h0a3.79,3.79,0,0,0,.4-1.36l.74.07a4.51,4.51,0,0,1-.48,1.63l-.15-.08.15.08A6.12,6.12,0,0,1,238.24,299.79Zm-23.41-.28-1.53-.42.1-.36-.1.36-1.34-.4a12.6,12.6,0,0,0-1.66-.39l.12-.73a13.22,13.22,0,0,1,1.76.42l1.32.39,1.51.41Zm-6.07-1.36,0-.74h.06Z" transform="translate(-117.1 -143.19)"/><polygon class="cls-2" points="122.62 149.68 122.59 149.61 123.3 149.39 122.62 149.68"/></g><g id="Shadow"><ellipse id="_Path_" data-name="&lt;Path&gt;" class="cls-4" cx="191.45" cy="276.26" rx="148.48" ry="8.67"/></g><g id="Knowledges"><path class="cls-7" d="M356.64,242.48c-3.18,3.62-7.37,5.94-11.09,8.87s-7.18,6.95-7.73,11.92c-.59,5.3,2.24,10.33,2.74,15.64.92,9.8-7,18.92-15.86,20.4s-18-3.44-24-10.79a27.11,27.11,0,0,1-6.29-13.71c-1-8.79,3.58-17.44,2.86-26.27-.82-10-8.16-17.75-15.66-23.5s-15.89-10.79-20.88-19.19c-6-10.11-5.75-23.8-.7-34.52s14.38-18.56,24.67-22.89,21.51-5.4,32.52-5c6.73.26,13.54,1.08,19.79,3.82s11.92,7.62,14.77,14.29c3.39,7.9,2.41,16.87.43,25.53a15.14,15.14,0,0,0,2,11.56,58.2,58.2,0,0,1,6.41,12.84C364.15,221.82,363.61,234.56,356.64,242.48Z" transform="translate(-117.1 -143.19)"/><g class="cls-8"><path class="cls-9" d="M356.64,242.48c-3.18,3.62-7.37,5.94-11.09,8.87s-7.18,6.95-7.73,11.92c-.59,5.3,2.24,10.33,2.74,15.64.92,9.8-7,18.92-15.86,20.4s-18-3.44-24-10.79a27.11,27.11,0,0,1-6.29-13.71c-1-8.79,3.58-17.44,2.86-26.27-.82-10-8.16-17.75-15.66-23.5s-15.89-10.79-20.88-19.19c-6-10.11-5.75-23.8-.7-34.52s14.38-18.56,24.67-22.89,21.51-5.4,32.52-5c6.73.26,13.54,1.08,19.79,3.82s11.92,7.62,14.77,14.29c3.39,7.9,2.41,16.87.43,25.53a15.14,15.14,0,0,0,2,11.56,58.2,58.2,0,0,1,6.41,12.84C364.15,221.82,363.61,234.56,356.64,242.48Z" transform="translate(-117.1 -143.19)"/></g><circle class="cls-7" cx="163.18" cy="38.48" r="20.8"/><g class="cls-10"><path class="cls-9" d="M283.06,162.37l2.62,1.57v2.5s-2-.27-2.62-1.36c0,0,.54-.23-1-1.15S280.89,161.91,283.06,162.37Z" transform="translate(-117.1 -143.19)"/><path class="cls-9" d="M281.61,182.27l-1.51.72s-.45.87-.36.84-.33,1.81-.24,1.84-.87.81-.87.81l-.45,1.12v1.3l2.18,3,1.59.9-1.39,7.6.57.21,7.23-5.31.48-1.3,2.14-.84,1.15-3,1.3-1.51s.12-1.51,0-1.48-.69.24-.69.24l-1.09-.81a14.63,14.63,0,0,0-2.41-.3c-.12.12-.48-1.4-.48-1.4l-2.11-.59-2.2-1.45-1.6.3Z" transform="translate(-117.1 -143.19)"/><path class="cls-9" d="M277.51,178.54h1.16l1.66.87,3.09.78.15.25-3.07,0,.57-.35-.45-.29-1.24,0,.15-.15-1.28-.65s-.8-.19-.83-.1l-.33,0Z" transform="translate(-117.1 -143.19)"/><polygon class="cls-9" points="162.81 37.24 162.53 36.97 162.06 36.99 162.25 37.24 162.81 37.24"/><path class="cls-9" d="M287.22,162.37h-.36l2.58,1.54.41.44,2.53,1.46.5.63.41,1.4,1.36,1.09-.63.45,1.45,1.81h.5l.18-.72L295,168.21l1.5.84A17.49,17.49,0,0,0,287.22,162.37Z" transform="translate(-117.1 -143.19)"/><path class="cls-9" d="M297.82,170.7h-.39l-.65-.86-.7,1.9s.43,2.22.46,2.35-.19.45-.19.45l.19,2.44.5.86.38,2.08,1.7,2.35,1.38-2,.23.48A19.36,19.36,0,0,0,297.82,170.7Z" transform="translate(-117.1 -143.19)"/><polygon class="cls-9" points="170.57 21.16 170.12 21.16 170.12 21.72 170.57 21.99 170.98 21.99 170.98 21.58 170.57 21.16"/><polygon class="cls-9" points="173.33 22.26 174.01 22.98 174.19 23.59 174.87 24.25 175.14 23.84 175.64 24.25 175.64 23.8 175.28 23.25 173.33 22.26"/><path class="cls-9" d="M285.68,170.25a37.24,37.24,0,0,0-4.34,1.9,2.46,2.46,0,0,0-1,2.27l-1.91,1.08.45,2.08-.45.27-.72-1.72a17.59,17.59,0,0,0-3.59-.18c-1.06.18-1.29,2.26-1.29,2.26l.63,1.72,1.45.09.18-1,1.54.09-1,1.9,1.81.27.18,1.33,1.81,1.38s.36.45,0,.63-9-5-9.77-6.24-1.85-4.75-1-7.19c.66-2,1.89-3.82,2.28-5h0v0h0l0-.1a.73.73,0,0,0-.56-.85c-.32-.09-.9.27-.9.27h-1.15l1.2-.68.5-.53.32-.28,1.18-.5,0-.36a6.53,6.53,0,0,1,2.22-.84l-.86.66h.9l.18,1h1.81s-.45-.12.63-.72,4.61-.85,4.61-.85l-1.09,1.57,2.35,1.33-.27,1-1.62-.45v-.54l-1-.61-.09,1.06-.36.45-.45-.36-1.27,1.27,2.27,2.21.36-2.84,3.26.72Z" transform="translate(-117.1 -143.19)"/></g><path class="cls-7" d="M350.87,215.9c-1.1-.67-2.56-1.1-3.65-.4s-1.31,2.38-1.33,3.77a4.27,4.27,0,0,0-5.61,1.86,5.77,5.77,0,0,0,.86,6.17,9.1,9.1,0,0,0,5.72,3c2.14.33,3.72-.12,4.93-1.92.87-1.3,2.06-1.91,3-3.07C357,222.41,353.31,217.39,350.87,215.9Z" transform="translate(-117.1 -143.19)"/><path class="cls-7" d="M343.37,216.34a1.43,1.43,0,0,0,.39-.8c.73,1.44,1.65,2.74,2.49,4.1C346,219.39,343.17,216.55,343.37,216.34Z" transform="translate(-117.1 -143.19)"/><path class="cls-7" d="M344.4,215.54a9.83,9.83,0,0,1,.44-2.14,5.18,5.18,0,0,1,1.2,2,2.64,2.64,0,0,1-.44,2.19C344.73,218.74,344.37,216.06,344.4,215.54Z" transform="translate(-117.1 -143.19)"/><path class="cls-9" d="M342,221.47a.63.63,0,1,0,.71.86.67.67,0,0,0-.64-.89Z" transform="translate(-117.1 -143.19)"/><path class="cls-9" d="M346.9,228.81a.47.47,0,0,0,.31,0,.35.35,0,0,0,0-.52,1.2,1.2,0,0,0-.56-.21,4.08,4.08,0,0,1-2.9-2.46,6.24,6.24,0,0,0-.38-.93c-.4-.68-1.36-.75-1.56.08-.15.64.63,1.54,1,2A6.18,6.18,0,0,0,346.9,228.81Z" transform="translate(-117.1 -143.19)"/><path class="cls-7" d="M328.35,159.86a9,9,0,1,0,9-9A9,9,0,0,0,328.35,159.86Zm7.46-6.63a1.25,1.25,0,0,1-.91,0c.14.62-.47,1.18-1.05,1.49-.75.41-1.6.58-1.76-.09-.1-.4.21-1,1-1.5a1.89,1.89,0,0,1,1.49-.33c-.06-.37.27-.79.79-1s1.11,0,1.24.37S336.36,153,335.8,153.23Zm4.35,3.08a1.25,1.25,0,1,1-.39-1.72A1.24,1.24,0,0,1,340.15,156.31ZM336,166.52a1,1,0,1,1,1,1A1,1,0,0,1,336,166.52Zm-.25-3.28a1.1,1.1,0,0,1,1.1-1.1h0a4,4,0,0,1,5.23-4.57,1.62,1.62,0,1,1,2.35,2,4,4,0,0,1-2.49,5.72.83.83,0,1,1-1.49.14,4,4,0,0,1-2.79-1.52,1.1,1.1,0,0,1-1.95-.69Zm-2.41-6.38a.82.82,0,0,1,1.27-.75,1.25,1.25,0,1,1,.33.91.82.82,0,0,1-1.6-.16Zm-1.18,7.52a.62.62,0,1,1,.62.62A.62.62,0,0,1,332.12,164.37Zm-1.21-7a.82.82,0,1,1,.89.75A.82.82,0,0,1,330.91,157.37Z" transform="translate(-117.1 -143.19)"/><path class="cls-7" d="M328.35,159.86a9,9,0,1,0,9-9A9,9,0,0,0,328.35,159.86Zm7.46-6.63a1.25,1.25,0,0,1-.91,0c.14.62-.47,1.18-1.05,1.49-.75.41-1.6.58-1.76-.09-.1-.4.21-1,1-1.5a1.89,1.89,0,0,1,1.49-.33c-.06-.37.27-.79.79-1s1.11,0,1.24.37S336.36,153,335.8,153.23Zm4.35,3.08a1.25,1.25,0,1,1-.39-1.72A1.24,1.24,0,0,1,340.15,156.31ZM336,166.52a1,1,0,1,1,1,1A1,1,0,0,1,336,166.52Zm-.25-3.28a1.1,1.1,0,0,1,1.1-1.1h0a4,4,0,0,1,5.23-4.57,1.62,1.62,0,1,1,2.35,2,4,4,0,0,1-2.49,5.72.83.83,0,1,1-1.49.14,4,4,0,0,1-2.79-1.52,1.1,1.1,0,0,1-1.95-.69Zm-2.41-6.38a.82.82,0,0,1,1.27-.75,1.25,1.25,0,1,1,.33.91.82.82,0,0,1-1.6-.16Zm-1.18,7.52a.62.62,0,1,1,.62.62A.62.62,0,0,1,332.12,164.37Zm-1.21-7a.82.82,0,1,1,.89.75A.82.82,0,0,1,330.91,157.37Z" transform="translate(-117.1 -143.19)"/><circle class="cls-3" cx="215.65" cy="21.18" r="0.62"/><path class="cls-7" d="M332,164.37a.71.71,0,1,1,.71.71A.71.71,0,0,1,332,164.37Z" transform="translate(-117.1 -143.19)"/><path class="cls-7" d="M335.87,166.52a1,1,0,1,1,1,1A1,1,0,0,1,335.87,166.52Z" transform="translate(-117.1 -143.19)"/><path class="cls-7" d="M338.39,156.77a1.33,1.33,0,1,1,1,.17,1.35,1.35,0,0,1-.3,0A1.33,1.33,0,0,1,338.39,156.77Z" transform="translate(-117.1 -143.19)"/><path class="cls-7" d="M333.54,157.48a.91.91,0,0,1,.51-1.6.93.93,0,0,1,.46.08,1.34,1.34,0,1,1,1.44,1.53,1.32,1.32,0,0,1-1-.32.92.92,0,0,1-.75.52h-.08A.9.9,0,0,1,333.54,157.48Z" transform="translate(-117.1 -143.19)"/><path class="cls-7" d="M330.82,157.38h0a.91.91,0,1,1,1,.83h-.08A.91.91,0,0,1,330.82,157.38Zm.09,0h0Z" transform="translate(-117.1 -143.19)"/><g class="cls-11"><path class="cls-9" d="M332.48,163.09h0a.09.09,0,0,0,.06-.11,13.23,13.23,0,0,1-.1-4.43.09.09,0,1,0-.18,0,13.11,13.11,0,0,0,.11,4.51A.09.09,0,0,0,332.48,163.09Z" transform="translate(-117.1 -143.19)"/></g><path class="cls-12" d="M331.47,163.9a.09.09,0,0,0,.06-.16,4.18,4.18,0,0,1-1.42-2.15.09.09,0,0,0-.17.05,4.36,4.36,0,0,0,1.48,2.24Z" transform="translate(-117.1 -143.19)"/><path class="cls-12" d="M335.31,165.16a.09.09,0,0,0,0-.18,5.14,5.14,0,0,1-1.28-.21.09.09,0,0,0-.05.17,5.33,5.33,0,0,0,1.33.22Z" transform="translate(-117.1 -143.19)"/><path class="cls-12" d="M332.09,166.72a.09.09,0,0,0,.09-.07l.31-1.12a.09.09,0,0,0-.17,0L332,166.6a.09.09,0,0,0,.06.11Z" transform="translate(-117.1 -143.19)"/><path class="cls-12" d="M330.17,165.17h0a3.42,3.42,0,0,0,1.32-.35.09.09,0,1,0-.08-.16,3.24,3.24,0,0,1-1.25.33.09.09,0,0,0,0,.18Z" transform="translate(-117.1 -143.19)"/><path class="cls-12" d="M333.59,163.46a.09.09,0,0,0,.08-.05c.35-.76,1.66-3.34,1.67-3.37a.09.09,0,1,0-.16-.08s-1.32,2.61-1.68,3.37a.09.09,0,0,0,0,.12Z" transform="translate(-117.1 -143.19)"/><path class="cls-12" d="M335.29,167.54a.09.09,0,0,0,0-.17,5.44,5.44,0,0,1-2-2,.09.09,0,0,0-.16.09,5.62,5.62,0,0,0,2,2Z" transform="translate(-117.1 -143.19)"/><path class="cls-7" d="M332.35,155.09a.63.63,0,0,1-.36-.45h0c-.12-.48.27-1.09,1-1.59a2.13,2.13,0,0,1,1.44-.38,1.16,1.16,0,0,1,.86-.92,1.41,1.41,0,0,1,.83,0,.73.73,0,0,1,.52.46c.14.43-.23.95-.83,1.15a1.41,1.41,0,0,1-.83,0c0,.74-.84,1.28-1.12,1.44a2.77,2.77,0,0,1-1.18.37A.87.87,0,0,1,332.35,155.09Zm-.27-.47h0Z" transform="translate(-117.1 -143.19)"/><path class="cls-7" d="M340.31,165.72a.93.93,0,0,1,0-.2,4.17,4.17,0,0,1-1.7-.6,4.11,4.11,0,0,1-1-.85,1.19,1.19,0,1,1-.91-2,4.13,4.13,0,0,1,5.29-4.59,1.71,1.71,0,1,1,2.51,2.15,4.13,4.13,0,0,1-2.48,5.74.92.92,0,1,1-1.76.36Z" transform="translate(-117.1 -143.19)"/><g class="cls-11"><path d="M340.31,165.72a.93.93,0,0,1,0-.2,4.17,4.17,0,0,1-1.7-.6,4.11,4.11,0,0,1-1-.85,1.19,1.19,0,1,1-.91-2,4.13,4.13,0,0,1,5.29-4.59,1.71,1.71,0,1,1,2.51,2.15,4.13,4.13,0,0,1-2.48,5.74.92.92,0,1,1-1.76.36Z" transform="translate(-117.1 -143.19)"/></g><path class="cls-12" d="M340.53,161.6a.52.52,0,0,1-.22-.33.52.52,0,0,1,.8-.54.52.52,0,0,1-.18.95h-.11A.52.52,0,0,1,340.53,161.6Z" transform="translate(-117.1 -143.19)"/><g class="cls-11"><circle cx="215.65" cy="21.13" r="0.62"/><path d="M332,164.32a.71.71,0,1,1,.71.71A.71.71,0,0,1,332,164.32Z" transform="translate(-117.1 -143.19)"/><path d="M335.87,166.47a1,1,0,1,1,1,1A1,1,0,0,1,335.87,166.47Z" transform="translate(-117.1 -143.19)"/><path d="M338.39,156.73a1.33,1.33,0,1,1,1,.17,1.34,1.34,0,0,1-.3,0A1.33,1.33,0,0,1,338.39,156.73Z" transform="translate(-117.1 -143.19)"/><path d="M333.54,157.43a.91.91,0,0,1,.51-1.6.93.93,0,0,1,.46.08,1.34,1.34,0,1,1,1.44,1.53,1.32,1.32,0,0,1-1-.32.92.92,0,0,1-.75.52h-.08A.9.9,0,0,1,333.54,157.43Z" transform="translate(-117.1 -143.19)"/><path d="M330.82,157.33h0a.91.91,0,1,1,1,.83h-.08A.91.91,0,0,1,330.82,157.33Zm.09,0h0Z" transform="translate(-117.1 -143.19)"/><path d="M332.35,155a.63.63,0,0,1-.36-.45h0c-.12-.48.27-1.09,1-1.59a2.14,2.14,0,0,1,1.44-.38,1.16,1.16,0,0,1,.86-.92,1.41,1.41,0,0,1,.83,0,.73.73,0,0,1,.52.46c.14.43-.23.95-.83,1.15a1.41,1.41,0,0,1-.83,0c0,.74-.84,1.28-1.12,1.44a2.77,2.77,0,0,1-1.18.37A.87.87,0,0,1,332.35,155Zm-.27-.47h0Z" transform="translate(-117.1 -143.19)"/></g><polygon class="cls-7" points="200.86 72.66 199.28 65.9 200.18 65.69 201.15 69.87 205.19 61.21 220.88 63.41 220.75 64.32 205.74 62.21 200.86 72.66"/><path class="cls-9" d="M291.74,210.91l-1.23.94L293,214l-1,.78-2.45-2.15-1.31,1,2.87,2.52L290,217l-4.07-3.58,5.67-4.34,4,3.49-1.06.8Z" transform="translate(-117.1 -143.19)"/><path class="cls-9" d="M295.25,217.75l3.58,3.14-1,.76-3.58-3.14Zm2-1.53,3.58,3.14-1,.74L296.27,217Z" transform="translate(-117.1 -143.19)"/><path class="cls-9" d="M309.37,229.12a3.18,3.18,0,0,1-.49.45l-2.41,1.85-1.17-1,2.32-1.78a2.06,2.06,0,0,0,.3-.28.75.75,0,0,0-.09-1.18,1.41,1.41,0,0,0-2,.08l-2.23,1.71-1.17-1,2.32-1.78a2,2,0,0,0,.29-.27.75.75,0,0,0-.09-1.19,1.42,1.42,0,0,0-2,.09l-2.21,1.7-1.17-1,4.35-3.34,1.11,1-.46.34a2.46,2.46,0,0,1,1.69.63,1.75,1.75,0,0,1,.66,1.75,2.69,2.69,0,0,1,2.12.69A1.72,1.72,0,0,1,309.37,229.12Z" transform="translate(-117.1 -143.19)"/><path class="cls-9" d="M309.19,230.71a3.11,3.11,0,0,1,4.53-.19,2.49,2.49,0,0,1,.92,2.62l-1.43-.37a1.23,1.23,0,0,0-.42-1.34,1.62,1.62,0,0,0-2.36.27,1.13,1.13,0,0,0,.15,1.73,1.49,1.49,0,0,0,1.47.33l.39,1.3a3,3,0,0,1-2.78-.72A2.43,2.43,0,0,1,309.19,230.71Z" transform="translate(-117.1 -143.19)"/><path class="cls-9" d="M316.34,234.61l1.38,1.21-.67.53-2.62-2.3.54-.42,2.49.26c.59.05.84,0,1-.19s.12-.48-.21-.77a1.33,1.33,0,0,0-1-.34l-.17-.83a2.33,2.33,0,0,1,1.92.65c.74.65.89,1.42.42,1.94-.3.35-.63.5-1.75.39Z" transform="translate(-117.1 -143.19)"/><path class="cls-7" d="M327.14,252.53l-9.83-6.24L338,235.5Zm-8.3-6.18,8.07,5.12,8.88-14Z" transform="translate(-117.1 -143.19)"/><path class="cls-7" d="M327.14,252.53l-4.36-2.77.19-.32A4.66,4.66,0,0,1,329.6,248l.31.21Zm-3.31-3,3.07,2,1.95-3.07a3.89,3.89,0,0,0-5,1.12Z" transform="translate(-117.1 -143.19)"/><path class="cls-7" d="M313.77,278.28a4.6,4.6,0,0,1-3.4-1,8.8,8.8,0,0,1-2.27-2.81A8.35,8.35,0,0,1,307,271a4.26,4.26,0,0,1,1.15-3.33,4.41,4.41,0,0,1,3.26-1.09,6.17,6.17,0,0,1,5.52,8.3C316.33,276.47,315.57,278,313.77,278.28Z" transform="translate(-117.1 -143.19)"/><path class="cls-7" d="M317.09,260.07a9.56,9.56,0,0,1,8.83,9.38c0,1.63-.49,3.31,0,4.86.32,1,1,1.92.9,3-.16,1.36-1.6,2.13-2.86,2.66a10.42,10.42,0,0,1-3.71,1,3.54,3.54,0,0,1-3.28-1.67c-.29-.57-1.36-3-2-3s-2.72,1.42-3.49.23c-.47-.73-.91-.63-.19-1.1-1.1.1.12,2.45-.93,1.83-3-1.74-4-6.12-4.21-7.61a7.66,7.66,0,0,1,3.14-6.75A13.33,13.33,0,0,1,317.09,260.07Z" transform="translate(-117.1 -143.19)"/><g class="cls-10"><path class="cls-9" d="M317.09,260.07a9.56,9.56,0,0,1,8.83,9.38c0,1.63-.49,3.31,0,4.86.32,1,1,1.92.9,3-.16,1.36-1.6,2.13-2.86,2.66a10.42,10.42,0,0,1-3.71,1,3.54,3.54,0,0,1-3.28-1.67c-.29-.57-1.36-3-2-3s-2.72,1.42-3.49.23c-.47-.73-.91-.63-.19-1.1-1.1.1.12,2.45-.93,1.83-3-1.74-4-6.12-4.21-7.61a7.66,7.66,0,0,1,3.14-6.75A13.33,13.33,0,0,1,317.09,260.07Z" transform="translate(-117.1 -143.19)"/></g><path class="cls-7" d="M317.64,267.73a3.76,3.76,0,0,1-.41,3,3.16,3.16,0,0,1-2.46,1.71,2.59,2.59,0,0,1-2.38-1.61,3.37,3.37,0,0,1,.26-2.94,4.19,4.19,0,0,1,2.52-2A2.68,2.68,0,0,1,317.64,267.73Z" transform="translate(-117.1 -143.19)"/><path class="cls-7" d="M319.34,266.84a3.36,3.36,0,0,0,1.44,2.31,2.82,2.82,0,0,0,2.64.49,2.31,2.31,0,0,0,1.35-2.19,3,3,0,0,0-1.3-2.3,3.75,3.75,0,0,0-2.79-.71A2.39,2.39,0,0,0,319.34,266.84Z" transform="translate(-117.1 -143.19)"/><path class="cls-7" d="M321.38,270.71a1.43,1.43,0,0,1,.7.62.86.86,0,0,1-.65,1.09,1.28,1.28,0,0,1-1.25-.57,1.31,1.31,0,0,1-.35.87.7.7,0,0,1-.88.09.74.74,0,0,1-.23-.71,2.19,2.19,0,0,1,.3-.71c.18-.31.57-1.36.93-1.43S321.09,270.56,321.38,270.71Z" transform="translate(-117.1 -143.19)"/><path class="cls-7" d="M325,274.07c0,.25.25.61.21.86a5.13,5.13,0,0,1-1,.67,29.42,29.42,0,0,1-6.08,2.07,2.79,2.79,0,0,0-1.37-1.47,1.51,1.51,0,0,1,1.51,1.09,22.41,22.41,0,0,0,6.57-2.45c-.09-.46-.32-1.29.43-1.41C325.3,273.42,325.1,273.41,325,274.07Z" transform="translate(-117.1 -143.19)"/><polygon class="cls-5" points="201.86 52.65 198.74 51.69 198.22 50.29 203.08 51.79 201.86 52.65"/><path class="cls-7" d="M327.84,184.13a6.66,6.66,0,0,1-3.6,4.08,4.37,4.37,0,0,0-2.41,2.67l-.15.48-5.56-1.71.15-.48a4.38,4.38,0,0,0-.49-3.56,6.67,6.67,0,1,1,12.06-1.48Z" transform="translate(-117.1 -143.19)"/><path class="cls-13" d="M327.84,184.13a6.66,6.66,0,0,1-3.6,4.08,4.37,4.37,0,0,0-2.41,2.67l-.15.48-5.56-1.71.15-.48a4.38,4.38,0,0,0-.49-3.56,6.67,6.67,0,1,1,12.06-1.48Z" transform="translate(-117.1 -143.19)"/><rect class="cls-7" x="314.7" y="186.31" width="7" height="0.4" transform="translate(-15.58 341.8) rotate(-84.4)"/><rect class="cls-7" x="318.22" y="187.4" width="7" height="0.4" transform="translate(-114.18 236.93) rotate(-61.37)"/><polygon class="cls-7" points="203.76 43.68 203.42 42.05 202.22 43.2 201.28 41.09 201.65 40.93 202.35 42.51 203.67 41.25 204.04 43.03 205.51 42.12 205.72 42.46 203.76 43.68"/><polygon class="cls-7" points="204.63 48 203.57 51.44 198 49.74 199.06 46.31 204.63 48"/><rect class="cls-7" x="317.62" y="191.09" width="0.4" height="5.82" transform="translate(-76.85 299) rotate(-73.2)"/><rect class="cls-7" x="318.74" y="187.44" width="0.4" height="5.82" transform="translate(-72.54 297.5) rotate(-73.21)"/><g class="cls-14"><rect x="318.74" y="187.44" width="0.4" height="5.82" transform="translate(-72.54 297.5) rotate(-73.21)"/></g><g class="cls-14"><rect x="317.62" y="191.09" width="0.4" height="5.82" transform="translate(-76.85 299) rotate(-73.2)"/></g></g><g id="Sheets"><rect class="cls-7" x="204.25" y="388.18" width="37.45" height="9.31" transform="translate(328.86 642.49) rotate(180)"/><rect class="cls-15" x="204.37" y="388.22" width="37.45" height="9.31" transform="translate(329.1 642.57) rotate(180)"/><rect class="cls-15" x="204.25" y="388.22" width="28.75" height="9.31" transform="translate(320.16 642.57) rotate(180)"/><polygon class="cls-16" points="87.34 253.12 124.61 254.28 124.57 253.33 87.32 252.84 87.34 253.12"/><polygon class="cls-16" points="124.61 248.81 87.39 246.72 87.39 247.03 124.61 249.52 124.61 248.81"/><polygon class="cls-16" points="124.61 246 87.39 246.85 87.39 247.16 124.61 246.71 124.61 246"/><polygon class="cls-16" points="124.71 250.64 87.49 252.45 87.49 252.18 124.71 250.02 124.71 250.64"/><polygon class="cls-16" points="87.25 245.11 124.46 245.14 124.46 245.45 87.25 245.45 87.25 245.11"/><rect class="cls-7" x="206.94" y="360.45" width="37.45" height="9.31" transform="translate(334.23 587.01) rotate(180)"/><rect class="cls-15" x="207.06" y="360.49" width="37.45" height="9.31" transform="translate(334.48 587.09) rotate(180)"/><rect class="cls-15" x="206.94" y="360.49" width="28.75" height="9.31" transform="translate(325.53 587.09) rotate(180)"/><polygon class="cls-16" points="90.02 225.38 127.3 226.54 127.25 225.59 90 225.11 90.02 225.38"/><polygon class="cls-16" points="127.3 221.07 90.08 218.98 90.08 219.3 127.3 221.78 127.3 221.07"/><polygon class="cls-16" points="127.3 218.26 90.08 219.11 90.08 219.42 127.3 218.97 127.3 218.26"/><polygon class="cls-16" points="127.4 222.9 90.18 224.72 90.18 224.44 127.4 222.28 127.4 222.9"/><rect class="cls-7" x="206.47" y="378.74" width="37.45" height="9.31" transform="translate(333.3 623.6) rotate(180)"/><rect class="cls-15" x="206.59" y="378.78" width="37.45" height="9.31" transform="translate(333.54 623.68) rotate(180)"/><rect class="cls-15" x="89.46" y="235.59" width="28.75" height="9.31"/><polygon class="cls-16" points="126.67 243.4 89.42 243.89 89.37 244.83 126.65 243.68 126.67 243.4"/><polygon class="cls-16" points="89.61 235.67 126.83 235.7 126.83 236.01 89.61 236.01 89.61 235.67"/><polygon class="cls-16" points="89.37 240.08 126.59 237.59 126.59 237.28 89.37 239.37 89.37 240.08"/><polygon class="cls-16" points="126.83 236.56 89.61 237.41 89.61 237.72 126.83 237.27 126.83 236.56"/><polygon class="cls-16" points="126.93 241.2 89.71 243.01 89.71 242.74 126.93 240.58 126.93 241.2"/><polygon class="cls-7" points="125.53 226.77 88.09 226.96 88.04 236.08 125.53 236.08 125.53 226.77"/><rect class="cls-15" x="205.18" y="369.96" width="37.45" height="9.31" transform="translate(330.71 606.04) rotate(180)"/><rect class="cls-15" x="88.04" y="226.77" width="28.75" height="9.31"/><polygon class="cls-16" points="117.91 226.96 88.09 226.96 88.09 227.91 117.27 227.91 117.91 226.96"/><polygon class="cls-16" points="125.32 230.77 88.09 231.12 88.09 231.39 125.32 231.39 125.32 230.77"/><polygon class="cls-16" points="88.09 235.08 125.32 233.27 125.32 233.54 88.09 235.7 88.09 235.08"/><polygon class="cls-16" points="88.09 231.58 125.32 232.32 125.32 232.59 88.09 232.2 88.09 231.58"/><rect class="cls-7" x="97.88" y="206.51" width="37.22" height="4.69"/><rect class="cls-15" x="97.88" y="206.51" width="37.22" height="4.69"/><rect class="cls-15" x="97.88" y="206.51" width="29.66" height="4.69"/><polygon class="cls-16" points="135.11 209.84 97.9 210.02 97.9 210.16 135.11 210.16 135.11 209.84"/><polygon class="cls-16" points="97.9 208.08 135.11 207.14 135.11 207.28 97.9 208.41 97.9 208.08"/><polygon class="cls-16" points="97.78 207.83 134.99 208.21 134.99 208.35 97.78 208.15 97.78 207.83"/><rect class="cls-7" x="92.67" y="204.45" width="37.22" height="2.26"/><rect class="cls-15" x="92.67" y="204.47" width="37.22" height="2.24"/><rect class="cls-15" x="92.67" y="204.32" width="29.66" height="2.38"/><polygon class="cls-16" points="92.69 206.17 129.91 205.22 129.91 205.36 92.69 206.49 92.69 206.17"/><polygon class="cls-16" points="92.69 205.03 129.91 205.41 129.91 205.56 92.69 205.35 92.69 205.03"/><rect class="cls-7" x="96.14" y="202.14" width="37.22" height="2.26"/><rect class="cls-15" x="96.14" y="202.16" width="37.22" height="2.24"/><rect class="cls-15" x="96.14" y="202.02" width="29.66" height="2.38"/><polygon class="cls-16" points="96.16 203.16 133.38 203.61 133.38 203.76 96.15 203.48 96.16 203.16"/><polygon class="cls-16" points="96.16 202.73 133.37 203.11 133.37 203.25 96.16 203.05 96.16 202.73"/><rect class="cls-7" x="95.36" y="211.2" width="37.22" height="6.04"/><rect class="cls-15" x="95.36" y="211.2" width="37.22" height="6.04"/><rect class="cls-15" x="95.36" y="211.2" width="28.72" height="6.04"/><polygon class="cls-16" points="132.34 213.08 95.13 212.87 95.13 212.7 132.34 212.7 132.34 213.08"/><polygon class="cls-16" points="95.38 213.95 132.6 215.04 132.6 214.88 95.38 213.59 95.38 213.95"/><polygon class="cls-16" points="132.6 211.21 97.49 211.21 98.27 211.95 132.6 211.95 132.6 211.21"/><polygon class="cls-16" points="95.51 216.31 132.72 215.86 132.72 215.7 95.51 215.93 95.51 216.31"/></g><g id="Character"><g id="_Group_" data-name="&lt;Group&gt;"><path class="cls-17" d="M310,335.06c.06,2.55,0,4.93-.12,7.39s-.29,4.88-.53,7.33a85.52,85.52,0,0,1-2.69,14.8l-.61,1.88-.15.47,0,.12-.06.18-.19.5a7.88,7.88,0,0,1-.93,1.65,9.51,9.51,0,0,1-2.16,2.14,14,14,0,0,1-2.13,1.28,29.29,29.29,0,0,1-7.83,2.39,67.11,67.11,0,0,1-14.88.78l-.26-4.88,3.39-.7c1.14-.24,2.27-.52,3.39-.77,2.24-.54,4.45-1.11,6.55-1.8a25.48,25.48,0,0,0,5.56-2.41,3.18,3.18,0,0,0,1.17-1.07c0-.12-.19.39,0-.41l.38-1.55a98.34,98.34,0,0,0,1.7-13.36c.17-2.29.28-4.59.38-6.91s.14-4.66.17-6.86Z" transform="translate(-117.1 -143.19)"/><path class="cls-17" d="M279.44,371.35l-5.35-3.87-1.62,8.15s5.29,2.28,6.81-.38Z" transform="translate(-117.1 -143.19)"/><polygon class="cls-17" points="151.55 224.46 150.53 231.27 155.37 232.44 156.98 224.29 151.55 224.46"/><path class="cls-7" d="M313.86,328.26c1.17,6.11-3.59,20.52-3.59,20.52l-15.52-2c2.38-5.46,3.24-13.33,6.24-18.47C303.78,323.73,312.58,321.61,313.86,328.26Z" transform="translate(-117.1 -143.19)"/><path class="cls-18" d="M313.86,328.26c1.17,6.11-3.59,20.52-3.59,20.52l-15.52-2c2.38-5.46,3.24-13.33,6.24-18.47C303.78,323.73,312.58,321.61,313.86,328.26Z" transform="translate(-117.1 -143.19)"/><path class="cls-7" d="M336,323.86a3.71,3.71,0,0,1,3.2,4.16v.1a152.84,152.84,0,0,0-1.58,18c-.16,5.08-.1,9.9.06,14.27.37,10.23,1.29,18,1.22,20.64l-34.21,2.89c-6-27.2-4-47.32-2.35-54.66a6.2,6.2,0,0,1,4.67-4.68c1.31-.29,2.88-.6,4.55-.85.58-.05,1.18-.16,1.77-.23a129.09,129.09,0,0,1,14.8-.33c.93,0,1.88.08,2.8.14C332.78,323.47,334.54,323.67,336,323.86Z" transform="translate(-117.1 -143.19)"/><path class="cls-18" d="M336,323.86a3.71,3.71,0,0,1,3.2,4.16v.1a152.84,152.84,0,0,0-1.58,18c-.16,5.08-.1,9.9.06,14.27.37,10.23,1.29,18,1.22,20.64l-34.21,2.89c-6-27.2-4-47.32-2.35-54.66a6.2,6.2,0,0,1,4.67-4.68c1.31-.29,2.88-.6,4.55-.85.58-.05,1.18-.16,1.77-.23a129.09,129.09,0,0,1,14.8-.33c.93,0,1.88.08,2.8.14C332.78,323.47,334.54,323.67,336,323.86Z" transform="translate(-117.1 -143.19)"/><path class="cls-17" d="M326.35,306.57c-.84,4.78-1.6,13.51,1.79,16.62-7.53,6.11-12,14.16-13.59,12.64-.85-.79-2.08-10.78-1.2-12.35,5.28-1.37,5.07-5.3,4.08-9Z" transform="translate(-117.1 -143.19)"/><path class="cls-19" d="M322.72,309.8l-5.28,4.69a14.82,14.82,0,0,1,.51,2.62c2-.33,4.76-2.61,4.93-4.74A7.09,7.09,0,0,0,322.72,309.8Z" transform="translate(-117.1 -143.19)"/><path class="cls-20" d="M308.54,294.55c-3.15.42-4.4,6-.8,10.26S312.77,294,308.54,294.55Z" transform="translate(-117.1 -143.19)"/><path class="cls-17" d="M324.55,298c.95,6.39,1.83,10.08-.67,14-3.76,5.88-12.16,4.65-15-1.32-2.55-5.38-3.69-14.92,2-18.74A8.81,8.81,0,0,1,324.55,298Z" transform="translate(-117.1 -143.19)"/><path class="cls-20" d="M318.57,298.91a3.5,3.5,0,0,0,2.93,2.4,5.94,5.94,0,0,1,.47,4.43l2.35.3a3.73,3.73,0,0,1,3.43-3.78q-1,3.84-2.27,7.59a19.56,19.56,0,0,0,5.7-8,11.17,11.17,0,0,0,.85-4.7,6.07,6.07,0,0,0-2-4.24,6.61,6.61,0,0,0-6-1C320.53,292.93,317,294.78,318.57,298.91Z" transform="translate(-117.1 -143.19)"/><path class="cls-17" d="M328.92,302.94a6.1,6.1,0,0,1-2.13,4.17c-1.65,1.39-3.36.13-3.64-1.89-.26-1.82.3-4.73,2.3-5.33A2.75,2.75,0,0,1,328.92,302.94Z" transform="translate(-117.1 -143.19)"/><path class="cls-20" d="M315.36,301.74c.11.52-.08,1-.41,1.06s-.69-.29-.81-.81.08-1,.41-1.06S315.26,301.23,315.36,301.74Z" transform="translate(-117.1 -143.19)"/><path class="cls-20" d="M309.57,303c.11.52-.08,1-.41,1.06s-.69-.29-.8-.81.08-1,.41-1.06S309.45,302.45,309.57,303Z" transform="translate(-117.1 -143.19)"/><path class="cls-21" d="M311.46,302.84a18.82,18.82,0,0,1-1.53,4.91,3,3,0,0,0,2.56-.06Z" transform="translate(-117.1 -143.19)"/><path class="cls-20" d="M316.77,299.48a.3.3,0,0,1-.32,0,2.47,2.47,0,0,0-2.15-.59.31.31,0,0,1-.4-.18l0-.07a.3.3,0,0,1,.19-.37h0a3,3,0,0,1,2.71.72.3.3,0,0,1,0,.43h0A.36.36,0,0,1,316.77,299.48Z" transform="translate(-117.1 -143.19)"/><path class="cls-20" d="M315.39,309.51h0a4.73,4.73,0,0,0,3.11-3.06.16.16,0,0,0-.11-.2.17.17,0,0,0-.21.12,4.47,4.47,0,0,1-2.88,2.82.17.17,0,0,0,.09.32Z" transform="translate(-117.1 -143.19)"/><path class="cls-20" d="M306.64,301.5a.26.26,0,0,1-.19,0,.31.31,0,0,1-.23-.37A3.07,3.07,0,0,1,308,299a.3.3,0,0,1,.39.18h0a.3.3,0,0,1-.17.38h0a2.45,2.45,0,0,0-1.42,1.69A.28.28,0,0,1,306.64,301.5Z" transform="translate(-117.1 -143.19)"/><path class="cls-7" d="M266.22,348.84l8,25.67s7.88-2.48,11.32-.33a36.29,36.29,0,0,1,5.93,4.7l-5.5-27.93S278.61,342.31,266.22,348.84Z" transform="translate(-117.1 -143.19)"/><path class="cls-7" d="M285.93,350.94l5.5,27.93s8.54-9.25,16.38-5.37l2.66,1.37L307.25,347S297.07,341.77,285.93,350.94Z" transform="translate(-117.1 -143.19)"/><path class="cls-22" d="M285.93,350.94l5.5,27.93s8.54-9.25,16.38-5.37l2.66,1.37L307.25,347S297.07,341.77,285.93,350.94Z" transform="translate(-117.1 -143.19)"/><path class="cls-22" d="M266.22,348.84l8,25.67s7.88-2.48,11.32-.33a36.29,36.29,0,0,1,5.93,4.7l-5.5-27.93S278.61,342.31,266.22,348.84Z" transform="translate(-117.1 -143.19)"/><path class="cls-20" d="M291.41,378.6c-6.65-2.15-13.12-4.41-18.42.31-2-7.59-4.89-14.82-7.11-22.34-1.78-6-1.78-5,1.4-6.72,2.75-1.51,15.59-2.9,18.31,4.15C286.57,356.56,290.93,378,291.41,378.6Z" transform="translate(-117.1 -143.19)"/><path class="cls-20" d="M312.47,377.43c-3.93-3.44-10.11-3.25-14.2,0a11.35,11.35,0,0,1-4.17,2.17v0l-5.67-26.1-.23.17c1.16-3.94,7.2-5.85,11-6a17.33,17.33,0,0,1,9.49,3S311.61,369.86,312.47,377.43Z" transform="translate(-117.1 -143.19)"/><path class="cls-20" d="M294.1,379.6s-2.3.71-3.2-1.17l-5.6-25.1s.94,1.65,2.88.3l.23-.17,5.67,26.1Z" transform="translate(-117.1 -143.19)"/><path class="cls-12" d="M294.1,379.6s-2.3.71-3.2-1.17l-5.6-25.1s.94,1.65,2.88.3l.23-.17,5.67,26.1Z" transform="translate(-117.1 -143.19)"/><path class="cls-11" d="M334.3,327.31c-2.87-.42-4.06.61-6,4.53-1.84,3.62-2.84,14.06-2.84,14.06-.36,5.72-1.09,5.07,4.32,5.49,3.46.27,7.85,1,7.85,1S342.88,328.57,334.3,327.31Z" transform="translate(-117.1 -143.19)"/><path class="cls-17" d="M342.3,332.71c.06,2.55,0,4.93-.12,7.39s-.29,4.88-.53,7.33a85.52,85.52,0,0,1-2.69,14.8l-.61,1.88-.15.47,0,.12-.06.18-.19.5A7.87,7.87,0,0,1,337,367a9.51,9.51,0,0,1-2.16,2.14,14,14,0,0,1-2.13,1.28,29.29,29.29,0,0,1-7.83,2.39,67.12,67.12,0,0,1-14.88.78l-.26-4.88,3.39-.7c1.14-.24,2.27-.52,3.39-.77,2.24-.54,4.45-1.11,6.55-1.8a25.48,25.48,0,0,0,5.56-2.41,3.18,3.18,0,0,0,1.17-1.07c0-.12-.19.39,0-.41l.38-1.55a98.34,98.34,0,0,0,1.7-13.36c.17-2.29.28-4.59.38-6.91s.14-4.66.17-6.86Z" transform="translate(-117.1 -143.19)"/><path class="cls-17" d="M311.76,369l-5.35-3.87-1.62,8.15s5.29,2.28,6.81-.38Z" transform="translate(-117.1 -143.19)"/><polygon class="cls-17" points="183.87 222.12 182.85 228.92 187.69 230.09 189.3 221.94 183.87 222.12"/><path class="cls-7" d="M342.45,328c3.65,5,2.44,22,2.44,22L328,348.35s-1.76-9.5.75-17.13C331.46,322.94,338,321.86,342.45,328Z" transform="translate(-117.1 -143.19)"/><path class="cls-18" d="M342.45,328c3.65,5,2.44,22,2.44,22L328,348.35s-1.76-9.5.75-17.13C331.46,322.94,338,321.86,342.45,328Z" transform="translate(-117.1 -143.19)"/><path class="cls-20" d="M305.84,296.8a21.55,21.55,0,0,1-1.79-2.73c2.23.45,2.46-.7,3.37-3.81,1-3.53,5-5.79,7.16-6.14,14.72-2.39,15.55,6,15.7,7.33a2.53,2.53,0,0,1-1.54,2.37,7.42,7.42,0,0,1-2.94.54c-2.14.1-5.31.85-7.38.31C310.07,292.47,306.86,296.91,305.84,296.8Z" transform="translate(-117.1 -143.19)"/></g><polygon class="cls-17" points="177.65 263.21 187.62 268.42 192.41 270.92 190.35 276.26 185.61 274.54 174.04 270.33 177.65 263.21"/><polygon class="cls-19" points="177.65 263.21 187.62 268.42 185.61 274.54 174.04 270.33 177.65 263.21"/><polygon class="cls-17" points="160.81 277.38 150.11 280.86 144.97 282.53 142.6 277.32 147.15 275.14 158.25 269.82 160.81 277.38"/><polygon class="cls-19" points="160.81 277.38 150.11 280.86 147.15 275.14 158.25 269.82 160.81 277.38"/><path class="cls-7" d="M342.63,391a4.81,4.81,0,0,0-.82-1.43c-3.48-4.15-16.27-4.07-24-3.25-3.54.37-8.14,2.16-13.14,4.68a9.12,9.12,0,0,0-2.81-2.78c-6.47-3.78-15.29-5.15-24-5,12.62-.4,26.86.75,26.86.75l34-2.81A27.1,27.1,0,0,1,342.63,391Z" transform="translate(-117.1 -143.19)"/><path class="cls-11" d="M342.63,391a4.81,4.81,0,0,0-.82-1.43c-3.48-4.15-16.27-4.07-24-3.25-3.54.37-8.14,2.16-13.14,4.68a9.12,9.12,0,0,0-2.81-2.78c-6.47-3.78-15.29-5.15-24-5,12.62-.4,26.86.75,26.86.75l34-2.81A27.1,27.1,0,0,1,342.63,391Z" transform="translate(-117.1 -143.19)"/><path class="cls-7" d="M306.49,405.17c-1.88,3-5.4,4.59-8.9,5s-7-.19-10.49-.81l-9-1.6-14.74-2.61a25.61,25.61,0,0,1-8.08-2.38c-7.94-4.41-9.55-9.38-5.43-13a14.69,14.69,0,0,1,4.65-2.63l.2-.08a67.18,67.18,0,0,1,14.61-3.33l.17,0a79.11,79.11,0,0,1,8.37-.56c8.69-.12,17.51,1.25,24,5a9.12,9.12,0,0,1,2.81,2.78C307.42,395.05,308.68,401.71,306.49,405.17Z" transform="translate(-117.1 -143.19)"/><path class="cls-11" d="M306.49,405.17c-1.88,3-5.4,4.59-8.9,5s-7-.19-10.49-.81l-9-1.6-14.74-2.61a25.61,25.61,0,0,1-8.08-2.38c-7.94-4.41-9.55-9.38-5.43-13a14.69,14.69,0,0,1,4.65-2.63l.2-.08a67.18,67.18,0,0,1,14.61-3.33l.17,0a79.11,79.11,0,0,1,8.37-.56c8.69-.12,17.51,1.25,24,5a9.12,9.12,0,0,1,2.81,2.78C307.42,395.05,308.68,401.71,306.49,405.17Z" transform="translate(-117.1 -143.19)"/><path class="cls-7" d="M252.15,388.29s-8.53,4.29-6.63,12.76c0,0,1.37,5.41,17.48,8.62s36.53,6.91,36.53,6.91L301.6,410s-21.19-18.29-37.21-22.22A21.27,21.27,0,0,0,252.15,388.29Z" transform="translate(-117.1 -143.19)"/><polygon class="cls-7" points="183.34 275.95 178.14 275.85 182.68 263.08 186.79 265.48 183.34 275.95"/><g class="cls-23"><polygon class="cls-9" points="183.34 275.95 178.14 275.85 182.68 263.08 186.79 265.48 183.34 275.95"/></g><path class="cls-7" d="M306.62,411.25c.1.43,15.52,4.58,21.26,2.55C345.86,407.44,302.38,392.93,306.62,411.25Z" transform="translate(-117.1 -143.19)"/><path class="cls-11" d="M306.62,411.25c.1.43,15.52,4.58,21.26,2.55C345.86,407.44,302.38,392.93,306.62,411.25Z" transform="translate(-117.1 -143.19)"/><path class="cls-7" d="M342,401.35A23.52,23.52,0,0,1,340.5,405v0l-.33.6c-.29.51-.59,1-.92,1.47l-.06.09c-.15.22-.3.42-.46.62-4.59,5.92-16.62,8.25-19.46,4.42a20.76,20.76,0,0,1-2.68-5.83,209.4,209.4,0,0,1-30.13,12.72c-5.33,1.78-11,3.46-16.76,4.85l-3.47-7.28,1.37-1.07c1.92-1.5,5.72-4.43,10.48-7.86,7.61-5.49,17.71-12.31,26.56-16.8,5-2.53,9.6-4.31,13.14-4.68,7.77-.82,20.56-.9,24,3.25a4.81,4.81,0,0,1,.82,1.43C343.64,393.56,343.29,397.57,342,401.35Z" transform="translate(-117.1 -143.19)"/><polygon class="cls-7" points="148.48 272.13 152.35 268.66 157.73 281.11 153.09 282.14 148.48 272.13"/><g class="cls-23"><polygon class="cls-9" points="148.48 272.13 152.35 268.66 157.73 281.11 153.09 282.14 148.48 272.13"/></g><path class="cls-7" d="M300.53,423.67a1.26,1.26,0,0,0,1,.21,3.36,3.36,0,0,0,.49-.19,2.79,2.79,0,0,0,1.09-.86l.26-.32a11.21,11.21,0,0,0,1-1.52.13.13,0,0,0-.05-.18.21.21,0,0,0-.22,0l-.51.21-.12,0h0l-.73.34c-1.05.51-2.33,1.23-2.41,1.79A.5.5,0,0,0,300.53,423.67Zm.16-.42a.49.49,0,0,1,.16-.27,10.27,10.27,0,0,1,2.43-1.48l.2-.09.29-.12c-.12.2-.25.39-.37.56a7,7,0,0,1-.9,1.08,2.19,2.19,0,0,1-1.05.64.79.79,0,0,1-.66-.15A.18.18,0,0,1,300.68,423.25Z" transform="translate(-117.1 -143.19)"/><path class="cls-7" d="M299.27,420.63c.35.56,2.22.82,3.44.79a4.6,4.6,0,0,0,.62,0h0l.07,0a.19.19,0,0,0,.06-.08.13.13,0,0,0,0-.15h0a5.54,5.54,0,0,0-2.84-1.44,1.63,1.63,0,0,0-1.06.29C299.12,420.22,299.16,420.46,299.27,420.63Zm.34-.14s-.09-.14.18-.33l.09-.06a1.22,1.22,0,0,1,.69-.15,4.87,4.87,0,0,1,2.35,1.15C301.76,421.18,299.87,420.89,299.61,420.49Z" transform="translate(-117.1 -143.19)"/><path class="cls-20" d="M304.13,418.58l5.11-5.32a.77.77,0,0,1,.84-.16l6.5,2.8a1,1,0,0,1,.48,1.45l-.08.09c-6.82,9.42-10.69,12-11.66,13-2.76,2.69-5,.59-4.44-.48,2.7-4.81,2.7-6.56,2.51-8.84A4.52,4.52,0,0,1,304.13,418.58Z" transform="translate(-117.1 -143.19)"/><path class="cls-7" d="M255.76,414.42a1.26,1.26,0,0,0-.5.87,3.37,3.37,0,0,0,0,.53,2.79,2.79,0,0,0,.49,1.3l.23.34a11.22,11.22,0,0,0,1.14,1.42.13.13,0,0,0,.18,0,.21.21,0,0,0,.07-.21c0-.08,0-.28-.05-.55V418c0-.23-.06-.5-.1-.8-.17-1.16-.47-2.59-1-2.84A.5.5,0,0,0,255.76,414.42Zm.35.28a.49.49,0,0,1,.21.23,10.27,10.27,0,0,1,.67,2.76c0,.07,0,.14,0,.22s0,.21,0,.31c-.15-.17-.29-.35-.42-.52a7,7,0,0,1-.75-1.19,2.19,2.19,0,0,1-.29-1.2.79.79,0,0,1,.34-.58A.18.18,0,0,1,256.11,414.69Z" transform="translate(-117.1 -143.19)"/><path class="cls-7" d="M259,414.14c-.64.17-1.45,1.86-1.79,3a4.6,4.6,0,0,0-.14.61v0a.12.12,0,0,0,0,.08.19.19,0,0,0,.06.09.13.13,0,0,0,.16,0l0,0h0a5.54,5.54,0,0,0,2.23-2.27,1.63,1.63,0,0,0,0-1.1C259.48,414.12,259.23,414.09,259,414.14Zm0,.37s.16,0,.26.27l0,.11a1.22,1.22,0,0,1-.07.71,4.87,4.87,0,0,1-1.81,1.9C257.77,416.35,258.61,414.63,259.07,414.51Z" transform="translate(-117.1 -143.19)"/><path class="cls-20" d="M259.83,419.88l2.76,5.33a.77.77,0,0,1-.1.85L257,430.2a1,1,0,0,1-1.53,0l-.07-.1c-6.91-9.35-8.51-13.62-9.12-14.83-1.73-3.45,1-5,1.8-4.08,3.76,4,6.66,6.3,8.9,6.82C260,419.12,259.62,419.5,259.83,419.88Z" transform="translate(-117.1 -143.19)"/><path class="cls-20" d="M307.89,306.23h0a3.19,3.19,0,1,1,3.24-3.14h0A3.2,3.2,0,0,1,307.89,306.23Zm0-5.66a2.47,2.47,0,0,0,0,4.94h0a2.47,2.47,0,0,0,0-4.94Z" transform="translate(-117.1 -143.19)"/><path class="cls-20" d="M315.25,304.48h0a3.19,3.19,0,1,1,3.24-3.14h0A3.2,3.2,0,0,1,315.25,304.48Zm0-5.66a2.47,2.47,0,0,0,0,4.94,2.47,2.47,0,0,0,.08-4.94Z" transform="translate(-117.1 -143.19)"/><path class="cls-20" d="M310.8,301.9l-.71-.14c0-.12.25-1.18,1-1.41.48-.14,1,.07,1.56.64l-.51.5c-.35-.35-.64-.51-.84-.45S310.85,301.67,310.8,301.9Z" transform="translate(-117.1 -143.19)"/><polygon class="cls-20" points="201.02 157.94 200.85 157.24 208.12 155.51 209.53 155.83 209.37 156.53 208.13 156.25 201.02 157.94"/></g><g id="Books"><path class="cls-7" d="M352.92,400.6v4.92a.47.47,0,0,0,0,.94l5.62,0v-6.82h-5.62A.47.47,0,0,0,352.92,400.6Z" transform="translate(-117.1 -143.19)"/><path class="cls-24" d="M352.92,400.6v4.92a.47.47,0,0,0,0,.94l5.62,0v-6.82h-5.62A.47.47,0,0,0,352.92,400.6Z" transform="translate(-117.1 -143.19)"/><rect class="cls-7" x="235.82" y="257.41" width="4.37" height="4.91"/><rect class="cls-25" x="235.82" y="257.41" width="4.37" height="4.91"/><path class="cls-7" d="M356.37,400.13h24.11c1,0,1.89,1.31,1.89,2.93s-.84,2.93-1.89,2.93H356.37Z" transform="translate(-117.1 -143.19)"/><path class="cls-13" d="M356.37,400.13h24.11c1,0,1.89,1.31,1.89,2.93s-.84,2.93-1.89,2.93H356.37Z" transform="translate(-117.1 -143.19)"/><path class="cls-7" d="M356.37,406.46c5,0,18.89.09,23.85,0,3.4-.06,3.58-6.57.25-6.8-2.32-.16-4.71,0-7,0H356.37a.47.47,0,0,0,0,.94h23.07c1.09,0,1.87,0,2.29,1.3.36,1.11.25,3.38-1.24,3.62a3.29,3.29,0,0,1-.51,0h-23.6a.47.47,0,0,0,0,.94Z" transform="translate(-117.1 -143.19)"/><g class="cls-14"><path class="cls-9" d="M356.37,406.46c5,0,18.89.09,23.85,0,3.4-.06,3.58-6.57.25-6.8-2.32-.16-4.71,0-7,0H356.37a.47.47,0,0,0,0,.94h23.07c1.09,0,1.87,0,2.29,1.3.36,1.11.25,3.38-1.24,3.62a3.29,3.29,0,0,1-.51,0h-23.6a.47.47,0,0,0,0,.94Z" transform="translate(-117.1 -143.19)"/></g><path class="cls-7" d="M353.76,407.23v4.55a.44.44,0,0,0,0,.87l5.21,0v-6.32h-5.21A.44.44,0,0,0,353.76,407.23Z" transform="translate(-117.1 -143.19)"/><path class="cls-24" d="M353.76,407.23v4.55a.44.44,0,0,0,0,.87l5.21,0v-6.32h-5.21A.44.44,0,0,0,353.76,407.23Z" transform="translate(-117.1 -143.19)"/><rect class="cls-7" x="236.66" y="264.05" width="4.05" height="4.55"/><rect class="cls-25" x="236.66" y="264.05" width="4.05" height="4.55"/><path class="cls-7" d="M357,406.8h22.33c1,0,1.75,1.21,1.75,2.71s-.78,2.71-1.75,2.71H357Z" transform="translate(-117.1 -143.19)"/><path class="cls-13" d="M357,406.8h22.33c1,0,1.75,1.21,1.75,2.71s-.78,2.71-1.75,2.71H357Z" transform="translate(-117.1 -143.19)"/><path class="cls-7" d="M357,412.66c4.59,0,17.5.08,22.09,0,3.14-.06,3.31-6.08.23-6.3-2.15-.15-4.36,0-6.52,0H357a.44.44,0,0,0,0,.87h21.36c1,0,1.73,0,2.12,1.2.34,1,.23,3.13-1.15,3.35a3,3,0,0,1-.47,0H357a.44.44,0,0,0,0,.87Z" transform="translate(-117.1 -143.19)"/><path class="cls-7" d="M351.16,413.61V419a.52.52,0,0,0,0,1l6.2,0v-7.52h-6.2A.52.52,0,0,0,351.16,413.61Z" transform="translate(-117.1 -143.19)"/><path class="cls-24" d="M351.16,413.61V419a.52.52,0,0,0,0,1l6.2,0v-7.52h-6.2A.52.52,0,0,0,351.16,413.61Z" transform="translate(-117.1 -143.19)"/><rect class="cls-7" x="234.07" y="270.43" width="4.81" height="5.41"/><rect class="cls-25" x="234.07" y="270.43" width="4.81" height="5.41"/><path class="cls-7" d="M355,413.1h26.58c1.15,0,2.08,1.45,2.08,3.23s-.93,3.23-2.08,3.23H355Z" transform="translate(-117.1 -143.19)"/><path class="cls-13" d="M355,413.1h26.58c1.15,0,2.08,1.45,2.08,3.23s-.93,3.23-2.08,3.23H355Z" transform="translate(-117.1 -143.19)"/><path class="cls-7" d="M355,420.07c5.46,0,20.82.1,26.29,0,3.74-.07,3.94-7.24.27-7.49-2.56-.18-5.19,0-7.75,0H355a.52.52,0,0,0,0,1h25.42c1.2,0,2.06,0,2.52,1.43.4,1.22.27,3.72-1.37,4a3.62,3.62,0,0,1-.56,0H355a.52.52,0,0,0,0,1Z" transform="translate(-117.1 -143.19)"/><g class="cls-14"><path d="M355,420.07c5.46,0,20.82.1,26.29,0,3.74-.07,3.94-7.24.27-7.49-2.56-.18-5.19,0-7.75,0H355a.52.52,0,0,0,0,1h25.42c1.2,0,2.06,0,2.52,1.43.4,1.22.27,3.72-1.37,4a3.62,3.62,0,0,1-.56,0H355a.52.52,0,0,0,0,1Z" transform="translate(-117.1 -143.19)"/></g><polygon class="cls-7" points="70.68 275.66 77.96 264.25 90.61 260.16 108.38 262.94 109.45 273.56 100.63 275.23 93.06 274.08 88.85 272.44 84 276.6 77.25 277.77 72.76 277.2 70.68 275.66"/><polygon class="cls-11" points="70.68 275.66 77.96 264.25 90.61 260.16 108.38 262.94 109.45 273.56 100.63 275.23 93.06 274.08 88.85 272.44 84 276.6 77.25 277.77 72.76 277.2 70.68 275.66"/><polygon class="cls-14" points="93.07 260.54 91.77 273.58 88.85 272.44 85.5 275.31 88.35 260.89 90.61 260.16 93.07 260.54"/><path class="cls-7" d="M187.32,420.67s12.58,5.24,19-3.84c0,0,13.18,6.46,20.2-.08l-1.21-2s-3.42,5.59-19.52-.4c0,0-6.84,8.93-18,4.48Z" transform="translate(-117.1 -143.19)"/><path class="cls-22" d="M187.32,420.67s12.58,5.24,19-3.84c0,0,13.18,6.46,20.2-.08l-1.21-2s-3.42,5.59-19.52-.4c0,0-6.84,8.93-18,4.48Z" transform="translate(-117.1 -143.19)"/><polygon class="cls-7" points="79.68 266.19 88.8 258.87 101.68 258.16 118.14 263.67 117.13 271.97 108.39 271.56 101.37 269.25 97.65 267.19 92.23 269.44 85.55 269.05 81.37 267.76 79.68 266.19"/><polygon class="cls-11" points="79.68 266.19 88.8 258.87 101.68 258.16 118.14 263.67 117.13 271.97 108.39 271.56 101.37 269.25 97.65 267.19 92.23 269.44 85.55 269.05 81.37 267.76 79.68 266.19"/><polygon class="cls-14" points="103.96 258.92 100.23 268.62 97.65 267.19 93.91 268.74 99.38 258.28 101.68 258.16 103.96 258.92"/><path class="cls-7" d="M196,410.68s11,6.39,18.91.69c0,0,11.37,7.44,19.33,3.79l-.78-1.75s-4.33,3.62-18.59-4a17.89,17.89,0,0,1-18.08,0Z" transform="translate(-117.1 -143.19)"/><path class="cls-22" d="M196,410.68s11,6.39,18.91.69c0,0,11.37,7.44,19.33,3.79l-.78-1.75s-4.33,3.62-18.59-4a17.89,17.89,0,0,1-18.08,0Z" transform="translate(-117.1 -143.19)"/><path class="cls-7" d="M303.58,387.22l40.34,1.71s-.73-4.94-1.25-5.07-7.15-5.84-14.88-3.13c-1.69.59-2.91,1-3.78,1.36-.84-.4-2-.95-3.66-1.68-7.47-3.36-14.56,1.77-15.1,1.85S303.58,387.22,303.58,387.22Z" transform="translate(-117.1 -143.19)"/><path class="cls-25" d="M303.58,387.22l40.34,1.71,0-.12c-.12-.76-.76-4.83-1.24-5l-.09,0c-.94-.51-7.35-5.7-14.78-3.08-1.69.59-2.91,1-3.78,1.36-.85-.4-2-.95-3.66-1.68-7.48-3.36-14.56,1.76-15.1,1.85S303.58,387.22,303.58,387.22Z" transform="translate(-117.1 -143.19)"/><path class="cls-7" d="M299,387l40.83,1.73s-.73-5-1.27-5.13-7.27-5.16-15.09-2.41c-1.71.6-3.9,3.1-3.9,3.1s-2-2.68-3.63-3.42c-7.56-3.4-14.7,1-15.25,1.13S299,387,299,387Z" transform="translate(-117.1 -143.19)"/><path class="cls-22" d="M299,387l40.83,1.73s-.73-5-1.27-5.13-7.27-5.16-15.09-2.41c-1.71.6-3.9,3.1-3.9,3.1s-2-2.68-3.63-3.42c-7.56-3.4-14.7,1-15.25,1.13S299,387,299,387Z" transform="translate(-117.1 -143.19)"/><polygon class="cls-7" points="202.2 242.47 203.4 244.88 200.33 244.75 202.2 242.47"/><g class="cls-26"><polygon points="202.2 242.47 203.4 244.88 200.33 244.75 202.2 242.47"/></g><path class="cls-11" d="M338.58,383.65a9.08,9.08,0,0,1,.58,1.78c.32,1.51.64,3.33.64,3.33l4.12.17,0-.12c-.12-.76-.76-4.83-1.24-5l-.09,0Z" transform="translate(-117.1 -143.19)"/><path class="cls-20" d="M297.35,388.47l20,1.31,0,0a2.24,2.24,0,0,1,3,.13l0,0,20.63.6,5.21.16-.31-1.8L320.5,387.8a2.24,2.24,0,0,0-3.07-.13l-19.51-.86Z" transform="translate(-117.1 -143.19)"/><g class="cls-26"><polygon points="223.62 245.46 223.95 247.32 229.16 247.48 228.84 245.69 223.62 245.46"/></g><path class="cls-7" d="M317.57,384.5s-3-3.74-6.82-3.24C310.75,381.26,313.43,381,317.57,384.5Z" transform="translate(-117.1 -143.19)"/><path class="cls-27" d="M317.57,384.5s-3-3.74-6.82-3.24C310.75,381.26,313.43,381,317.57,384.5Z" transform="translate(-117.1 -143.19)"/><path class="cls-7" d="M325,386.47s4.3-2.11,7.55,0C332.53,386.46,330.2,385.11,325,386.47Z" transform="translate(-117.1 -143.19)"/><path class="cls-27" d="M325,386.47s4.3-2.11,7.55,0C332.53,386.46,330.2,385.11,325,386.47Z" transform="translate(-117.1 -143.19)"/><path class="cls-7" d="M321.06,385.07s3.5-3.26,7.23-2.19C328.29,382.87,325.66,382.26,321.06,385.07Z" transform="translate(-117.1 -143.19)"/><path class="cls-27" d="M321.06,385.07s3.5-3.26,7.23-2.19C328.29,382.87,325.66,382.26,321.06,385.07Z" transform="translate(-117.1 -143.19)"/><path class="cls-7" d="M312.57,384.23s-4.09-2.48-7.52-.69C305,383.54,307.49,382.41,312.57,384.23Z" transform="translate(-117.1 -143.19)"/><path class="cls-27" d="M312.57,384.23s-4.09-2.48-7.52-.69C305,383.54,307.49,382.41,312.57,384.23Z" transform="translate(-117.1 -143.19)"/></g><g id="Globe"><path class="cls-7" d="M365.38,383.66a20.77,20.77,0,0,1-4,.39,20.42,20.42,0,0,1-14.55-6l-.59.6a21.26,21.26,0,0,0,15.15,6.22,21.63,21.63,0,0,0,4.19-.42,1,1,0,0,1-.24-.66A1.21,1.21,0,0,1,365.38,383.66Z" transform="translate(-117.1 -143.19)"/><rect class="cls-7" x="363.81" y="383.03" width="4.06" height="11.75" transform="translate(-118.18 -142.17) rotate(-0.16)"/><g class="cls-14"><rect x="363.81" y="383.03" width="4.06" height="11.75" transform="translate(-118.18 -142.17) rotate(-0.16)"/></g><path class="cls-7" d="M353.49,399.62c0-3.07,5.52-5.57,12.34-5.59s12.36,2.45,12.37,5.52h0a46.29,46.29,0,0,1-24.4.15Z" transform="translate(-117.1 -143.19)"/><rect class="cls-7" x="341.75" y="364.11" width="41.85" height="0.84" transform="translate(-268.63 223.27) rotate(-45.36)"/><path class="cls-7" d="M382.74,363.43a21.26,21.26,0,0,0-6.31-15.11l-.59.6a20.56,20.56,0,0,1-10.46,34.74,1.21,1.21,0,0,0,0,.16,1,1,0,0,0,.24.66,21.41,21.41,0,0,0,17.15-21Z" transform="translate(-117.1 -143.19)"/><circle class="cls-7" cx="362.83" cy="364.53" r="15.23" transform="translate(-268.53 229.15) rotate(-46)"/><path class="cls-7" d="M368.59,370.09l-.49-.48c3.51-3.63,6.36-10.27,5-15.93l.67-.16C375.18,359.42,372.23,366.32,368.59,370.09Z" transform="translate(-117.1 -143.19)"/><path class="cls-7" d="M352.54,375.52l.13-.67c5.71,1.14,12.24-1.94,15.75-5.57l.49.48C365.28,373.52,358.49,376.71,352.54,375.52Z" transform="translate(-117.1 -143.19)"/><path class="cls-7" d="M357.64,359.51l-.49-.48c3.64-3.77,10.43-7,16.37-5.77l-.13.67C367.68,352.79,361.14,355.87,357.64,359.51Z" transform="translate(-117.1 -143.19)"/><path class="cls-7" d="M352.28,375.26c-1.4-5.9,1.55-12.8,5.19-16.57l.49.48c-3.51,3.63-6.36,10.27-5,15.93Z" transform="translate(-117.1 -143.19)"/><rect class="cls-7" x="347.63" y="364.22" width="30.47" height="0.69" transform="translate(-268.54 229.19) rotate(-46)"/><rect class="cls-7" x="368.16" y="345.83" width="0.69" height="25.79" transform="translate(-262.62 231.45) rotate(-46)"/><rect class="cls-7" x="362.35" y="349.52" width="0.69" height="30.45" transform="translate(-268.73 229.11) rotate(-46)"/><rect class="cls-7" x="356.53" y="358.21" width="0.69" height="25.11" transform="translate(-274.83 226.76) rotate(-46)"/><g class="cls-14"><path d="M368.59,370.09l-.49-.48c3.51-3.63,6.36-10.27,5-15.93l.67-.16C375.18,359.42,372.23,366.32,368.59,370.09Z" transform="translate(-117.1 -143.19)"/><path d="M352.54,375.52l.13-.67c5.71,1.14,12.24-1.94,15.75-5.57l.49.48C365.28,373.52,358.49,376.71,352.54,375.52Z" transform="translate(-117.1 -143.19)"/><path d="M357.64,359.51l-.49-.48c3.64-3.77,10.43-7,16.37-5.77l-.13.67C367.68,352.79,361.14,355.87,357.64,359.51Z" transform="translate(-117.1 -143.19)"/><path d="M352.28,375.26c-1.4-5.9,1.55-12.8,5.19-16.57l.49.48c-3.51,3.63-6.36,10.27-5,15.93Z" transform="translate(-117.1 -143.19)"/><rect x="347.63" y="364.22" width="30.47" height="0.69" transform="translate(-268.54 229.19) rotate(-46)"/><rect x="368.16" y="345.83" width="0.69" height="25.79" transform="translate(-262.62 231.45) rotate(-46)"/><rect x="362.35" y="349.52" width="0.69" height="30.45" transform="translate(-268.73 229.11) rotate(-46)"/><rect x="356.53" y="358.21" width="0.69" height="25.11" transform="translate(-274.83 226.76) rotate(-46)"/></g></g></svg>