<svg id="Layer_1" data-name="Layer 1" xmlns="http://www.w3.org/2000/svg" viewBox="0 0 1181.18 424.56"><defs><style>.cls-1{fill:#fff;}.cls-2{fill:#e8f2fa;}.cls-3,.cls-4,.cls-5{fill:#73b3ff;}.cls-3{opacity:0.2;}.cls-4{opacity:0.4;}.cls-6{fill:#a8ccff;}.cls-7{fill:#b4e3a1;}.cls-12,.cls-8{fill:#f6fbff;}.cls-8{opacity:0.8;}.cls-9{fill:#d3ee80;}.cls-10{fill:#aa6d44;}.cls-11{fill:#dfa680;}.cls-13{fill:#2b9d62;}.cls-14{fill:#73b471;}.cls-15{fill:#ff912b;}.cls-16{fill:#ba5400;}.cls-17{fill:#0b3563;}.cls-18{fill:#0d458e;}.cls-19{fill:#fc7600;}.cls-20{fill:#ffae73;}.cls-21{fill:#ffa05e;}.cls-22{fill:#19589f;}.cls-23{fill:#f3c39c;}.cls-24{fill:#fddbba;}</style></defs><title>freepik-9800</title><rect class="cls-1" y="0.87" width="1181.18" height="423.69"/><path class="cls-2" d="M1321.21,707.13a51.83,51.83,0,0,1-51.2,43.73l-146.87-.07-128.69-.06H928.7l-36.63,0h-6.46l-29.88,0h-8.12l-51.49,0h-9l-39.78,0h-8.48l-61.34,0a53.51,53.51,0,0,1-47.17-28.26c-4-7.44-8.26-16.15-12.41-25.88a288.64,288.64,0,0,1-17.11-53.6,222.67,222.67,0,0,1-4.93-50.12q.09-4.69.41-9.43.28-4.11.75-8.24a179.37,179.37,0,0,1,5.08-26.8,174.88,174.88,0,0,1,12.44-32.64,189.84,189.84,0,0,1,25.37-38.11,225.13,225.13,0,0,1,19.18-19.89C786.05,340.89,909.18,390,926.77,390c84.8,0,64.31-53.53,158.22-61.72C1283.59,311,1254,493.91,1254,493.92s-2.93,10.06-3.84,13.81q-1.83,7.55-2.84,14.31c-.05.34-.1.69-.15,1q-.28,2-.49,3.86a100.59,100.59,0,0,0,0,24.23,73.89,73.89,0,0,0,12.81,33.35,124,124,0,0,0,14.38,16.92q2.19,2.22,4.45,4.39c1.94,1.87,3.9,3.73,5.85,5.59,2.61,2.48,5.23,5,7.8,7.52l1.64,1.64q1.41,1.42,2.78,2.86A123.7,123.7,0,0,1,1307.06,636c.72,1,1.41,2,2.09,3q1.19,1.78,2.31,3.63a78.31,78.31,0,0,1,6.19,12.7C1322.73,668.75,1324.68,685.29,1321.21,707.13Z" transform="translate(-369 -327.13)"/><path class="cls-3" d="M964.2,640.12l-53.13,31.6L692.35,638.9l-96.44-46.16q.09-4.69.41-9.43.28-4.11.75-8.24a179.37,179.37,0,0,1,5.08-26.8,174.88,174.88,0,0,1,12.44-32.64s65-27,77.77-18.87,49.35,57.45,65.8,55,28.63-24.15,50.57,7.12,34.12,42.41,54.22,30.44,30.46-29,47.52-18.67S964.2,640.12,964.2,640.12Z" transform="translate(-369 -327.13)"/><path class="cls-4" d="M1273.87,601.44c-48.24,16.2-201.46,66.94-237.58,70-43,3.66-49.07-31.94-49.07-31.94s48.13-69.45,54.22-68.24,22.72,28.51,29.11,23.94,33.18-97.47,43.41-98.45c9.6-.91,23.64,21.14,27.62,17.49,2.21-2,12.2-22.9,22.49-41,8.22-14.47,16.64-27.18,21.45-27.16s11.43,10.49,18.38,23.77h0c11.73,22.41,24.48,52.8,31.55,54.46,3.49.82,7.57-.45,11.9-2.26-.05.34-.1.69-.15,1q-.28,2-.49,3.86a100.59,100.59,0,0,0,0,24.23,73.89,73.89,0,0,0,12.81,33.35A124,124,0,0,0,1273.87,601.44Z" transform="translate(-369 -327.13)"/><path class="cls-4" d="M1036.29,640.8s17.36-31.43,20.1-26.4,10.51,7.52,14.16,2.16,48.08-53.49,49.17-41.53-17.19,41.69-9.87,43,47.52-38.86,61.68-30.63,30.16-6.85,45.23-6.4,14.63,35.23,14.63,35.23l-122,37.42-57.57,2.74-27.42-3.2Z" transform="translate(-369 -327.13)"/><path class="cls-5" d="M1284.18,611.42s-198.29,41.32-219,40.19c0,0,14.63-14.54,32.91-15.15s26.2-17.86,47.52-19.9,34.12,2.53,43-2,18.89-26.81,39.6-26.2c17.77.52,24.55.15,31.32-3.81,5.41,7.88,12,14.7,18.82,21.31C1280.26,607.7,1282.22,609.56,1284.18,611.42Z" transform="translate(-369 -327.13)"/><path class="cls-6" d="M888.42,633.18l-292.1-49.85v0q.28-4.11.75-8.24a179.37,179.37,0,0,1,5.08-26.8s31.15-6.27,46.23,0S662.08,564.6,674,566s22.65.23,31.59,7.34a54.48,54.48,0,0,0,35.95,11.37c13.61-.81,42.65-4.06,54,5.08s33.91,29,53.41,28.74,30.31,4.88,33.51,9.44S888.25,633.14,888.42,633.18Z" transform="translate(-369 -327.13)"/><path class="cls-7" d="M1322.87,690.87a138.8,138.8,0,0,1-1.65,16.26,51.83,51.83,0,0,1-51.2,43.73l-146.87-.07-128.69-.06H928.7l-36.63,0h-6.46l-29.88,0h-8.12l-51.49,0h-9l-42,0h-6.21l-61.34,0a53.51,53.51,0,0,1-47.17-28.26C620,703,607.59,675.06,600.83,642.86c-1.37-6.52-2.5-13.2-3.34-20A210,210,0,0,1,596,588.23q.28-6.54,1-13.17c28.76-.39,104.72,1.84,195.13,30.58C907.72,642.37,1014.29,666,1092,646.77c64.62-16,144.87-35.73,192.2-35.35,2.61,2.48,5.23,5,7.8,7.52l1.64,1.64q1.41,1.42,2.78,2.86A123.7,123.7,0,0,1,1307.06,636c.72,1,1.41,2,2.09,3q1.19,1.78,2.31,3.63a78.31,78.31,0,0,1,6.19,12.7C1321.38,665.2,1323.43,676.76,1322.87,690.87Z" transform="translate(-369 -327.13)"/><path class="cls-8" d="M941.22,457.3s8.93-16.44,30.27-14.61c0,0,31-27.39,64-3.65,0,0,35.12-5.88,61.14,5.09,17.34,7.32,23.07,15,23.07,15Z" transform="translate(-369 -327.13)"/><path class="cls-8" d="M822.23,495.47s7.56-11.56,25.64-10.28c0,0,26.25-19.27,54.24-2.57,0,0,29.75-4.14,51.79,3.58,14.69,5.15,19.54,10.55,19.54,10.55Z" transform="translate(-369 -327.13)"/><path class="cls-8" d="M728.43,443s5.38-11.56,18.26-10.28c0,0,18.69-19.27,38.63-2.57,0,0,21.19-4.14,36.88,3.58,10.46,5.15,13.92,10.55,13.92,10.55Z" transform="translate(-369 -327.13)"/><path class="cls-9" d="M909.1,646.1s-113.39-12.88-159.29-29.54-49.23-11.76-38.12-2.94,75.19,29.67,48.63,32S686,641.07,668,659.5s-46.3,35,0,38.57,181.52-21.82,181.52-21.82Z" transform="translate(-369 -327.13)"/><path class="cls-10" d="M1034.14,626.1s16.45,39.6,18.28,40.82,8.55,2.76,9,4.59,11,26,11,26l-40.21,7.77-32-18.73Z" transform="translate(-369 -327.13)"/><path class="cls-11" d="M1270,750.86l-121.32-.05h-25.55l-128.69-.06H928.7l-36.63,0h-6.46l-29.88,0h-8.12l-51.49,0h-9l-42,0h-6.21l-61.34,0a53.52,53.52,0,0,1-22.33-4.88c32.81-15.28,132.74-61,212-89.14,96.26-34.12,151.1-52.4,166.94-30.46s-42,68.24-10.36,69.46,107.84-8.53,136.47-3,25.6,16.41,33.46,17.06h0c7.92.61,68.85-3.66,76.16,7.31S1270,750.86,1270,750.86Z" transform="translate(-369 -327.13)"/><path class="cls-8" d="M1203.91,469.84h0s-10.56-8.24-13-10.72-5.48,3.5-7.31,6.06-2-5.4-2-7.84-17.49,15.9-17.49,15.9h0c8.22-14.47,16.64-27.18,21.45-27.16S1197,456.56,1203.91,469.84Z" transform="translate(-369 -327.13)"/><path class="cls-12" d="M1098.21,525.13s12.48-33.06,19-32,15.38,16,15.38,16-9-7.74-10.71-5.15-2,7.7-4.87,5.15-4.72-2.93-6.24,0S1098.21,525.13,1098.21,525.13Z" transform="translate(-369 -327.13)"/><path class="cls-13" d="M777.34,714.44c-7.92,9.75-56.66,12.79-55.14,19.8,1.22,5.61,23.75,9.66,25.14,16.38h-8.48l-61.34,0a53.51,53.51,0,0,1-47.17-28.26c-4-7.44-8.26-16.15-12.41-25.88,0,0,20.78-20.94,72-12.75s58.27-13.05,82.25-6.43,30.16,1,39,6.43-33.51,14.59-38.08,18.85S785.26,704.7,777.34,714.44Z" transform="translate(-369 -327.13)"/><path class="cls-13" d="M644.61,685.88s-10.46-25-.57-30.49-1.11,21.49,3.12,31.49C649.25,691.83,644.61,685.88,644.61,685.88Z" transform="translate(-369 -327.13)"/><path class="cls-13" d="M639.79,692s-12.89-15.82-6.88-22,3.76,15.83,8.94,22.14C644.42,695.3,639.79,692,639.79,692Z" transform="translate(-369 -327.13)"/><path class="cls-13" d="M649.28,690.58s-1.22-24.85,9.13-26.55-7.75,18.26-7.22,28.19C651.45,697.15,649.28,690.58,649.28,690.58Z" transform="translate(-369 -327.13)"/><path class="cls-14" d="M685.42,715.65s-1.42-15,4-16.28-1.2,15.61-1.2,15.61Z" transform="translate(-369 -327.13)"/><path class="cls-14" d="M689.48,716s5.83-11.79,11.06-10.15-8.35,11-8.35,11Z" transform="translate(-369 -327.13)"/><path class="cls-14" d="M678.23,716.48s5.89-3.25,11-2.44,5.89,1.62,8.12,2.44,5,2.44,3.76,3.15-11.37-.61-13.81,0S672.08,718.7,678.23,716.48Z" transform="translate(-369 -327.13)"/><path class="cls-14" d="M793.65,736.8S800.49,705,810,712.43,799.23,727.24,793.65,736.8Z" transform="translate(-369 -327.13)"/><path class="cls-14" d="M790.86,738.55s-3.12-23.13,3.19-24.26S790.94,731.55,790.86,738.55Z" transform="translate(-369 -327.13)"/><path class="cls-14" d="M784.42,736.72s5.46-2.65,9.43-2.4,14.66,1.51,13.68,3.62-11.68.29-14.38.63S781.49,738.72,784.42,736.72Z" transform="translate(-369 -327.13)"/><path class="cls-13" d="M1153.14,714.27s-.2-11,4.87-12.9S1153.65,711.42,1153.14,714.27Z" transform="translate(-369 -327.13)"/><path class="cls-13" d="M1157.22,712.7s3.88-13.87,11-14.39S1158.93,709.32,1157.22,712.7Z" transform="translate(-369 -327.13)"/><path class="cls-13" d="M682,665.26c2,.83,9.34.16,9.58-.42s-4.54-6.14-6.58-7a4,4,0,0,0-3,7.4Z" transform="translate(-369 -327.13)"/><path class="cls-13" d="M700.42,668.74c-1.15,1.88-1.66,9.19-1.13,9.52s6.8-3.49,7.94-5.37a4,4,0,1,0-6.82-4.15Z" transform="translate(-369 -327.13)"/><path class="cls-13" d="M690.58,683c2.1.67,9.33-.55,9.52-1.15s-5-5.78-7.09-6.45a4,4,0,1,0-2.43,7.6Z" transform="translate(-369 -327.13)"/><path class="cls-13" d="M701.21,690.12c0-.17-.81-16.71-9.87-25.25l.19-.2c9.14,8.62,10,25.28,10,25.45Z" transform="translate(-369 -327.13)"/><path class="cls-13" d="M759.12,651.64c-2,1.32-9.85,2.18-10.23,1.62s3.48-7.48,5.46-8.8a4.31,4.31,0,0,1,4.77,7.18Z" transform="translate(-369 -327.13)"/><path class="cls-13" d="M740.39,659.3c1.62,1.74,3.74,9.37,3.25,9.83s-7.94-2.22-9.56-4a4.31,4.31,0,1,1,6.32-5.87Z" transform="translate(-369 -327.13)"/><path class="cls-13" d="M753.88,672.32c-2.08,1.16-10,1.43-10.32.83s4-7.2,6.11-8.36a4.31,4.31,0,0,1,4.21,7.52Z" transform="translate(-369 -327.13)"/><path class="cls-13" d="M744.16,682.1c0-.18-2.74-17.86,5-28.86l-.25-.17c-7.82,11.1-5.08,28.9-5.05,29.08Z" transform="translate(-369 -327.13)"/><path class="cls-13" d="M719.93,691.54l-.58-.09c-2.29-29.62-11.33-50.87-11.46-51.16l.53-.23C708.55,640.35,717.66,661.74,719.93,691.54Z" transform="translate(-369 -327.13)"/><path class="cls-1" d="M701.76,637.3c1.12,1.26,6.34,3.3,6.7,3s-1-5.75-2.12-7a3.05,3.05,0,1,0-4.58,4Z" transform="translate(-369 -327.13)"/><path class="cls-1" d="M709.76,632.9c-1,1.35-1.92,6.88-1.54,7.17s5.42-2.17,6.43-3.52a3.05,3.05,0,0,0-4.89-3.65Z" transform="translate(-369 -327.13)"/><path class="cls-1" d="M715.77,638.78c-1.63-.44-7.11.73-7.23,1.19s4,4.25,5.63,4.7a3.05,3.05,0,0,0,1.6-5.89Z" transform="translate(-369 -327.13)"/><path class="cls-1" d="M712.06,646.11c-.16-1.68-3.2-6.39-3.68-6.34s-2.56,5.25-2.4,6.93a3.05,3.05,0,1,0,6.08-.59Z" transform="translate(-369 -327.13)"/><path class="cls-1" d="M703.75,645.75c1.49-.78,4.71-5.37,4.48-5.8s-5.83-.39-7.32.4a3.05,3.05,0,0,0,2.84,5.4Z" transform="translate(-369 -327.13)"/><circle class="cls-15" cx="708.23" cy="639.95" r="1.01" transform="matrix(0.16, -0.99, 0.99, 0.16, -404.17, 911.56)"/><path class="cls-13" d="M719.77,661.26c-1.66,2-3.45,10.59-2.87,11.07s8.59-3,10.25-5.06a4.76,4.76,0,0,0-7.39-6Z" transform="translate(-369 -327.13)"/><path class="cls-13" d="M773.14,693.49l.58-.09c2.29-29.62,11.33-50.87,11.46-51.16l-.53-.23C784.53,642.3,775.42,663.69,773.14,693.49Z" transform="translate(-369 -327.13)"/><path class="cls-1" d="M791.32,639.25c-1.12,1.26-6.34,3.3-6.7,3s1-5.75,2.12-7a3.05,3.05,0,1,1,4.58,4Z" transform="translate(-369 -327.13)"/><path class="cls-1" d="M783.32,634.85c1,1.35,1.92,6.88,1.54,7.17s-5.42-2.17-6.43-3.52a3.05,3.05,0,0,1,4.89-3.65Z" transform="translate(-369 -327.13)"/><path class="cls-1" d="M777.31,640.73c1.63-.44,7.11.73,7.23,1.19s-4,4.25-5.63,4.7a3.05,3.05,0,0,1-1.6-5.89Z" transform="translate(-369 -327.13)"/><path class="cls-1" d="M781,648.06c.16-1.68,3.2-6.39,3.68-6.34s2.56,5.25,2.4,6.93a3.05,3.05,0,0,1-6.08-.59Z" transform="translate(-369 -327.13)"/><path class="cls-1" d="M789.33,647.7c-1.49-.78-4.71-5.37-4.48-5.8s5.83-.39,7.32.4a3.05,3.05,0,0,1-2.84,5.4Z" transform="translate(-369 -327.13)"/><circle class="cls-15" cx="784.84" cy="641.9" r="1" transform="translate(-460.21 -195.66) rotate(-9.05)"/><path class="cls-13" d="M773.31,663.21c1.66,2,3.45,10.59,2.87,11.07s-8.59-3-10.25-5.06a4.76,4.76,0,0,1,7.38-6Z" transform="translate(-369 -327.13)"/><path class="cls-13" d="M1106.16,684.42c2.68,1.18,12.38.59,12.72-.18s-5.77-8.33-8.44-9.51a5.29,5.29,0,0,0-4.27,9.69Z" transform="translate(-369 -327.13)"/><path class="cls-13" d="M1130.43,689.79c-1.6,2.45-2.58,12.12-1.88,12.58s9.15-4.35,10.75-6.79a5.29,5.29,0,0,0-8.87-5.78Z" transform="translate(-369 -327.13)"/><path class="cls-13" d="M1116.81,708.36c2.76,1,12.39-.36,12.67-1.14s-6.38-7.87-9.14-8.84a5.29,5.29,0,1,0-3.53,10Z" transform="translate(-369 -327.13)"/><path class="cls-13" d="M1130.62,718.17c0-.22-.4-22.19-12.07-33.89l.26-.26c11.77,11.8,12.18,33.92,12.18,34.15Z" transform="translate(-369 -327.13)"/><path class="cls-13" d="M1148.61,718.83l-.51-.08c-2-25.92-9.92-44.52-10-44.78l.46-.2C1138.64,674,1146.61,692.75,1148.61,718.83Z" transform="translate(-369 -327.13)"/><path class="cls-1" d="M1132.7,671.36c1,1.11,5.55,2.88,5.86,2.61s-.88-5-1.86-6.14a2.67,2.67,0,1,0-4,3.53Z" transform="translate(-369 -327.13)"/><path class="cls-1" d="M1139.7,667.51c-.88,1.18-1.68,6-1.34,6.27s4.75-1.9,5.63-3.08a2.67,2.67,0,1,0-4.28-3.19Z" transform="translate(-369 -327.13)"/><path class="cls-1" d="M1145,672.65c-1.42-.39-6.22.64-6.33,1s3.5,3.72,4.93,4.11a2.67,2.67,0,1,0,1.4-5.15Z" transform="translate(-369 -327.13)"/><path class="cls-1" d="M1141.72,679.07c-.14-1.47-2.8-5.59-3.22-5.55s-2.24,4.6-2.1,6.06a2.67,2.67,0,0,0,5.32-.51Z" transform="translate(-369 -327.13)"/><path class="cls-1" d="M1134.44,678.75c1.31-.69,4.12-4.7,3.92-5.08s-5.1-.34-6.41.35a2.67,2.67,0,1,0,2.48,4.73Z" transform="translate(-369 -327.13)"/><circle class="cls-15" cx="1138.37" cy="673.68" r="0.88" transform="matrix(0.16, -0.99, 0.99, 0.16, -74.94, 1364.81)"/><path class="cls-13" d="M1148.46,692.33c-1.45,1.78-3,9.27-2.51,9.69s7.52-2.65,9-4.43a4.17,4.17,0,0,0-6.46-5.26Z" transform="translate(-369 -327.13)"/><path class="cls-13" d="M1270,750.86l-121.32-.05c.61-5.78,11.59-8.7,10.58-14.41-1.31-7.31-55.35-10.05-33.66-19.38,21.3-9.16,66.49-7.51,68.11-7.45h0c7.92.61,68.85-3.66,76.16,7.31S1270,750.86,1270,750.86Z" transform="translate(-369 -327.13)"/><path class="cls-16" d="M910.35,684.43s.75,11.63,3,11.79c.3,0,11.41,0,11.41,0l14.19-.11s-.1-3.42-4.25-4.13-11.1-3.61-13.62-9.09C918.42,677.12,910.35,684.43,910.35,684.43Z" transform="translate(-369 -327.13)"/><path class="cls-16" d="M982.55,674.57S984.71,686,987,685.91c.3,0,11.33-1.4,11.33-1.4l14.07-1.85s-.52-3.38-4.72-3.58-11.46-2.23-14.63-7.35C989.66,666.33,982.55,674.57,982.55,674.57Z" transform="translate(-369 -327.13)"/><path class="cls-17" d="M957.39,559.32s-3.66,23.74-17.41,65.9-15.6,60.41-15.6,60.41l-14.85-.38s-.23-46,6.11-67.24,1.21-76.38,1.21-76.38Z" transform="translate(-369 -327.13)"/><path class="cls-18" d="M961.42,537.77s20.22,40.83,25.36,73.15S996,672.81,996,672.81s-5,1.83-14.28,2.63c0,0-15.75-46.93-17.43-58.61s-48.62-58.41-45-69.94S961.42,537.77,961.42,537.77Z" transform="translate(-369 -327.13)"/><path class="cls-19" d="M932.12,459s-20.88,20-21.88,28.3,10.13,21.13,10.13,21.13Z" transform="translate(-369 -327.13)"/><path class="cls-20" d="M935.71,459.19l7.91,5.16L955,462.2c-.16-.92-.92-4.74-1.62-8.19l-.12-.61-1.11-5.47-10.67-4.68-4-1.74c0,.06.32,3.27.36,3.73A27.17,27.17,0,0,1,935.71,459.19Z" transform="translate(-369 -327.13)"/><path class="cls-19" d="M952.09,456.55c-.22-.09-13.75-4.05-15.22-3.57s-2.33,3.33-2.33,3.33l22.13,5S954.91,457.73,952.09,456.55Z" transform="translate(-369 -327.13)"/><path class="cls-15" d="M915.88,547.34c2.31,10.45,40.46,11.61,50.27,2.1,1.12-1.08,1.16-6.12.72-12.9-.85-13.26-3.55-33.19-3.67-43.38a80.7,80.7,0,0,0-1.66-14.52,117.94,117.94,0,0,0-4.88-17.37s-18.64-6-22.13-5C917.75,461.28,913.56,536.89,915.88,547.34Z" transform="translate(-369 -327.13)"/><path class="cls-19" d="M966.87,536.54c-.85-13.26-1.32-35.14-1.44-45.33-.06-4.92-3-8-3.89-12.57l-11.21-2S939.47,521.46,966.87,536.54Z" transform="translate(-369 -327.13)"/><path class="cls-17" d="M946.75,520.85s12.7-11.09,17.45-18.11l3.59,2.42s-10,16.75-19.58,21.17S946.75,520.85,946.75,520.85Z" transform="translate(-369 -327.13)"/><path class="cls-21" d="M938.69,445.39c2.35,4,11.08,7.37,14.72,8.62l-.12-.61-1.11-5.47-10.67-4.68C939.15,443.23,937.72,443.76,938.69,445.39Z" transform="translate(-369 -327.13)"/><path class="cls-20" d="M955.8,446.79s-16.19,7.82-20.91-2.34-10-16,.16-21.42,14-2.49,16.36.52S959.89,444.49,955.8,446.79Z" transform="translate(-369 -327.13)"/><path class="cls-17" d="M950.59,422.63s.76,12.53-1.88,12.37-5-.21-4.09,3.46,5.12,7.45-2.67,9.28-22.14-16.81-20.54-21C926,414.73,957.6,407.74,950.59,422.63Z" transform="translate(-369 -327.13)"/><path class="cls-17" d="M924.51,502.84a2.42,2.42,0,0,0-2.11,2.06c-.18,1.82-1.4,24-.29,24.59s5.72.35,6,0,1.27-24.69.59-26.16A8.79,8.79,0,0,0,924.51,502.84Z" transform="translate(-369 -327.13)"/><path class="cls-20" d="M967,528.14s2.67,2,3.24,4.14c.91,3.49.33,6.75-3.09,8.06-1.26.48-1.43-2.51-2.37-3.8s-4.27-2-3.51-4l2.25-5.79Z" transform="translate(-369 -327.13)"/><path class="cls-20" d="M962.53,529.3s-2.12,2.33-2.33,3.82-.3,3.81-.35,4.8.45,1.8,1.36.19,1.7-3.75,2.32-3.74S962.53,529.3,962.53,529.3Z" transform="translate(-369 -327.13)"/><path class="cls-15" d="M947.88,458.62S961.15,461,971.4,476s14,24.64,12.17,30.07-11.2,22.26-13.09,24.53c-1.61,1.95-6.29,1.81-9.34.49,0,0,5.93-25,3.54-27.74-1-1.16-14.16-12.25-16.24-6.87C945,505.37,947.88,458.62,947.88,458.62Z" transform="translate(-369 -327.13)"/><path class="cls-17" d="M959.22,463.73a10.45,10.45,0,0,0-7.33-4.61c-5.16-.77-8.27,5.23-8.27,5.23l3.86,1.46s2.48-4.55,4.72-4.55A11,11,0,0,1,959.22,463.73Z" transform="translate(-369 -327.13)"/><path class="cls-17" d="M950.86,482.16s-5.37-.07-12.25-.23c-12.1-.28-28.88-.82-29.31-1.7-.67-1.38.22-16.73,4.36-17.84a9.72,9.72,0,0,1,1.52-.24c6.68-.64,27.1.57,31.81,2.09C952.15,465.89,950.86,482.16,950.86,482.16Z" transform="translate(-369 -327.13)"/><path class="cls-18" d="M938.61,481.92c-12.1-.28-28.88-.82-29.31-1.7-.67-1.38.22-16.73,4.36-17.84a9.72,9.72,0,0,1,1.52-.24c7.9.34,16.66,1.16,19.54,2.09C939.52,465.78,938.75,479.93,938.61,481.92Z" transform="translate(-369 -327.13)"/><path class="cls-18" d="M950.86,482.16s-41.45-4.12-48.62-1.72-7.18,51.3-4.93,54.66,43,6.49,48.73,4.7S950.86,482.16,950.86,482.16Z" transform="translate(-369 -327.13)"/><path class="cls-17" d="M938.62,481.08s-5.68.52-6.2,4.55-4.1,53.2-.85,54.5,16.76.77,17.55,0,3.71-54.72,1.74-58C950.86,482.16,944.27,480.22,938.62,481.08Z" transform="translate(-369 -327.13)"/><path class="cls-17" d="M912.92,467.68s-1.32,6.82.38,7.86,5.85,1.33,6.88.12.81-7.84.81-7.84Z" transform="translate(-369 -327.13)"/><path class="cls-22" d="M912.92,467.68a3.78,3.78,0,0,0,3.81,2.81,4.45,4.45,0,0,0,4.26-2.68S916.61,465.83,912.92,467.68Z" transform="translate(-369 -327.13)"/><circle class="cls-15" cx="916.75" cy="469.43" r="0.6" transform="translate(62.67 1050.87) rotate(-89.02)"/><path class="cls-17" d="M925.13,468.51s-1.76,6.72-.12,7.87,5.75,1.71,6.86.56,1.31-7.77,1.31-7.77Z" transform="translate(-369 -327.13)"/><path class="cls-22" d="M925.13,468.51a3.78,3.78,0,0,0,3.62,3.05,4.45,4.45,0,0,0,4.42-2.4S928.92,466.9,925.13,468.51Z" transform="translate(-369 -327.13)"/><circle class="cls-15" cx="928.84" cy="470.5" r="0.6" transform="translate(15.54 1030.98) rotate(-85.35)"/><path class="cls-17" d="M901.45,486.19s-1.79,6.34-.79,8,23.78,2.78,25.24,1.43,1.68-8.64,1.68-8.64Z" transform="translate(-369 -327.13)"/><path class="cls-22" d="M901.45,486.19s3.11,3.93,11,4A39.68,39.68,0,0,0,927.59,487S909.19,483.73,901.45,486.19Z" transform="translate(-369 -327.13)"/><circle class="cls-15" cx="542.88" cy="161.62" r="0.67"/><path class="cls-22" d="M921.35,502.58s-18.8-.8-19.9,0-1.51,26.71-.67,28,19.85,1.85,19.85,1.85Z" transform="translate(-369 -327.13)"/><path class="cls-9" d="M1322.87,690.87c-11.52-.56-28.87-1.45-43.81-2.42-25-1.63-14-9.34-2.44-20.31s-35.95-4.87-71.28-2.42-88.34,1.21-69.46-14.08,156.1-32.7,156.1-32.7l1.64,1.64q1.41,1.42,2.78,2.86A123.7,123.7,0,0,1,1307.06,636c.72,1,1.41,2,2.09,3q1.19,1.78,2.31,3.63a78.31,78.31,0,0,1,6.19,12.7C1321.38,665.2,1323.43,676.76,1322.87,690.87Z" transform="translate(-369 -327.13)"/><path class="cls-14" d="M661.61,607.22c-11.61,0-30.37.61-24.64,4.26s10.6,9.14-8.9,9.75c-19.27.6-30.32,1.57-30.57,1.6A210,210,0,0,1,596,588.23s18.06-5.15,29,0,18.84,1,27.37,6.49,26.5,6.09,30.16,9.14S673.22,607.22,661.61,607.22Z" transform="translate(-369 -327.13)"/><path class="cls-23" d="M1110.09,732.5l.85-14.53s-7.31-6.08-8.36-6.5-16.83-2.83-16.83-2.83l.68,13.65,4.94,9.92Z" transform="translate(-369 -327.13)"/><path class="cls-24" d="M1074.15,732s-1-10.58-.48-11.74,10.45-12,12.09-11.65,10.71,3.72,12.3,5,5.28,11.29,5.22,12.33l-.38,6.41Z" transform="translate(-369 -327.13)"/><path class="cls-23" d="M1085.65,735.9l.11-6.24a3,3,0,0,0-1.21-2.49,56,56,0,0,0-5.1-3.59c-.49-.17-5.24-.75-8.73-1.15a3.05,3.05,0,0,0-3.39,3.31l.51,5.65a3.06,3.06,0,0,0,.37,1.2l2.73,5a3.05,3.05,0,0,0,2.75,1.58l9-.22A3.05,3.05,0,0,0,1085.65,735.9Z" transform="translate(-369 -327.13)"/><path class="cls-24" d="M1061.91,739.47a3.05,3.05,0,0,1-3.12-2.7c-.27-2.32-.57-5.32-.35-5.84.37-.87,9.91-8.62,11.12-8.42a26.66,26.66,0,0,1,6.62,2.8c1.21.9,4.22,8.15,4.21,8.92l0,1.81a3.05,3.05,0,0,1-3,3Z" transform="translate(-369 -327.13)"/><path class="cls-23" d="M834,698.33l-.1-5.27a2.58,2.58,0,0,1,1-2.11,47.31,47.31,0,0,1,4.31-3c.41-.15,4.43-.63,7.38-1a2.58,2.58,0,0,1,2.87,2.8l-.43,4.77a2.58,2.58,0,0,1-.31,1l-2.31,4.19A2.58,2.58,0,0,1,844.1,701l-7.6-.19A2.58,2.58,0,0,1,834,698.33Z" transform="translate(-369 -327.13)"/><path class="cls-24" d="M854.06,701.35a2.58,2.58,0,0,0,2.64-2.28,23.89,23.89,0,0,0,.3-4.94c-.31-.73-8.38-7.29-9.41-7.12a22.54,22.54,0,0,0-5.6,2.37c-1,.76-3.57,6.89-3.56,7.54l0,1.53A2.58,2.58,0,0,0,841,701Z" transform="translate(-369 -327.13)"/><path class="cls-23" d="M812.42,702.21l-.05-2.87a1.4,1.4,0,0,1,.56-1.15,25.68,25.68,0,0,1,2.34-1.65c.22-.08,2.41-.34,4-.53a1.4,1.4,0,0,1,1.56,1.52l-.24,2.6a1.4,1.4,0,0,1-.17.55L819.18,703a1.4,1.4,0,0,1-1.26.73l-4.13-.1A1.4,1.4,0,0,1,812.42,702.21Z" transform="translate(-369 -327.13)"/><path class="cls-24" d="M823.33,703.85a1.4,1.4,0,0,0,1.43-1.24,13,13,0,0,0,.16-2.69c-.17-.4-4.56-4-5.12-3.87a12.25,12.25,0,0,0-3,1.29,14.25,14.25,0,0,0-1.93,4.1l0,.83a1.4,1.4,0,0,0,1.36,1.38Z" transform="translate(-369 -327.13)"/><path class="cls-23" d="M1026.65,711.53l-.05-2.87a1.4,1.4,0,0,1,.56-1.15,25.7,25.7,0,0,1,2.34-1.65c.22-.08,2.41-.34,4-.53a1.4,1.4,0,0,1,1.56,1.52l-.24,2.6a1.41,1.41,0,0,1-.17.55l-1.26,2.28a1.4,1.4,0,0,1-1.26.73l-4.13-.1A1.4,1.4,0,0,1,1026.65,711.53Z" transform="translate(-369 -327.13)"/><path class="cls-24" d="M1037.56,713.17a1.4,1.4,0,0,0,1.43-1.24,13,13,0,0,0,.16-2.69c-.17-.4-4.55-4-5.12-3.87a12.26,12.26,0,0,0-3,1.29,14.25,14.25,0,0,0-1.93,4.1l0,.83a1.4,1.4,0,0,0,1.36,1.38Z" transform="translate(-369 -327.13)"/><path class="cls-23" d="M754.78,741.75l-.05-2.87a1.4,1.4,0,0,1,.56-1.15,25.75,25.75,0,0,1,2.34-1.65c.22-.08,2.41-.34,4-.53a1.4,1.4,0,0,1,1.56,1.52l-.24,2.6a1.41,1.41,0,0,1-.17.55l-1.26,2.28a1.4,1.4,0,0,1-1.26.73l-4.13-.1A1.4,1.4,0,0,1,754.78,741.75Z" transform="translate(-369 -327.13)"/><path class="cls-24" d="M765.7,743.39a1.4,1.4,0,0,0,1.43-1.24,13,13,0,0,0,.16-2.69c-.17-.4-4.56-4-5.12-3.87a12.26,12.26,0,0,0-3,1.29,14.25,14.25,0,0,0-1.93,4.1l0,.83a1.4,1.4,0,0,0,1.36,1.38Z" transform="translate(-369 -327.13)"/><path class="cls-23" d="M820.88,693.83l0-2a1,1,0,0,1,.39-.8,17.91,17.91,0,0,1,1.63-1.15c.16-.06,1.68-.24,2.8-.37a1,1,0,0,1,1.09,1.06l-.16,1.81a1,1,0,0,1-.12.38l-.87,1.59a1,1,0,0,1-.88.51l-2.88-.07A1,1,0,0,1,820.88,693.83Z" transform="translate(-369 -327.13)"/><path class="cls-24" d="M828.49,695a1,1,0,0,0,1-.86,9,9,0,0,0,.11-1.87c-.12-.28-3.17-2.76-3.56-2.7a8.54,8.54,0,0,0-2.12.9,9.93,9.93,0,0,0-1.35,2.86v.58a1,1,0,0,0,1,1Z" transform="translate(-369 -327.13)"/></svg>