<svg xmlns="http://www.w3.org/2000/svg" viewBox="0 0 500 376.78"><defs><style>.cls-1{fill:#ebebeb;}.cls-2{fill:#e0e0e0;}.cls-3{fill:#e6e6e6;}.cls-4{fill:#f5f5f5;}.cls-5{fill:#f0f0f0;}.cls-6{fill:#fafafa;}.cls-16,.cls-7{fill:#407bff;}.cls-8{opacity:0.7;}.cls-12,.cls-13,.cls-15,.cls-22,.cls-24,.cls-25,.cls-27,.cls-9{fill:#fff;}.cls-10,.cls-13{opacity:0.9;}.cls-11,.cls-12{opacity:0.1;}.cls-14,.cls-19{opacity:0.2;}.cls-15,.cls-23,.cls-25{opacity:0.6;}.cls-15,.cls-16,.cls-19,.cls-23{isolation:isolate;}.cls-17{fill:#ffc3bd;}.cls-18{opacity:0.5;}.cls-20{fill:#263238;}.cls-21{fill:#ed847e;}.cls-22{opacity:0.8;}.cls-24,.cls-26{opacity:0.3;}.cls-27{opacity:0.4;}</style></defs><title>freepik-4195197</title><g id="Background_Complete" data-name="Background Complete"><rect class="cls-1" x="416.78" y="343.54" width="33.12" height="0.25"/><rect class="cls-1" x="322.53" y="346.26" width="8.69" height="0.25"/><rect class="cls-1" x="396.59" y="334.26" width="19.19" height="0.25"/><rect class="cls-1" x="52.46" y="335.94" width="43.19" height="0.25"/><rect class="cls-1" x="104.56" y="335.94" width="6.33" height="0.25"/><rect class="cls-1" x="131.47" y="340.16" width="93.68" height="0.25"/><path class="cls-1" d="M237,337.8H43.92a5.71,5.71,0,0,1-5.71-5.71V60.66A5.71,5.71,0,0,1,43.92,55H237a5.71,5.71,0,0,1,5.71,5.71V332.09A5.71,5.71,0,0,1,237,337.8ZM43.92,55.2a5.46,5.46,0,0,0-5.46,5.46V332.09a5.46,5.46,0,0,0,5.46,5.46H237a5.46,5.46,0,0,0,5.46-5.46V60.66A5.46,5.46,0,0,0,237,55.2Z" transform="translate(0 -54.95)"/><path class="cls-1" d="M453.31,337.8H260.21a5.71,5.71,0,0,1-5.71-5.71V60.66A5.71,5.71,0,0,1,260.21,55h193.1A5.71,5.71,0,0,1,459,60.66V332.09A5.71,5.71,0,0,1,453.31,337.8ZM260.21,55.2a5.46,5.46,0,0,0-5.46,5.46V332.09a5.46,5.46,0,0,0,5.46,5.46h193.1a5.46,5.46,0,0,0,5.46-5.46V60.66a5.46,5.46,0,0,0-5.46-5.46Z" transform="translate(0 -54.95)"/><rect class="cls-1" y="327.45" width="500" height="0.25"/><rect class="cls-2" x="306.35" y="39.87" width="128.9" height="285.02"/><path class="cls-3" d="M435.25,92.32v290H459v-290Z" transform="translate(0 -54.95)"/><path class="cls-3" d="M283.75,92.32v290h23.75v-290Z" transform="translate(0 -54.95)"/><path class="cls-4" d="M279.71,92.32v290H438.1v-290Zm152.69,5v52h-147v-52Zm-147,166v-52h147v52Zm147,5v52h-147v-52Zm-147-62v-52h147v52Zm0,171v-52h147v52Z" transform="translate(0 -54.95)"/><rect class="cls-3" x="381.05" y="109.45" width="5.48" height="40.35" transform="translate(767.58 204.3) rotate(180)"/><rect class="cls-2" x="386.53" y="109.45" width="5.48" height="40.35" transform="translate(778.54 204.3) rotate(180)"/><rect class="cls-3" x="370.09" y="112.29" width="10.96" height="37.52" transform="translate(751.14 207.14) rotate(180)"/><rect class="cls-5" x="357.53" y="109.45" width="7.08" height="40.35" transform="translate(722.15 204.3) rotate(180)"/><rect class="cls-1" x="364.61" y="109.45" width="5.48" height="40.35" transform="translate(734.71 204.3) rotate(180)"/><rect class="cls-3" x="315.98" y="109.45" width="7.08" height="40.35" transform="translate(639.04 204.3) rotate(180)"/><rect class="cls-1" x="323.06" y="109.45" width="5.48" height="40.35" transform="translate(651.6 204.3) rotate(180)"/><rect class="cls-3" x="339.5" y="109.45" width="7.08" height="40.35" transform="translate(686.07 204.3) rotate(180)"/><rect class="cls-2" x="346.58" y="109.45" width="5.48" height="40.35" transform="translate(698.63 204.3) rotate(180)"/><rect class="cls-1" x="305.02" y="110.41" width="10.96" height="39.4" transform="translate(621 205.26) rotate(180)"/><rect class="cls-2" x="299.54" y="110.41" width="5.48" height="39.4" transform="translate(604.57 205.26) rotate(180)"/><rect class="cls-2" x="332.19" y="110.41" width="7.3" height="39.4" transform="translate(671.69 205.26) rotate(180)"/><rect class="cls-5" x="328.54" y="110.41" width="3.65" height="39.4" transform="translate(660.73 205.26) rotate(180)"/><rect class="cls-4" x="346.58" y="112.29" width="10.96" height="37.52" transform="translate(704.11 207.14) rotate(180)"/><rect class="cls-1" x="408.44" y="109.45" width="7.08" height="40.35" transform="translate(823.97 204.3) rotate(180)"/><rect class="cls-3" x="415.52" y="109.45" width="5.48" height="40.35" transform="translate(836.53 204.3) rotate(180)"/><rect class="cls-2" x="397.49" y="110.41" width="10.96" height="39.4" transform="translate(805.93 205.26) rotate(180)"/><rect class="cls-1" x="392.01" y="110.41" width="5.48" height="39.4" transform="translate(789.49 205.26) rotate(180)"/><rect class="cls-1" x="424.65" y="110.41" width="7.3" height="39.4" transform="translate(856.61 205.26) rotate(180)"/><rect class="cls-6" x="421" y="110.41" width="3.65" height="39.4" transform="translate(845.66 205.26) rotate(180)"/><rect class="cls-3" x="344.97" y="111" width="5.48" height="40.35"/><rect class="cls-2" x="339.5" y="111" width="5.48" height="40.35"/><rect class="cls-3" x="350.45" y="113.84" width="10.96" height="37.52"/><rect class="cls-5" x="366.89" y="111" width="7.08" height="40.35"/><rect class="cls-1" x="361.41" y="111" width="5.48" height="40.35"/><rect class="cls-3" x="408.44" y="111" width="7.08" height="40.35"/><rect class="cls-1" x="402.96" y="111" width="5.48" height="40.35"/><rect class="cls-3" x="384.93" y="111" width="7.08" height="40.35"/><rect class="cls-2" x="379.45" y="111" width="5.48" height="40.35"/><rect class="cls-1" x="415.52" y="111.96" width="10.96" height="39.4"/><rect class="cls-2" x="426.48" y="111.96" width="5.48" height="39.4"/><rect class="cls-2" x="392.01" y="111.96" width="7.3" height="39.4"/><rect class="cls-5" x="399.31" y="111.96" width="3.65" height="39.4"/><rect class="cls-4" x="373.97" y="113.84" width="10.96" height="37.52"/><rect class="cls-1" x="315.98" y="111" width="7.08" height="40.35"/><rect class="cls-3" x="310.5" y="111" width="5.48" height="40.35"/><rect class="cls-2" x="323.06" y="111.96" width="10.96" height="39.4"/><rect class="cls-1" x="334.02" y="111.96" width="5.48" height="39.4"/><rect class="cls-1" x="299.54" y="111.96" width="7.3" height="39.4"/><rect class="cls-6" x="306.85" y="111.96" width="3.65" height="39.4"/><rect class="cls-3" x="344.97" y="168.51" width="5.48" height="40.35"/><rect class="cls-2" x="339.5" y="168.51" width="5.48" height="40.35"/><rect class="cls-3" x="350.45" y="171.34" width="10.96" height="37.52"/><rect class="cls-5" x="366.89" y="168.51" width="7.08" height="40.35"/><rect class="cls-1" x="361.41" y="168.51" width="5.48" height="40.35"/><rect class="cls-3" x="408.44" y="168.51" width="7.08" height="40.35"/><rect class="cls-1" x="402.96" y="168.51" width="5.48" height="40.35"/><rect class="cls-3" x="384.93" y="168.51" width="7.08" height="40.35"/><rect class="cls-2" x="379.45" y="168.51" width="5.48" height="40.35"/><rect class="cls-1" x="415.52" y="169.46" width="10.96" height="39.4"/><rect class="cls-2" x="426.48" y="169.46" width="5.48" height="39.4"/><rect class="cls-2" x="392.01" y="169.46" width="7.3" height="39.4"/><rect class="cls-5" x="399.31" y="169.46" width="3.65" height="39.4"/><rect class="cls-4" x="373.97" y="171.34" width="10.96" height="37.52"/><rect class="cls-1" x="315.98" y="168.51" width="7.08" height="40.35"/><rect class="cls-3" x="310.5" y="168.51" width="5.48" height="40.35"/><rect class="cls-2" x="323.06" y="169.46" width="10.96" height="39.4"/><rect class="cls-1" x="334.02" y="169.46" width="5.48" height="39.4"/><rect class="cls-1" x="299.54" y="169.46" width="7.3" height="39.4"/><rect class="cls-6" x="306.85" y="169.46" width="3.65" height="39.4"/><rect class="cls-3" x="381.05" y="280.96" width="5.48" height="40.35" transform="translate(767.58 547.32) rotate(180)"/><rect class="cls-2" x="386.53" y="280.96" width="5.48" height="40.35" transform="translate(778.54 547.32) rotate(180)"/><rect class="cls-3" x="370.09" y="280.96" width="10.96" height="37.52" transform="translate(751.14 544.49) rotate(180)"/><rect class="cls-5" x="357.53" y="280.96" width="7.08" height="40.35" transform="translate(722.15 547.32) rotate(180)"/><rect class="cls-1" x="364.61" y="280.96" width="5.48" height="40.35" transform="translate(734.71 547.32) rotate(180)"/><rect class="cls-3" x="315.98" y="280.96" width="7.08" height="40.35" transform="translate(639.04 547.32) rotate(180)"/><rect class="cls-1" x="323.06" y="280.96" width="5.48" height="40.35" transform="translate(651.6 547.32) rotate(180)"/><rect class="cls-3" x="339.5" y="280.96" width="7.08" height="40.35" transform="translate(686.07 547.32) rotate(180)"/><rect class="cls-2" x="346.58" y="280.96" width="5.48" height="40.35" transform="translate(698.63 547.32) rotate(180)"/><rect class="cls-1" x="305.02" y="280.96" width="10.96" height="39.4" transform="translate(621 546.37) rotate(180)"/><rect class="cls-2" x="299.54" y="280.96" width="5.48" height="39.4" transform="translate(604.57 546.37) rotate(180)"/><rect class="cls-2" x="332.19" y="280.96" width="7.3" height="39.4" transform="translate(671.69 546.37) rotate(180)"/><rect class="cls-5" x="328.54" y="280.96" width="3.65" height="39.4" transform="translate(660.73 546.37) rotate(180)"/><rect class="cls-4" x="346.58" y="280.96" width="10.96" height="37.52" transform="translate(704.11 544.49) rotate(180)"/><rect class="cls-1" x="408.44" y="280.96" width="7.08" height="40.35" transform="translate(823.97 547.32) rotate(180)"/><rect class="cls-3" x="415.52" y="280.96" width="5.48" height="40.35" transform="translate(836.53 547.32) rotate(180)"/><rect class="cls-2" x="397.49" y="280.96" width="10.96" height="39.4" transform="translate(805.93 546.37) rotate(180)"/><rect class="cls-1" x="392.01" y="280.96" width="5.48" height="39.4" transform="translate(789.49 546.37) rotate(180)"/><rect class="cls-1" x="424.65" y="280.96" width="7.3" height="39.4" transform="translate(856.61 546.37) rotate(180)"/><rect class="cls-6" x="421" y="280.96" width="3.65" height="39.4" transform="translate(845.66 546.37) rotate(180)"/><rect class="cls-3" x="344.97" y="283.51" width="5.48" height="40.35"/><rect class="cls-2" x="339.5" y="283.51" width="5.48" height="40.35"/><rect class="cls-3" x="350.45" y="283.51" width="10.96" height="37.52"/><rect class="cls-5" x="366.89" y="283.51" width="7.08" height="40.35"/><rect class="cls-1" x="361.41" y="283.51" width="5.48" height="40.35"/><rect class="cls-3" x="408.44" y="283.51" width="7.08" height="40.35"/><rect class="cls-1" x="402.96" y="283.51" width="5.48" height="40.35"/><rect class="cls-3" x="384.93" y="283.51" width="7.08" height="40.35"/><rect class="cls-2" x="379.45" y="283.51" width="5.48" height="40.35"/><rect class="cls-1" x="415.52" y="283.51" width="10.96" height="39.4"/><rect class="cls-2" x="426.48" y="283.51" width="5.48" height="39.4"/><rect class="cls-2" x="392.01" y="283.51" width="7.3" height="39.4"/><rect class="cls-5" x="399.31" y="283.51" width="3.65" height="39.4"/><rect class="cls-4" x="373.97" y="283.51" width="10.96" height="37.52"/><rect class="cls-1" x="315.98" y="283.51" width="7.08" height="40.35"/><rect class="cls-3" x="310.5" y="283.51" width="5.48" height="40.35"/><rect class="cls-2" x="323.06" y="283.51" width="10.96" height="39.4"/><rect class="cls-1" x="334.02" y="283.51" width="5.48" height="39.4"/><rect class="cls-1" x="299.54" y="283.51" width="7.3" height="39.4"/><rect class="cls-6" x="306.85" y="283.51" width="3.65" height="39.4"/><path class="cls-2" d="M148.13,100.63c.89,4.75,1.49,13.64,1.49,23.82s-.6,19.07-1.49,23.82a3.94,3.94,0,0,1,1.32.87c1.55,1.55,1,4.61,0,5.6s-4.05,1.55-5.6,0c-.33-.33-.37-.91-.76-1.11-3.31-1.64-9.63,1.28-16.45,1.28s-13.14-2.91-16.45-1.28c-1.33.66-2,2.27-3.56,2.27s-2.24-1.61-3.56-2.27c-3.31-1.63-9.63,1.28-16.45,1.28S73.46,152,70.14,153.63c-.4.2-.43.78-.76,1.11-1.55,1.55-4.61,1-5.6,0s-1.55-4.05,0-5.6c.39-.39,1.07-.42,1.32-.87,2.32-4.24-1.49-13.64-1.49-23.82s3.81-19.58,1.49-23.82c-.25-.45-.93-.48-1.32-.87-1.55-1.55-1-4.61,0-5.6s4.05-1.55,5.6,0c.33.33.37.91.76,1.11C73.46,96.91,79.78,94,86.6,94S99.74,96.9,103,95.27c1.33-.65,2-2.27,3.56-2.27s2.24,1.61,3.56,2.27c3.31,1.64,9.63-1.28,16.45-1.28s13.14,2.92,16.45,1.28c.4-.2.43-.78.76-1.11,1.55-1.55,4.61-1,5.6,0s1.55,4.05,0,5.6A3.94,3.94,0,0,1,148.13,100.63Z" transform="translate(0 -54.95)"/><path class="cls-6" d="M146.32,98.82c.89,4.75,1.49,13.64,1.49,23.82s-.6,19.07-1.49,23.82a3.94,3.94,0,0,1,1.32.87c1.55,1.55,1,4.61,0,5.6s-4.05,1.55-5.6,0c-.33-.33-.37-.91-.76-1.11-3.31-1.64-9.63,1.28-16.45,1.28s-13.14-2.91-16.45-1.28c-1.33.65-2,2.27-3.57,2.27s-2.24-1.61-3.56-2.27c-3.31-1.63-9.63,1.28-16.45,1.28s-13.14-2.92-16.45-1.28c-.4.2-.43.78-.76,1.11-1.55,1.55-4.61,1-5.6,0s-1.55-4.05,0-5.6c.39-.39,1.07-.42,1.32-.87,2.32-4.24-1.49-13.64-1.49-23.82s3.81-19.58,1.49-23.82c-.25-.45-.93-.48-1.32-.87-1.55-1.55-1-4.61,0-5.6s4.05-1.55,5.6,0c.33.33.37.91.76,1.11,3.31,1.64,9.63-1.28,16.45-1.28s13.14,2.91,16.45,1.28c1.33-.65,2-2.27,3.56-2.27s2.24,1.61,3.57,2.27c3.31,1.64,9.63-1.28,16.45-1.28S138,95.1,141.28,93.46c.4-.2.43-.78.76-1.11,1.55-1.55,4.61-1,5.6,0s1.55,4.05,0,5.6A3.94,3.94,0,0,1,146.32,98.82Z" transform="translate(0 -54.95)"/><rect class="cls-1" x="80.97" y="87.11" width="47.68" height="71.06" transform="translate(227.45 -37.12) rotate(90)"/><rect class="cls-4" x="84.26" y="92.02" width="41.1" height="61.26" transform="translate(227.45 -37.12) rotate(90)"/><circle class="cls-2" cx="94.61" cy="69.5" r="8.25"/><polygon class="cls-1" points="126.66 61.25 112.23 73.31 126.66 77.74 126.66 61.25"/><path class="cls-1" d="M84.36,110.4c9.4-5.77,21.06-1.6,28.72,5,1.18,1-.53,2.7-1.7,1.7-6.84-5.85-17.39-9.76-25.81-4.58-1.32.81-2.53-1.27-1.21-2.08Z" transform="translate(0 -54.95)"/><polygon class="cls-1" points="78.08 79.72 82.59 75.31 86.36 79.72 82.22 83.72 78.08 79.72"/><path class="cls-6" d="M75.43,221.22s4.75,20.63,2.9,40.85a254.8,254.8,0,0,1-5.19,31.48s21.58-2.49,47-3.34a293.69,293.69,0,0,1,62.25,4.62l17.31,1.73s-10.68-46.2-1.84-74.3Z" transform="translate(0 -54.95)"/><polygon class="cls-1" points="202.39 173.98 68.8 173.55 68.8 162.4 201.88 160.28 202.39 173.98"/><path class="cls-4" d="M98.26,217.14l-.72-.64L135,174.61a3.35,3.35,0,0,1,4.94-.05L177.5,214.9l-.71.66-37.59-40.34a2.41,2.41,0,0,0-1.77-.76,2.38,2.38,0,0,0-1.75.79Z" transform="translate(0 -54.95)"/><ellipse class="cls-2" cx="137.52" cy="120.2" rx="1.18" ry="1.17"/><path class="cls-1" d="M155.89,243.57a16.09,16.09,0,0,0-4.52,4.73l3.92,3.47a10.54,10.54,0,0,1,1.1-2.85,3.56,3.56,0,0,1,2.42-1.72,3.74,3.74,0,0,1,1.72.23,12.81,12.81,0,0,1,4.28,3c1.58-.2,2.31-2.31,1.64-3.75a5.64,5.64,0,0,0-3.76-2.68,50.94,50.94,0,0,1,4.66-4.75c-.74-1.71-3.12-2.15-4.83-1.4a10.71,10.71,0,0,0-4,3.83c.52-.71-3.32-5-4.11-5.23-2.16-.72-3.73,1.5-4.81,3.07A21.2,21.2,0,0,1,155.89,243.57Z" transform="translate(0 -54.95)"/><path class="cls-2" d="M95.18,281.32l-.47-.12Zm-.45-.11-.49-.12,0-.1Z" transform="translate(0 -54.95)"/><path class="cls-2" d="M95.93,279.5l-.88-.39c.54-1.23,1.14-2.49,1.78-3.74h0c.3-.58.63-1.19,1-1.83l.84.47c-.35.62-.67,1.22-1,1.8l-.42-.22.42.22C97.05,277,96.46,278.28,95.93,279.5Z" transform="translate(0 -54.95)"/><path class="cls-2" d="M100.75,270.52l-.81-.52v0Zm1.14-1.68-.79-.56c.83-1.17,1.68-2.27,2.54-3.28l.37.31-.37-.31c.45-.53.92-1,1.4-1.54l.7.67c-.47.49-.92,1-1.36,1.5h0C103.54,266.61,102.7,267.69,101.89,268.83Zm46.77-7h-.33q-1.13,0-2.35-.08l0-1q1.21.05,2.32.07h.31c.45,0,.93,0,1.42-.06h0c.66-.05,1.33-.14,2-.25l.17,1c-.7.12-1.4.21-2.09.26l0-.5,0,.5C149.64,261.86,149.14,261.87,148.66,261.87Zm-4.76-.2,0-1H144Zm-35.2-.28-.61-.75.07-.06Zm31.11-.09-2.05-.25.06-.48-.06.48c-1.37-.18-2.74-.4-4.08-.65l.17-1c1.33.24,2.69.46,4,.64h0l2,.25Zm16.44-.9-.35-.89.09,0Zm-45.9-.21-.53-.81a19.81,19.81,0,0,1,3.73-2h0a17,17,0,0,1,2-.64l.23.94a15.82,15.82,0,0,0-1.9.61h0A18.89,18.89,0,0,0,110.35,260.2Zm21.28-.19.17-.95.08,0Zm26.56-.57-.5-.82a7,7,0,0,0,2.68-2.69h0a4.94,4.94,0,0,0,.53-1.78l1,.09a5.89,5.89,0,0,1-.63,2.13l-.2-.1.2.1A8,8,0,0,1,158.19,259.44Zm-30.57-.36-2-.54.13-.47-.13.47-1.75-.52a16.45,16.45,0,0,0-2.17-.52l.16-1a17.27,17.27,0,0,1,2.3.55l1.73.51,2,.54Zm-7.93-1.77,0-1h.08Z" transform="translate(0 -54.95)"/><polygon class="cls-2" points="160.12 195.45 160.08 195.36 161 195.08 160.12 195.45"/></g><g id="Shadow"><ellipse id="_Path_" data-name="&lt;Path&gt;" class="cls-4" cx="250" cy="360.74" rx="193.89" ry="11.32"/></g><g id="Knowledges"><path class="cls-7" d="M312.8,184.61c-4.15,4.73-9.62,7.76-14.48,11.59s-9.38,9.07-10.1,15.57c-.77,6.93,2.93,13.49,3.58,20.43,1.2,12.8-9.08,24.7-20.71,26.64s-23.46-4.5-31.3-14.09c-4.12-5.05-7.42-11.17-8.21-17.9-1.35-11.48,4.68-22.78,3.73-34.31-1.07-13-10.66-23.17-20.45-30.69s-20.75-14.09-27.26-25.06c-7.84-13.21-7.51-31.08-.91-45.08s18.78-24.23,32.22-29.89,28.09-7,42.47-6.5c8.79.34,17.68,1.41,25.84,5S302.79,70.25,306.51,79c4.42,10.32,3.15,22,.56,33.34a19.77,19.77,0,0,0,2.57,15.1A76,76,0,0,1,318,144.17C322.6,157.63,321.89,174.26,312.8,184.61Z" transform="translate(0 -54.95)"/><g class="cls-8"><path class="cls-9" d="M312.8,184.61c-4.15,4.73-9.62,7.76-14.48,11.59s-9.38,9.07-10.1,15.57c-.77,6.93,2.93,13.49,3.58,20.43,1.2,12.8-9.08,24.7-20.71,26.64s-23.46-4.5-31.3-14.09c-4.12-5.05-7.42-11.17-8.21-17.9-1.35-11.48,4.68-22.78,3.73-34.31-1.07-13-10.66-23.17-20.45-30.69s-20.75-14.09-27.26-25.06c-7.84-13.21-7.51-31.08-.91-45.08s18.78-24.23,32.22-29.89,28.09-7,42.47-6.5c8.79.34,17.68,1.41,25.84,5S302.79,70.25,306.51,79c4.42,10.32,3.15,22,.56,33.34a19.77,19.77,0,0,0,2.57,15.1A76,76,0,0,1,318,144.17C322.6,157.63,321.89,174.26,312.8,184.61Z" transform="translate(0 -54.95)"/></g><circle class="cls-7" cx="213.08" cy="50.24" r="27.16"/><g class="cls-10"><path class="cls-9" d="M216.72,80l3.42,2.05v3.27s-2.6-.35-3.42-1.77c0,0,.71-.3-1.3-1.5S213.88,79.4,216.72,80Z" transform="translate(0 -54.95)"/><path class="cls-9" d="M214.83,106l-2,.94s-.59,1.14-.47,1.1-.43,2.36-.31,2.4-1.14,1.06-1.14,1.06l-.59,1.46v1.69l2.84,3.86,2.08,1.18-1.81,9.92.75.28,9.45-6.93.63-1.69,2.79-1.1,1.5-3.9,1.69-2s.16-2,0-1.93-.91.31-.91.31l-1.42-1.06a19.11,19.11,0,0,0-3.15-.39c-.16.16-.63-1.83-.63-1.83l-2.76-.77-2.87-1.89-2.09.39Z" transform="translate(0 -54.95)"/><path class="cls-9" d="M209.47,101.11H211l2.16,1.13,4,1,.19.32-4-.06.74-.46-.59-.38-1.61,0,.2-.2-1.67-.85s-1-.25-1.09-.13l-.43.05Z" transform="translate(0 -54.95)"/><polygon class="cls-9" points="212.6 48.63 212.23 48.27 211.62 48.3 211.87 48.63 212.6 48.63"/><path class="cls-9" d="M222.15,80h-.47L225,82l.53.58,3.31,1.9.65.83.53,1.83,1.77,1.42-.83.59,1.89,2.36h.65l.24-.94-1.42-3,2,1.1A22.84,22.84,0,0,0,222.15,80Z" transform="translate(0 -54.95)"/><path class="cls-9" d="M236,90.87h-.51l-.85-1.12-.91,2.48s.56,2.89.61,3.07-.25.59-.25.59l.25,3.19.66,1.12.5,2.72,2.23,3.07,1.8-2.58.3.63A25.29,25.29,0,0,0,236,90.87Z" transform="translate(0 -54.95)"/><polygon class="cls-9" points="222.74 27.64 222.15 27.64 222.15 28.36 222.74 28.71 223.27 28.71 223.27 28.17 222.74 27.64"/><polygon class="cls-9" points="226.34 29.07 227.22 30.01 227.46 30.8 228.35 31.66 228.7 31.13 229.35 31.66 229.35 31.07 228.88 30.37 226.34 29.07"/><path class="cls-9" d="M220.14,90.28a48.63,48.63,0,0,0-5.67,2.48,3.22,3.22,0,0,0-1.29,3l-2.49,1.41.59,2.72-.59.35L209.75,98a23,23,0,0,0-4.69-.24c-1.38.24-1.69,3-1.69,3l.83,2.24,1.89.12.24-1.3,2,.12-1.3,2.48,2.36.35.23,1.74,2.37,1.8s.47.59,0,.83-11.69-6.49-12.75-8.15-2.42-6.2-1.36-9.39c.86-2.59,2.47-5,3-6.55h0l0-.05h0a.94.94,0,0,0,0-.13,1,1,0,0,0-.73-1.11c-.41-.12-1.18.35-1.18.35H197.5l1.57-.89.65-.69.41-.37,1.54-.65L201.6,81a8.53,8.53,0,0,1,2.89-1.09l-1.12.86h1.18l.24,1.34h2.36s-.59-.16.83-.94S214,80,214,80l-1.42,2.05,3.07,1.73-.35,1.3-2.11-.59v-.71l-1.31-.8-.12,1.39-.47.59-.59-.47L209,86.15,212,89l.47-3.71,4.25.94Z" transform="translate(0 -54.95)"/></g><path class="cls-7" d="M305.26,149.89c-1.44-.88-3.35-1.44-4.77-.53s-1.71,3.11-1.74,4.93c-2.49-1.43-6-.11-7.32,2.43a7.54,7.54,0,0,0,1.12,8.05,11.88,11.88,0,0,0,7.47,3.9c2.8.43,4.86-.15,6.43-2.51,1.13-1.7,2.69-2.49,3.89-4C313.3,158.4,308.45,151.84,305.26,149.89Z" transform="translate(0 -54.95)"/><path class="cls-7" d="M295.48,150.47a1.87,1.87,0,0,0,.5-1c1,1.88,2.15,3.57,3.25,5.36C298.85,154.45,295.21,150.74,295.48,150.47Z" transform="translate(0 -54.95)"/><path class="cls-7" d="M296.81,149.43a12.84,12.84,0,0,1,.57-2.8,6.77,6.77,0,0,1,1.56,2.61,3.45,3.45,0,0,1-.58,2.87C297.25,153.6,296.77,150.1,296.81,149.43Z" transform="translate(0 -54.95)"/><path class="cls-9" d="M293.64,157.17a.82.82,0,1,0,.92,1.12.88.88,0,0,0-.83-1.16Z" transform="translate(0 -54.95)"/><path class="cls-9" d="M300.07,166.75a.62.62,0,0,0,.4-.06.45.45,0,0,0,0-.68,1.57,1.57,0,0,0-.73-.27,5.32,5.32,0,0,1-3.79-3.22,8.15,8.15,0,0,0-.49-1.22c-.53-.89-1.77-1-2,.11-.2.83.83,2,1.31,2.56A8.07,8.07,0,0,0,300.07,166.75Z" transform="translate(0 -54.95)"/><path class="cls-7" d="M275.85,76.71A11.69,11.69,0,1,0,287.54,65,11.69,11.69,0,0,0,275.85,76.71Zm9.74-8.66a1.64,1.64,0,0,1-1.19,0c.18.81-.62,1.54-1.38,2-1,.54-2.08.75-2.3-.12-.13-.53.27-1.27,1.27-2a2.46,2.46,0,0,1,1.95-.43c-.08-.48.36-1,1-1.25s1.45,0,1.62.48S286.31,67.82,285.59,68.06Zm5.68,4a1.63,1.63,0,1,1-.51-2.24A1.62,1.62,0,0,1,291.27,72.08ZM285.8,85.41A1.25,1.25,0,1,1,287,86.66,1.25,1.25,0,0,1,285.8,85.41Zm-.33-4.29a1.43,1.43,0,0,1,1.43-1.43H287a5.28,5.28,0,0,1,6.83-6,2.12,2.12,0,1,1,3.07,2.63,5.28,5.28,0,0,1-3.25,7.47,1.08,1.08,0,1,1-2,.18A5.29,5.29,0,0,1,288,82a1.43,1.43,0,0,1-2.54-.9Zm-3.14-8.33a1.07,1.07,0,0,1,1.66-1,1.63,1.63,0,1,1,.43,1.19,1.07,1.07,0,0,1-2.1-.2Zm-1.55,9.82a.81.81,0,1,1,.81.81A.81.81,0,0,1,280.78,82.61Zm-1.58-9.14a1.07,1.07,0,1,1,1.16,1A1.07,1.07,0,0,1,279.2,73.47Z" transform="translate(0 -54.95)"/><path class="cls-7" d="M275.85,76.71A11.69,11.69,0,1,0,287.54,65,11.69,11.69,0,0,0,275.85,76.71Zm9.74-8.66a1.64,1.64,0,0,1-1.19,0c.18.81-.62,1.54-1.38,2-1,.54-2.08.75-2.3-.12-.13-.53.27-1.27,1.27-2a2.46,2.46,0,0,1,1.95-.43c-.08-.48.36-1,1-1.25s1.45,0,1.62.48S286.31,67.82,285.59,68.06Zm5.68,4a1.63,1.63,0,1,1-.51-2.24A1.62,1.62,0,0,1,291.27,72.08ZM285.8,85.41A1.25,1.25,0,1,1,287,86.66,1.25,1.25,0,0,1,285.8,85.41Zm-.33-4.29a1.43,1.43,0,0,1,1.43-1.43H287a5.28,5.28,0,0,1,6.83-6,2.12,2.12,0,1,1,3.07,2.63,5.28,5.28,0,0,1-3.25,7.47,1.08,1.08,0,1,1-2,.18A5.29,5.29,0,0,1,288,82a1.43,1.43,0,0,1-2.54-.9Zm-3.14-8.33a1.07,1.07,0,0,1,1.66-1,1.63,1.63,0,1,1,.43,1.19,1.07,1.07,0,0,1-2.1-.2Zm-1.55,9.82a.81.81,0,1,1,.81.81A.81.81,0,0,1,280.78,82.61Zm-1.58-9.14a1.07,1.07,0,1,1,1.16,1A1.07,1.07,0,0,1,279.2,73.47Z" transform="translate(0 -54.95)"/><circle class="cls-3" cx="281.59" cy="27.65" r="0.81"/><path class="cls-7" d="M280.67,82.61a.93.93,0,1,1,.93.93A.93.93,0,0,1,280.67,82.61Z" transform="translate(0 -54.95)"/><path class="cls-7" d="M285.68,85.41A1.36,1.36,0,1,1,287,86.77,1.37,1.37,0,0,1,285.68,85.41Z" transform="translate(0 -54.95)"/><path class="cls-7" d="M289,72.69a1.74,1.74,0,1,1,1.32.22,1.76,1.76,0,0,1-.39,0A1.73,1.73,0,0,1,289,72.69Z" transform="translate(0 -54.95)"/><path class="cls-7" d="M282.63,73.61a1.19,1.19,0,0,1,.66-2.09,1.22,1.22,0,0,1,.6.11,1.74,1.74,0,1,1,1.87,2,1.73,1.73,0,0,1-1.29-.42,1.2,1.2,0,0,1-1,.68h-.11A1.18,1.18,0,0,1,282.63,73.61Z" transform="translate(0 -54.95)"/><path class="cls-7" d="M279.09,73.48h0a1.19,1.19,0,1,1,1.29,1.08h-.1A1.19,1.19,0,0,1,279.09,73.48Zm.12,0h0Z" transform="translate(0 -54.95)"/><g class="cls-11"><path class="cls-9" d="M281.25,80.93h0a.12.12,0,0,0,.07-.15c-.65-1.91-.14-5.75-.14-5.79a.12.12,0,1,0-.23,0c0,.16-.52,3.93.15,5.89A.12.12,0,0,0,281.25,80.93Z" transform="translate(0 -54.95)"/></g><path class="cls-12" d="M279.93,82a.12.12,0,0,0,.07-.21A5.46,5.46,0,0,1,278.15,79a.12.12,0,0,0-.22.07A5.69,5.69,0,0,0,279.86,82Z" transform="translate(0 -54.95)"/><path class="cls-12" d="M284.95,83.64a.12.12,0,0,0,0-.24,6.71,6.71,0,0,1-1.67-.28.12.12,0,1,0-.07.23,7,7,0,0,0,1.73.29Z" transform="translate(0 -54.95)"/><path class="cls-12" d="M280.74,85.67a.12.12,0,0,0,.11-.09l.4-1.47a.12.12,0,0,0-.23-.06l-.4,1.47a.12.12,0,0,0,.08.14Z" transform="translate(0 -54.95)"/><path class="cls-12" d="M278.23,83.65h0a4.46,4.46,0,0,0,1.72-.46.12.12,0,1,0-.11-.21,4.23,4.23,0,0,1-1.63.43.12.12,0,0,0,0,.23Z" transform="translate(0 -54.95)"/><path class="cls-12" d="M282.7,81.41a.12.12,0,0,0,.11-.07c.46-1,2.17-4.36,2.19-4.4a.12.12,0,1,0-.21-.11s-1.73,3.41-2.19,4.4a.12.12,0,0,0,.06.16Z" transform="translate(0 -54.95)"/><path class="cls-12" d="M284.92,86.74a.12.12,0,0,0,.06-.22,7.1,7.1,0,0,1-2.56-2.59.12.12,0,1,0-.2.12,7.35,7.35,0,0,0,2.64,2.68Z" transform="translate(0 -54.95)"/><path class="cls-7" d="M281.08,70.48a.82.82,0,0,1-.47-.59h0c-.15-.63.35-1.42,1.32-2.08a2.79,2.79,0,0,1,1.89-.49,1.51,1.51,0,0,1,1.13-1.2,1.84,1.84,0,0,1,1.09,0,1,1,0,0,1,.68.6c.19.57-.3,1.24-1.09,1.5a1.84,1.84,0,0,1-1.08,0c0,1-1.09,1.67-1.46,1.88a3.61,3.61,0,0,1-1.54.48A1.13,1.13,0,0,1,281.08,70.48Zm-.36-.62h0Z" transform="translate(0 -54.95)"/><path class="cls-7" d="M291.48,84.36a1.21,1.21,0,0,1,0-.26,5.44,5.44,0,0,1-2.22-.79A5.37,5.37,0,0,1,288,82.2a1.55,1.55,0,1,1-1.19-2.63,5.4,5.4,0,0,1,6.91-6A2.24,2.24,0,1,1,297,76.39a5.4,5.4,0,0,1-3.23,7.5,1.2,1.2,0,1,1-2.3.47Z" transform="translate(0 -54.95)"/><g class="cls-11"><path d="M291.48,84.36a1.21,1.21,0,0,1,0-.26,5.44,5.44,0,0,1-2.22-.79A5.37,5.37,0,0,1,288,82.2a1.55,1.55,0,1,1-1.19-2.63,5.4,5.4,0,0,1,6.91-6A2.24,2.24,0,1,1,297,76.39a5.4,5.4,0,0,1-3.23,7.5,1.2,1.2,0,1,1-2.3.47Z" transform="translate(0 -54.95)"/></g><path class="cls-12" d="M291.76,79a.68.68,0,0,1-.29-.43.68.68,0,0,1,1-.71.68.68,0,0,1-.24,1.24h-.14A.68.68,0,0,1,291.76,79Z" transform="translate(0 -54.95)"/><g class="cls-11"><circle cx="281.59" cy="27.59" r="0.81"/><path d="M280.67,82.54a.93.93,0,1,1,.93.93A.93.93,0,0,1,280.67,82.54Z" transform="translate(0 -54.95)"/><path d="M285.68,85.35A1.36,1.36,0,1,1,287,86.71,1.37,1.37,0,0,1,285.68,85.35Z" transform="translate(0 -54.95)"/><path d="M289,72.62a1.74,1.74,0,1,1,1.32.22,1.76,1.76,0,0,1-.39,0A1.73,1.73,0,0,1,289,72.62Z" transform="translate(0 -54.95)"/><path d="M282.63,73.55a1.19,1.19,0,0,1,.66-2.09,1.22,1.22,0,0,1,.6.1,1.74,1.74,0,1,1,1.87,2,1.73,1.73,0,0,1-1.29-.42,1.2,1.2,0,0,1-1,.68h-.11A1.18,1.18,0,0,1,282.63,73.55Z" transform="translate(0 -54.95)"/><path d="M279.09,73.41h0a1.19,1.19,0,1,1,1.29,1.08h-.1A1.19,1.19,0,0,1,279.09,73.41Zm.12,0h0Z" transform="translate(0 -54.95)"/><path d="M281.08,70.42a.82.82,0,0,1-.47-.59h0c-.15-.63.35-1.42,1.32-2.08a2.79,2.79,0,0,1,1.89-.49,1.51,1.51,0,0,1,1.13-1.2A1.84,1.84,0,0,1,286,66a1,1,0,0,1,.68.6c.19.57-.3,1.24-1.09,1.5a1.84,1.84,0,0,1-1.08,0c0,1-1.09,1.67-1.46,1.88a3.61,3.61,0,0,1-1.54.48A1.14,1.14,0,0,1,281.08,70.42Zm-.36-.62h0Z" transform="translate(0 -54.95)"/></g><polygon class="cls-7" points="262.29 94.88 260.22 86.06 261.39 85.78 262.67 91.23 267.94 79.93 288.43 82.8 288.26 83.99 268.65 81.24 262.29 94.88"/><path class="cls-9" d="M228,143.37l-1.6,1.23,3.19,2.8-1.33,1-3.2-2.81-1.71,1.31,3.75,3.29-1.38,1-5.32-4.67,7.4-5.67,5.19,4.56-1.39,1Z" transform="translate(0 -54.95)"/><path class="cls-9" d="M232.63,152.32l4.67,4.1-1.29,1-4.67-4.1Zm2.62-2,4.67,4.1-1.29,1-4.67-4.1Z" transform="translate(0 -54.95)"/><path class="cls-9" d="M251.07,167.15a4.15,4.15,0,0,1-.64.59l-3.15,2.42-1.53-1.34,3-2.33a2.69,2.69,0,0,0,.39-.37,1,1,0,0,0-.12-1.55,1.84,1.84,0,0,0-2.55.11l-2.92,2.24-1.53-1.34,3-2.33a2.61,2.61,0,0,0,.38-.36,1,1,0,0,0-.11-1.56,1.86,1.86,0,0,0-2.57.12l-2.89,2.22-1.53-1.34,5.68-4.36,1.45,1.27-.6.45a3.21,3.21,0,0,1,2.21.83,2.29,2.29,0,0,1,.86,2.28,3.51,3.51,0,0,1,2.77.9A2.25,2.25,0,0,1,251.07,167.15Z" transform="translate(0 -54.95)"/><path class="cls-9" d="M250.84,169.23a4.06,4.06,0,0,1,5.92-.25,3.26,3.26,0,0,1,1.2,3.42l-1.86-.49a1.6,1.6,0,0,0-.55-1.75,2.12,2.12,0,0,0-3.09.35,1.47,1.47,0,0,0,.19,2.26,1.94,1.94,0,0,0,1.92.43l.51,1.7a3.87,3.87,0,0,1-3.62-.94C249.81,172.52,249.59,170.65,250.84,169.23Z" transform="translate(0 -54.95)"/><path class="cls-9" d="M260.18,174.33l1.81,1.59-.88.69-3.43-3,.71-.55,3.25.33c.77.07,1.09,0,1.31-.24s.16-.62-.28-1a1.74,1.74,0,0,0-1.33-.44l-.23-1.09a3,3,0,0,1,2.51.84c1,.84,1.16,1.85.55,2.54-.4.45-.82.66-2.29.51Z" transform="translate(0 -54.95)"/><path class="cls-7" d="M274.28,197.73l-12.84-8.15,27-14.09Zm-10.84-8.07L274,196.35l11.59-18.25Z" transform="translate(0 -54.95)"/><path class="cls-7" d="M274.28,197.73l-5.69-3.61.25-.42a6.08,6.08,0,0,1,8.66-1.93l.4.27ZM270,193.81l4,2.55,2.54-4a5.08,5.08,0,0,0-6.55,1.46Z" transform="translate(0 -54.95)"/><path class="cls-7" d="M256.81,231.35a6,6,0,0,1-4.44-1.29,11.49,11.49,0,0,1-3-3.67,10.91,10.91,0,0,1-1.49-4.48,5.56,5.56,0,0,1,1.5-4.35,5.76,5.76,0,0,1,4.26-1.42,8.05,8.05,0,0,1,7.2,10.83C260.15,229,259.17,231,256.81,231.35Z" transform="translate(0 -54.95)"/><path class="cls-7" d="M261.16,207.57a12.49,12.49,0,0,1,11.52,12.25c0,2.13-.64,4.32,0,6.35.41,1.3,1.33,2.51,1.18,3.86-.2,1.78-2.09,2.78-3.74,3.48a13.6,13.6,0,0,1-4.85,1.37A4.63,4.63,0,0,1,261,232.7c-.38-.75-1.77-3.92-2.61-3.9s-3.56,1.85-4.56.3c-.61-.95-1.19-.82-.24-1.43-1.44.13.15,3.2-1.22,2.39-3.85-2.27-5.25-8-5.5-9.93-.44-3.37,1.43-6.73,4.1-8.82A17.41,17.41,0,0,1,261.16,207.57Z" transform="translate(0 -54.95)"/><g class="cls-10"><path class="cls-9" d="M261.16,207.57a12.49,12.49,0,0,1,11.52,12.25c0,2.13-.64,4.32,0,6.35.41,1.3,1.33,2.51,1.18,3.86-.2,1.78-2.09,2.78-3.74,3.48a13.6,13.6,0,0,1-4.85,1.37A4.63,4.63,0,0,1,261,232.7c-.38-.75-1.77-3.92-2.61-3.9s-3.56,1.85-4.56.3c-.61-.95-1.19-.82-.24-1.43-1.44.13.15,3.2-1.22,2.39-3.85-2.27-5.25-8-5.5-9.93-.44-3.37,1.43-6.73,4.1-8.82A17.41,17.41,0,0,1,261.16,207.57Z" transform="translate(0 -54.95)"/></g><path class="cls-7" d="M261.87,217.58a4.9,4.9,0,0,1-.53,3.95,4.13,4.13,0,0,1-3.21,2.24,3.38,3.38,0,0,1-3.11-2.1,4.4,4.4,0,0,1,.34-3.84c.6-1,2-2.49,3.29-2.63A3.5,3.5,0,0,1,261.87,217.58Z" transform="translate(0 -54.95)"/><path class="cls-7" d="M264.09,216.42a4.38,4.38,0,0,0,1.88,3,3.69,3.69,0,0,0,3.44.64,3,3,0,0,0,1.76-2.85,3.93,3.93,0,0,0-1.69-3,4.89,4.89,0,0,0-3.65-.93A3.13,3.13,0,0,0,264.09,216.42Z" transform="translate(0 -54.95)"/><path class="cls-7" d="M266.75,221.47a1.87,1.87,0,0,1,.91.81,1.13,1.13,0,0,1-.85,1.43,1.67,1.67,0,0,1-1.63-.74,1.71,1.71,0,0,1-.46,1.14.91.91,0,0,1-1.15.12,1,1,0,0,1-.3-.92,2.86,2.86,0,0,1,.39-.93c.23-.41.74-1.78,1.21-1.87S266.38,221.27,266.75,221.47Z" transform="translate(0 -54.95)"/><path class="cls-7" d="M271.46,225.85c-.06.33.33.8.27,1.13a6.69,6.69,0,0,1-1.27.87,38.42,38.42,0,0,1-7.94,2.7,3.65,3.65,0,0,0-1.79-1.92,2,2,0,0,1,2,1.42,29.27,29.27,0,0,0,8.58-3.19c-.12-.6-.41-1.69.57-1.85C271.87,225,271.62,225,271.46,225.85Z" transform="translate(0 -54.95)"/><polygon class="cls-5" points="263.6 68.75 259.51 67.5 258.84 65.67 265.19 67.62 263.6 68.75"/><path class="cls-7" d="M275.19,108.4a8.7,8.7,0,0,1-4.7,5.33,5.71,5.71,0,0,0-3.15,3.49l-.19.63-7.26-2.24.19-.63a5.71,5.71,0,0,0-.64-4.65,8.7,8.7,0,1,1,15.75-1.93Z" transform="translate(0 -54.95)"/><path class="cls-13" d="M275.19,108.4a8.7,8.7,0,0,1-4.7,5.33,5.71,5.71,0,0,0-3.15,3.49l-.19.63-7.26-2.24.19-.63a5.71,5.71,0,0,0-.64-4.65,8.7,8.7,0,1,1,15.75-1.93Z" transform="translate(0 -54.95)"/><rect class="cls-7" x="258.03" y="111.26" width="9.14" height="0.52" transform="translate(125.98 307.03) rotate(-84.4)"/><rect class="cls-7" x="262.63" y="112.68" width="9.14" height="0.52" transform="translate(40.05 238.42) rotate(-61.37)"/><polygon class="cls-7" points="266.08 57.04 265.63 54.9 264.06 56.41 262.84 53.66 263.32 53.44 264.24 55.52 265.95 53.87 266.44 56.19 268.36 55 268.64 55.44 266.08 57.04"/><polygon class="cls-7" points="267.21 62.68 265.83 67.17 258.56 64.95 259.94 60.47 267.21 62.68"/><rect class="cls-7" x="261.84" y="117.5" width="0.52" height="7.6" transform="translate(70.24 282.21) rotate(-73.2)"/><rect class="cls-7" x="263.31" y="112.73" width="0.52" height="7.6" transform="matrix(0.29, -0.96, 0.96, 0.29, 75.86, 280.24)"/><g class="cls-14"><rect x="263.31" y="112.73" width="0.52" height="7.6" transform="matrix(0.29, -0.96, 0.96, 0.29, 75.86, 280.24)"/></g><g class="cls-14"><rect x="261.84" y="117.5" width="0.52" height="7.6" transform="translate(70.24 282.21) rotate(-73.2)"/></g></g><g id="Sheets"><rect class="cls-7" x="113.81" y="374.87" width="48.91" height="12.16" transform="translate(276.52 706.94) rotate(180)"/><rect class="cls-15" x="113.97" y="374.92" width="48.91" height="12.16" transform="translate(276.84 707.04) rotate(180)"/><rect class="cls-15" x="113.81" y="374.92" width="37.54" height="12.16" transform="translate(265.15 707.04) rotate(180)"/><polygon class="cls-16" points="114.05 330.53 162.72 332.04 162.66 330.81 114.02 330.17 114.05 330.53"/><polygon class="cls-16" points="162.72 324.9 114.12 322.17 114.12 322.58 162.72 325.83 162.72 324.9"/><polygon class="cls-16" points="162.72 321.23 114.12 322.34 114.12 322.74 162.72 322.15 162.72 321.23"/><polygon class="cls-16" points="162.85 327.29 114.25 329.66 114.25 329.3 162.85 326.48 162.85 327.29"/><polygon class="cls-16" points="113.93 320.07 162.52 320.11 162.52 320.51 113.93 320.51 113.93 320.07"/><rect class="cls-7" x="117.31" y="338.65" width="48.91" height="12.16" transform="translate(283.54 634.5) rotate(180)"/><rect class="cls-15" x="117.47" y="338.7" width="48.91" height="12.16" transform="translate(283.85 634.61) rotate(180)"/><rect class="cls-15" x="117.31" y="338.7" width="37.54" height="12.16" transform="translate(272.17 634.61) rotate(180)"/><polygon class="cls-16" points="117.55 294.31 166.22 295.82 166.17 294.59 117.53 293.95 117.55 294.31"/><polygon class="cls-16" points="166.22 288.68 117.63 285.95 117.63 286.36 166.22 289.61 166.22 288.68"/><polygon class="cls-16" points="166.22 285.01 117.63 286.12 117.63 286.52 166.22 285.94 166.22 285.01"/><polygon class="cls-16" points="166.36 291.07 117.76 293.44 117.76 293.08 166.36 290.26 166.36 291.07"/><rect class="cls-7" x="116.71" y="362.54" width="48.91" height="12.16" transform="translate(282.32 682.28) rotate(180)"/><rect class="cls-15" x="116.87" y="362.59" width="48.91" height="12.16" transform="translate(282.64 682.39) rotate(180)"/><rect class="cls-15" x="116.81" y="307.64" width="37.54" height="12.16"/><polygon class="cls-16" points="165.41 317.84 116.76 318.48 116.71 319.71 165.38 318.2 165.41 317.84"/><polygon class="cls-16" points="117.02 307.74 165.62 307.78 165.62 308.18 117.02 308.18 117.02 307.74"/><polygon class="cls-16" points="116.71 313.5 165.3 310.25 165.3 309.84 116.71 312.57 116.71 313.5"/><polygon class="cls-16" points="165.62 308.9 117.02 310.01 117.02 310.41 165.62 309.83 165.62 308.9"/><polygon class="cls-16" points="165.75 314.96 117.15 317.33 117.15 316.97 165.75 314.15 165.75 314.96"/><polygon class="cls-7" points="163.92 296.12 115.03 296.37 114.96 308.28 163.92 308.28 163.92 296.12"/><rect class="cls-15" x="115.01" y="351.07" width="48.91" height="12.16" transform="translate(278.94 659.35) rotate(180)"/><rect class="cls-15" x="114.96" y="296.12" width="37.54" height="12.16"/><polygon class="cls-16" points="153.97 296.37 115.03 296.37 115.03 297.6 153.14 297.6 153.97 296.37"/><polygon class="cls-16" points="163.64 301.35 115.03 301.8 115.03 302.16 163.64 302.16 163.64 301.35"/><polygon class="cls-16" points="115.03 306.97 163.64 304.61 163.64 304.96 115.03 307.78 115.03 306.97"/><polygon class="cls-16" points="115.03 302.4 163.64 303.37 163.64 303.72 115.03 303.21 115.03 302.4"/><rect class="cls-7" x="127.81" y="269.67" width="48.6" height="6.12"/><rect class="cls-15" x="127.81" y="269.67" width="48.6" height="6.12"/><rect class="cls-15" x="127.81" y="269.67" width="38.73" height="6.12"/><polygon class="cls-16" points="176.44 274.01 127.84 274.25 127.84 274.43 176.44 274.43 176.44 274.01"/><polygon class="cls-16" points="127.84 271.72 176.44 270.48 176.44 270.67 127.84 272.14 127.84 271.72"/><polygon class="cls-16" points="127.68 271.38 176.28 271.88 176.28 272.07 127.68 271.8 127.68 271.38"/><rect class="cls-7" x="121.01" y="266.97" width="48.6" height="2.95"/><rect class="cls-15" x="121.01" y="266.99" width="48.6" height="2.93"/><rect class="cls-15" x="121.01" y="266.81" width="38.73" height="3.11"/><polygon class="cls-16" points="121.04 269.22 169.63 267.98 169.63 268.17 121.04 269.64 121.04 269.22"/><polygon class="cls-16" points="121.04 267.74 169.63 268.24 169.63 268.42 121.04 268.15 121.04 267.74"/><rect class="cls-7" x="125.54" y="263.96" width="48.6" height="2.95"/><rect class="cls-15" x="125.54" y="263.98" width="48.6" height="2.93"/><rect class="cls-15" x="125.54" y="263.8" width="38.73" height="3.11"/><polygon class="cls-16" points="125.57 265.29 174.18 265.88 174.17 266.07 125.55 265.71 125.57 265.29"/><polygon class="cls-16" points="125.56 264.72 174.16 265.22 174.16 265.41 125.56 265.14 125.56 264.72"/><rect class="cls-7" x="124.52" y="275.79" width="48.6" height="7.89"/><rect class="cls-15" x="124.52" y="275.79" width="48.6" height="7.89"/><rect class="cls-15" x="124.52" y="275.79" width="37.5" height="7.89"/><polygon class="cls-16" points="172.81 278.24 124.22 277.96 124.22 277.75 172.81 277.75 172.81 278.24"/><polygon class="cls-16" points="124.55 279.39 173.15 280.81 173.15 280.6 124.55 278.9 124.55 279.39"/><polygon class="cls-16" points="173.15 275.8 127.31 275.8 128.32 276.77 173.15 276.77 173.15 275.8"/><polygon class="cls-16" points="124.72 282.46 173.31 281.87 173.31 281.67 124.72 281.97 124.72 282.46"/></g><g id="Character"><g id="_Group_" data-name="&lt;Group&gt;"><path class="cls-17" d="M251.86,305.5c.08,3.33,0,6.44-.16,9.65s-.38,6.38-.7,9.58a111.68,111.68,0,0,1-3.52,19.33l-.8,2.46-.2.61,0,.16-.08.23-.25.66a10.29,10.29,0,0,1-1.22,2.16,12.42,12.42,0,0,1-2.82,2.79,18.21,18.21,0,0,1-2.79,1.67,38.24,38.24,0,0,1-10.22,3.12,87.63,87.63,0,0,1-19.43,1l-.34-6.37,4.43-.91c1.49-.31,3-.67,4.42-1,2.92-.7,5.81-1.45,8.56-2.35a33.27,33.27,0,0,0,7.26-3.15,4.16,4.16,0,0,0,1.52-1.39c0-.15-.25.51,0-.54l.49-2a128.41,128.41,0,0,0,2.22-17.45c.22-3,.36-6,.5-9s.18-6.08.22-9Z" transform="translate(0 -54.95)"/><path class="cls-17" d="M212,352.88l-7-5.05-2.12,10.65s6.91,3,8.89-.5Z" transform="translate(0 -54.95)"/><polygon class="cls-17" points="197.9 293.11 196.57 301.99 202.89 303.52 204.99 292.88 197.9 293.11"/><path class="cls-7" d="M256.93,296.61c1.53,8-4.69,26.79-4.69,26.79L232,320.85c3.11-7.12,4.23-17.4,8.14-24.12C243.77,290.71,255.26,287.93,256.93,296.61Z" transform="translate(0 -54.95)"/><path class="cls-18" d="M256.93,296.61c1.53,8-4.69,26.79-4.69,26.79L232,320.85c3.11-7.12,4.23-17.4,8.14-24.12C243.77,290.71,255.26,287.93,256.93,296.61Z" transform="translate(0 -54.95)"/><path class="cls-7" d="M285.85,290.87a4.85,4.85,0,0,1,4.18,5.44l0,.13a199.59,199.59,0,0,0-2.07,23.5c-.21,6.63-.13,12.93.08,18.63.48,13.36,1.68,23.47,1.6,26.95L245,369.31c-7.81-35.52-5.26-61.79-3.07-71.37a8.09,8.09,0,0,1,6.1-6.11c1.72-.38,3.77-.79,5.95-1.12.76-.07,1.54-.21,2.32-.3a168.57,168.57,0,0,1,19.33-.43c1.22,0,2.45.11,3.66.18C281.64,290.36,283.94,290.62,285.85,290.87Z" transform="translate(0 -54.95)"/><path class="cls-18" d="M285.85,290.87a4.85,4.85,0,0,1,4.18,5.44l0,.13a199.59,199.59,0,0,0-2.07,23.5c-.21,6.63-.13,12.93.08,18.63.48,13.36,1.68,23.47,1.6,26.95L245,369.31c-7.81-35.52-5.26-61.79-3.07-71.37a8.09,8.09,0,0,1,6.1-6.11c1.72-.38,3.77-.79,5.95-1.12.76-.07,1.54-.21,2.32-.3a168.57,168.57,0,0,1,19.33-.43c1.22,0,2.45.11,3.66.18C281.64,290.36,283.94,290.62,285.85,290.87Z" transform="translate(0 -54.95)"/><path class="cls-17" d="M273.25,268.3c-1.1,6.24-2.09,17.64,2.33,21.71-9.83,8-15.62,18.49-17.74,16.51-1.12-1-2.72-14.08-1.57-16.13,6.9-1.8,6.62-6.93,5.32-11.73Z" transform="translate(0 -54.95)"/><path class="cls-19" d="M268.51,272.52l-6.9,6.12a19.36,19.36,0,0,1,.66,3.42c2.64-.43,6.22-3.41,6.44-6.19A9.25,9.25,0,0,0,268.51,272.52Z" transform="translate(0 -54.95)"/><path class="cls-20" d="M250,252.6c-4.12.54-5.75,7.86-1,13.39S255.52,251.87,250,252.6Z" transform="translate(0 -54.95)"/><path class="cls-17" d="M270.9,257c1.24,8.34,2.39,13.16-.87,18.26-4.91,7.68-15.88,6.08-19.59-1.72-3.33-7-4.82-19.49,2.56-24.47A11.51,11.51,0,0,1,270.9,257Z" transform="translate(0 -54.95)"/><path class="cls-20" d="M263.09,258.29a4.57,4.57,0,0,0,3.83,3.14,7.75,7.75,0,0,1,.62,5.79l3.07.4a4.87,4.87,0,0,1,4.48-4.93q-1.26,5-3,9.92a25.55,25.55,0,0,0,7.45-10.45,14.59,14.59,0,0,0,1.11-6.13,7.93,7.93,0,0,0-2.6-5.54c-2.09-1.76-5.14-2-7.77-1.27C265.64,250.48,261,252.89,263.09,258.29Z" transform="translate(0 -54.95)"/><path class="cls-17" d="M276.6,263.56a8,8,0,0,1-2.79,5.45c-2.15,1.81-4.38.17-4.75-2.47-.34-2.37.39-6.17,3-7S276.78,261,276.6,263.56Z" transform="translate(0 -54.95)"/><path class="cls-20" d="M258.9,262c.14.67-.1,1.3-.54,1.39s-.9-.38-1.06-1.05.1-1.29.54-1.38S258.76,261.32,258.9,262Z" transform="translate(0 -54.95)"/><path class="cls-20" d="M251.34,263.59c.14.67-.1,1.29-.54,1.39s-.9-.38-1-1.05.1-1.29.53-1.38S251.18,262.92,251.34,263.59Z" transform="translate(0 -54.95)"/><path class="cls-21" d="M253.8,263.42a24.57,24.57,0,0,1-2,6.41,4,4,0,0,0,3.34-.08Z" transform="translate(0 -54.95)"/><path class="cls-20" d="M260.73,259a.4.4,0,0,1-.42-.07,3.22,3.22,0,0,0-2.8-.77.41.41,0,0,1-.55-.32.39.39,0,0,1,.25-.49h0a4,4,0,0,1,3.54.94.4.4,0,0,1,.06.56h0A.47.47,0,0,1,260.73,259Z" transform="translate(0 -54.95)"/><path class="cls-20" d="M258.94,272.14h0a6.18,6.18,0,0,0,4.06-4,.21.21,0,0,0-.15-.26.22.22,0,0,0-.27.16,5.84,5.84,0,0,1-3.76,3.68.22.22,0,0,0,.12.42Z" transform="translate(0 -54.95)"/><path class="cls-20" d="M247.51,261.67a.34.34,0,0,1-.24,0,.41.41,0,0,1-.3-.48,4,4,0,0,1,2.36-2.82.4.4,0,0,1,.51.24h0a.39.39,0,0,1-.23.5h0a3.2,3.2,0,0,0-1.85,2.21A.37.37,0,0,1,247.51,261.67Z" transform="translate(0 -54.95)"/><path class="cls-7" d="M194.72,323.49,205.12,357s10.28-3.24,14.78-.42a47.39,47.39,0,0,1,7.74,6.13l-7.18-36.48S210.91,315,194.72,323.49Z" transform="translate(0 -54.95)"/><path class="cls-7" d="M220.46,326.24l7.18,36.48s11.16-12.07,21.38-7l3.47,1.79L248.3,321S235,314.26,220.46,326.24Z" transform="translate(0 -54.95)"/><path class="cls-22" d="M220.46,326.24l7.18,36.48s11.16-12.07,21.38-7l3.47,1.79L248.3,321S235,314.26,220.46,326.24Z" transform="translate(0 -54.95)"/><path class="cls-22" d="M194.72,323.49,205.12,357s10.28-3.24,14.78-.42a47.39,47.39,0,0,1,7.74,6.13l-7.18-36.48S210.91,315,194.72,323.49Z" transform="translate(0 -54.95)"/><path class="cls-20" d="M227.62,362.35c-8.68-2.8-17.13-5.76-24.06.4-2.58-9.91-6.39-19.35-9.29-29.17-2.32-7.86-2.33-6.49,1.83-8.77,3.59-2,20.36-3.78,23.9,5.42C221.3,333.58,227,361.57,227.62,362.35Z" transform="translate(0 -54.95)"/><path class="cls-20" d="M255.11,360.82c-5.13-4.49-13.2-4.25-18.54,0-2.27,1.8-5.45,3.06-5.44,2.84l0,0-7.41-34.08-.3.22c1.52-5.15,9.4-7.64,14.39-7.8a22.62,22.62,0,0,1,12.4,4S254,350.94,255.11,360.82Z" transform="translate(0 -54.95)"/><path class="cls-20" d="M231.13,363.65s-3,.93-4.17-1.52l-7.31-32.78s1.23,2.15,3.76.39l.3-.22,7.41,34.08Z" transform="translate(0 -54.95)"/><path class="cls-12" d="M231.13,363.65s-3,.93-4.17-1.52l-7.31-32.78s1.23,2.15,3.76.39l.3-.22,7.41,34.08Z" transform="translate(0 -54.95)"/><path class="cls-11" d="M283.63,295.37c-3.75-.55-5.3.79-7.9,5.91-2.4,4.73-3.71,18.35-3.71,18.35-.47,7.46-1.42,6.62,5.64,7.16,4.52.35,10.25,1.3,10.25,1.3S294.84,297,283.63,295.37Z" transform="translate(0 -54.95)"/><path class="cls-17" d="M294.07,302.43c.08,3.33,0,6.44-.16,9.65s-.38,6.38-.7,9.58A111.68,111.68,0,0,1,289.7,341l-.8,2.46-.2.61,0,.16-.08.23-.25.66a10.28,10.28,0,0,1-1.22,2.16,12.42,12.42,0,0,1-2.82,2.79,18.21,18.21,0,0,1-2.79,1.67,38.25,38.25,0,0,1-10.22,3.12,87.65,87.65,0,0,1-19.43,1l-.34-6.37,4.43-.91c1.49-.31,3-.67,4.42-1,2.92-.7,5.81-1.45,8.56-2.35a33.27,33.27,0,0,0,7.26-3.15,4.16,4.16,0,0,0,1.52-1.39c0-.15-.25.51,0-.53l.49-2a128.41,128.41,0,0,0,2.22-17.45c.22-3,.36-6,.5-9s.18-6.08.22-9Z" transform="translate(0 -54.95)"/><path class="cls-17" d="M254.19,349.82l-7-5.05-2.12,10.65s6.91,3,8.89-.5Z" transform="translate(0 -54.95)"/><polygon class="cls-17" points="240.11 290.04 238.78 298.93 245.09 300.46 247.2 289.81 240.11 290.04"/><path class="cls-7" d="M294.27,296.24c4.76,6.57,3.19,28.73,3.19,28.73l-22.08-2.11s-2.3-12.4,1-22.37C279.92,289.66,288.5,288.26,294.27,296.24Z" transform="translate(0 -54.95)"/><path class="cls-18" d="M294.27,296.24c4.76,6.57,3.19,28.73,3.19,28.73l-22.08-2.11s-2.3-12.4,1-22.37C279.92,289.66,288.5,288.26,294.27,296.24Z" transform="translate(0 -54.95)"/><path class="cls-20" d="M246.47,255.53a28.14,28.14,0,0,1-2.34-3.56c2.91.58,3.21-.91,4.4-5,1.35-4.61,6.57-7.57,9.34-8,19.22-3.12,20.31,7.79,20.5,9.57a3.3,3.3,0,0,1-2,3.1,9.68,9.68,0,0,1-3.84.7c-2.79.12-6.94,1.11-9.63.4C252,249.89,247.8,255.68,246.47,255.53Z" transform="translate(0 -54.95)"/></g><polygon class="cls-17" points="231.97 343.71 245 350.51 251.26 353.78 248.56 360.75 242.37 358.5 227.26 353 231.97 343.71"/><polygon class="cls-19" points="231.97 343.71 245 350.51 242.37 358.5 227.26 353 231.97 343.71"/><polygon class="cls-17" points="209.99 362.2 196.01 366.75 189.3 368.94 186.21 362.13 192.15 359.29 206.65 352.34 209.99 362.2"/><polygon class="cls-19" points="209.99 362.2 196.01 366.75 192.15 359.29 206.65 352.34 209.99 362.2"/><path class="cls-7" d="M294.5,378.51a6.28,6.28,0,0,0-1.07-1.86c-4.55-5.42-21.25-5.31-31.4-4.25-4.62.49-10.63,2.82-17.16,6.12a11.9,11.9,0,0,0-3.68-3.63c-8.45-4.93-20-6.72-31.32-6.56,16.47-.53,35.07,1,35.07,1l44.41-3.67A35.39,35.39,0,0,1,294.5,378.51Z" transform="translate(0 -54.95)"/><path class="cls-11" d="M294.5,378.51a6.28,6.28,0,0,0-1.07-1.86c-4.55-5.42-21.25-5.31-31.4-4.25-4.62.49-10.63,2.82-17.16,6.12a11.9,11.9,0,0,0-3.68-3.63c-8.45-4.93-20-6.72-31.32-6.56,16.47-.53,35.07,1,35.07,1l44.41-3.67A35.39,35.39,0,0,1,294.5,378.51Z" transform="translate(0 -54.95)"/><path class="cls-7" d="M247.32,397c-2.45,3.88-7.06,6-11.62,6.55s-9.17-.25-13.7-1.06l-11.81-2.09L190.94,397c-3.62-.65-7.33-1.31-10.55-3.1-10.37-5.76-12.47-12.25-7.09-17a19.19,19.19,0,0,1,6.08-3.43l.27-.11a87.73,87.73,0,0,1,19.08-4.35l.22,0a103.31,103.31,0,0,1,10.93-.73c11.34-.16,22.86,1.63,31.32,6.56a11.9,11.9,0,0,1,3.68,3.63C248.52,383.84,250.17,392.54,247.32,397Z" transform="translate(0 -54.95)"/><path class="cls-11" d="M247.32,397c-2.45,3.88-7.06,6-11.62,6.55s-9.17-.25-13.7-1.06l-11.81-2.09L190.94,397c-3.62-.65-7.33-1.31-10.55-3.1-10.37-5.76-12.47-12.25-7.09-17a19.19,19.19,0,0,1,6.08-3.43l.27-.11a87.73,87.73,0,0,1,19.08-4.35l.22,0a103.31,103.31,0,0,1,10.93-.73c11.34-.16,22.86,1.63,31.32,6.56a11.9,11.9,0,0,1,3.68,3.63C248.52,383.84,250.17,392.54,247.32,397Z" transform="translate(0 -54.95)"/><path class="cls-7" d="M176.36,375s-11.14,5.6-8.66,16.66c0,0,1.8,7.06,22.82,11.25s47.71,9,47.71,9l2.69-8.61s-27.67-23.89-48.59-29A27.77,27.77,0,0,0,176.36,375Z" transform="translate(0 -54.95)"/><polygon class="cls-7" points="239.4 360.34 232.62 360.21 238.55 343.53 243.91 346.67 239.4 360.34"/><g class="cls-23"><polygon class="cls-9" points="239.4 360.34 232.62 360.21 238.55 343.53 243.91 346.67 239.4 360.34"/></g><path class="cls-7" d="M247.49,405c.13.57,20.26,6,27.77,3.33C298.72,400,241.95,381.06,247.49,405Z" transform="translate(0 -54.95)"/><path class="cls-11" d="M247.49,405c.13.57,20.26,6,27.77,3.33C298.72,400,241.95,381.06,247.49,405Z" transform="translate(0 -54.95)"/><path class="cls-7" d="M293.74,392.06a30.71,30.71,0,0,1-2,4.82v0c-.15.26-.28.53-.43.78-.38.67-.78,1.31-1.2,1.91l-.08.12c-.2.28-.39.55-.6.81-6,7.73-21.71,10.77-25.42,5.77a27.11,27.11,0,0,1-3.5-7.62,273.44,273.44,0,0,1-39.35,16.61c-7,2.32-14.39,4.52-21.89,6.33l-4.53-9.51,1.79-1.4c2.51-2,7.46-5.78,13.68-10.27,9.94-7.17,23.12-16.08,34.68-21.93,6.52-3.3,12.54-5.63,17.16-6.12,10.15-1.07,26.85-1.18,31.4,4.25a6.28,6.28,0,0,1,1.07,1.86C295.82,381.88,295.37,387.12,293.74,392.06Z" transform="translate(0 -54.95)"/><polygon class="cls-7" points="193.89 355.35 198.94 350.82 205.97 367.07 199.9 368.43 193.89 355.35"/><g class="cls-23"><polygon class="cls-9" points="193.89 355.35 198.94 350.82 205.97 367.07 199.9 368.43 193.89 355.35"/></g><path class="cls-7" d="M239.53,421.21a1.65,1.65,0,0,0,1.28.28,4.39,4.39,0,0,0,.64-.25,3.65,3.65,0,0,0,1.42-1.12l.34-.42a14.63,14.63,0,0,0,1.32-2,.18.18,0,0,0-.07-.23.28.28,0,0,0-.29,0l-.67.28-.15.06h0l-1,.44c-1.37.67-3,1.6-3.15,2.34A.65.65,0,0,0,239.53,421.21Zm.21-.55a.64.64,0,0,1,.2-.35,13.41,13.41,0,0,1,3.17-1.93l.26-.11.38-.16c-.15.26-.32.5-.48.73a9.19,9.19,0,0,1-1.18,1.41,2.86,2.86,0,0,1-1.37.83,1,1,0,0,1-.86-.19A.24.24,0,0,1,239.73,420.66Z" transform="translate(0 -54.95)"/><path class="cls-7" d="M237.88,417.23c.46.73,2.89,1.07,4.5,1a6,6,0,0,0,.81-.06h0a.15.15,0,0,0,.09,0,.25.25,0,0,0,.08-.11.18.18,0,0,0,0-.2l0,0s0,0,0,0a7.23,7.23,0,0,0-3.71-1.88,2.13,2.13,0,0,0-1.39.38C237.69,416.7,237.74,417,237.88,417.23Zm.45-.18s-.11-.18.23-.43l.12-.08a1.59,1.59,0,0,1,.9-.2,6.36,6.36,0,0,1,3.07,1.5C241.14,417.95,238.67,417.58,238.33,417Z" transform="translate(0 -54.95)"/><path class="cls-20" d="M244.22,414.56l6.68-7a1,1,0,0,1,1.1-.21l8.49,3.66a1.24,1.24,0,0,1,.63,1.89l-.1.12c-8.91,12.3-14,15.71-15.23,16.94-3.61,3.51-6.57.77-5.79-.63,3.52-6.27,3.53-8.56,3.28-11.55A5.91,5.91,0,0,1,244.22,414.56Z" transform="translate(0 -54.95)"/><path class="cls-7" d="M181.07,409.12a1.64,1.64,0,0,0-.65,1.13,4.4,4.4,0,0,0,0,.69,3.65,3.65,0,0,0,.64,1.69l.3.45a14.65,14.65,0,0,0,1.49,1.86.18.18,0,0,0,.24,0,.28.28,0,0,0,.09-.27c0-.1,0-.36-.07-.72v-.19c0-.3-.07-.66-.13-1-.22-1.51-.61-3.38-1.28-3.71A.65.65,0,0,0,181.07,409.12Zm.46.36a.64.64,0,0,1,.27.3,13.41,13.41,0,0,1,.88,3.6c0,.1,0,.19,0,.29s0,.27,0,.41c-.2-.23-.38-.46-.55-.68a9.18,9.18,0,0,1-1-1.55,2.86,2.86,0,0,1-.38-1.56,1,1,0,0,1,.44-.76A.24.24,0,0,1,181.53,409.48Z" transform="translate(0 -54.95)"/><path class="cls-7" d="M185.36,408.76c-.84.22-1.89,2.43-2.34,4a6,6,0,0,0-.19.8s0,0,0,0a.16.16,0,0,0,0,.1.25.25,0,0,0,.07.11.18.18,0,0,0,.2,0l0,0h0a7.23,7.23,0,0,0,2.92-3,2.13,2.13,0,0,0,.06-1.44C185.92,408.74,185.6,408.69,185.36,408.76Zm0,.48s.2-.05.34.35l0,.14a1.59,1.59,0,0,1-.09.92,6.36,6.36,0,0,1-2.36,2.48C183.69,411.64,184.78,409.4,185.39,409.24Z" transform="translate(0 -54.95)"/><path class="cls-20" d="M186.38,416.26l3.6,7a1,1,0,0,1-.14,1.11l-7.2,5.4a1.24,1.24,0,0,1-2,0l-.09-.13c-9-12.21-11.12-17.79-11.91-19.37-2.26-4.5,1.25-6.5,2.35-5.33,4.91,5.26,8.7,8.23,11.62,8.9C186.66,415.27,186.1,415.76,186.38,416.26Z" transform="translate(0 -54.95)"/><path class="cls-20" d="M249.13,267.85h-.06a4.17,4.17,0,1,1,4.23-4.1h0A4.17,4.17,0,0,1,249.13,267.85Zm0-7.4a3.23,3.23,0,0,0,0,6.46h0a3.23,3.23,0,0,0,.05-6.46Z" transform="translate(0 -54.95)"/><path class="cls-20" d="M258.75,265.56h-.06a4.17,4.17,0,1,1,4.23-4.1h0A4.17,4.17,0,0,1,258.75,265.56Zm0-7.4a3.23,3.23,0,0,0,0,6.46,3.23,3.23,0,0,0,.1-6.46Z" transform="translate(0 -54.95)"/><path class="cls-20" d="M252.94,262.19,252,262c0-.16.33-1.54,1.33-1.84.62-.19,1.31.09,2,.83l-.67.66c-.45-.46-.84-.67-1.1-.59S253,261.89,252.94,262.19Z" transform="translate(0 -54.95)"/><polygon class="cls-20" points="262.49 206.25 262.28 205.33 271.77 203.07 273.6 203.48 273.4 204.4 271.77 204.04 262.49 206.25"/></g><g id="Books"><path class="cls-7" d="M307.94,391.08v6.42a.62.62,0,0,0,0,1.23c2.45,0,4.89,0,7.34,0v-8.91h-7.34A.62.62,0,0,0,307.94,391.08Z" transform="translate(0 -54.95)"/><path class="cls-24" d="M307.94,391.08v6.42a.62.62,0,0,0,0,1.23c2.45,0,4.89,0,7.34,0v-8.91h-7.34A.62.62,0,0,0,307.94,391.08Z" transform="translate(0 -54.95)"/><rect class="cls-7" x="307.94" y="336.13" width="5.7" height="6.41"/><rect class="cls-25" x="307.94" y="336.13" width="5.7" height="6.41"/><path class="cls-7" d="M312.45,390.46h31.49c1.36,0,2.46,1.71,2.46,3.82s-1.1,3.82-2.46,3.82H312.45Z" transform="translate(0 -54.95)"/><path class="cls-13" d="M312.45,390.46h31.49c1.36,0,2.46,1.71,2.46,3.82s-1.1,3.82-2.46,3.82H312.45Z" transform="translate(0 -54.95)"/><path class="cls-7" d="M312.45,398.73c6.47,0,24.67.12,31.15,0,4.43-.08,4.67-8.58.32-8.88-3-.21-6.15,0-9.19,0H312.45a.62.62,0,0,0,0,1.23h30.12c1.42,0,2.44,0,3,1.69.48,1.45.33,4.41-1.62,4.73a4.29,4.29,0,0,1-.67,0H312.45a.62.62,0,0,0,0,1.23Z" transform="translate(0 -54.95)"/><g class="cls-14"><path class="cls-9" d="M312.45,398.73c6.47,0,24.67.12,31.15,0,4.43-.08,4.67-8.58.32-8.88-3-.21-6.15,0-9.19,0H312.45a.62.62,0,0,0,0,1.23h30.12c1.42,0,2.44,0,3,1.69.48,1.45.33,4.41-1.62,4.73a4.29,4.29,0,0,1-.67,0H312.45a.62.62,0,0,0,0,1.23Z" transform="translate(0 -54.95)"/></g><path class="cls-7" d="M309,399.74v5.95a.57.57,0,0,0,0,1.14l6.8,0V398.6H309A.57.57,0,0,0,309,399.74Z" transform="translate(0 -54.95)"/><path class="cls-24" d="M309,399.74v5.95a.57.57,0,0,0,0,1.14l6.8,0V398.6H309A.57.57,0,0,0,309,399.74Z" transform="translate(0 -54.95)"/><rect class="cls-7" x="309.04" y="344.8" width="5.28" height="5.94"/><rect class="cls-25" x="309.04" y="344.8" width="5.28" height="5.94"/><path class="cls-7" d="M313.21,399.17h29.16c1.26,0,2.28,1.59,2.28,3.54s-1,3.54-2.28,3.54H313.21Z" transform="translate(0 -54.95)"/><path class="cls-13" d="M313.21,399.17h29.16c1.26,0,2.28,1.59,2.28,3.54s-1,3.54-2.28,3.54H313.21Z" transform="translate(0 -54.95)"/><path class="cls-7" d="M313.21,406.82c6,0,22.85.11,28.85,0,4.11-.07,4.33-7.95.3-8.22-2.81-.19-5.7,0-8.51,0H313.21a.57.57,0,0,0,0,1.14h27.9c1.32,0,2.26,0,2.76,1.57.44,1.34.3,4.08-1.5,4.38a4,4,0,0,1-.62,0H313.21a.57.57,0,0,0,0,1.14Z" transform="translate(0 -54.95)"/><path class="cls-7" d="M305.65,408.07v7.08a.68.68,0,0,0,0,1.35c2.7,0,5.39,0,8.09,0v-9.82h-8.09A.68.68,0,0,0,305.65,408.07Z" transform="translate(0 -54.95)"/><path class="cls-24" d="M305.65,408.07v7.08a.68.68,0,0,0,0,1.35c2.7,0,5.39,0,8.09,0v-9.82h-8.09A.68.68,0,0,0,305.65,408.07Z" transform="translate(0 -54.95)"/><rect class="cls-7" x="305.65" y="353.13" width="6.29" height="7.07"/><rect class="cls-25" x="305.65" y="353.13" width="6.29" height="7.07"/><path class="cls-7" d="M310.62,407.4h34.7c1.5,0,2.71,1.89,2.71,4.22s-1.21,4.21-2.71,4.21h-34.7Z" transform="translate(0 -54.95)"/><path class="cls-13" d="M310.62,407.4h34.7c1.5,0,2.71,1.89,2.71,4.22s-1.21,4.21-2.71,4.21h-34.7Z" transform="translate(0 -54.95)"/><path class="cls-7" d="M310.62,416.5c7.14,0,27.19.13,34.33,0,4.89-.09,5.15-9.46.36-9.78-3.34-.23-6.78,0-10.13,0H310.62a.68.68,0,0,0,0,1.35h33.2c1.57,0,2.68,0,3.29,1.86.52,1.6.36,4.86-1.78,5.21a4.72,4.72,0,0,1-.73,0h-34a.68.68,0,0,0,0,1.35Z" transform="translate(0 -54.95)"/><g class="cls-14"><path d="M310.62,416.5c7.14,0,27.19.13,34.33,0,4.89-.09,5.15-9.46.36-9.78-3.34-.23-6.78,0-10.13,0H310.62a.68.68,0,0,0,0,1.35h33.2c1.57,0,2.68,0,3.29,1.86.52,1.6.36,4.86-1.78,5.21a4.72,4.72,0,0,1-.73,0h-34a.68.68,0,0,0,0,1.35Z" transform="translate(0 -54.95)"/></g><polygon class="cls-7" points="92.3 359.96 101.8 345.06 118.32 339.72 141.53 343.35 142.92 357.21 131.41 359.39 121.52 357.9 116.02 355.76 109.68 361.18 100.87 362.72 95.01 361.97 92.3 359.96"/><polygon class="cls-11" points="92.3 359.96 101.8 345.06 118.32 339.72 141.53 343.35 142.92 357.21 131.41 359.39 121.52 357.9 116.02 355.76 109.68 361.18 100.87 362.72 95.01 361.97 92.3 359.96"/><polygon class="cls-14" points="121.53 340.22 119.84 357.25 116.02 355.76 111.64 359.5 115.37 340.67 118.32 339.72 121.53 340.22"/><path class="cls-7" d="M91.7,417.29s16.43,6.84,24.83-5c0,0,17.21,8.44,26.38-.1l-1.59-2.6s-4.46,7.3-25.5-.52c0,0-8.93,11.66-23.54,5.86Z" transform="translate(0 -54.95)"/><path class="cls-22" d="M91.7,417.29s16.43,6.84,24.83-5c0,0,17.21,8.44,26.38-.1l-1.59-2.6s-4.46,7.3-25.5-.52c0,0-8.93,11.66-23.54,5.86Z" transform="translate(0 -54.95)"/><polygon class="cls-7" points="104.05 347.59 115.96 338.03 132.77 337.11 154.27 344.3 152.95 355.14 141.54 354.61 132.37 351.59 127.52 348.9 120.43 351.84 111.71 351.33 106.26 349.65 104.05 347.59"/><polygon class="cls-11" points="104.05 347.59 115.96 338.03 132.77 337.11 154.27 344.3 152.95 355.14 141.54 354.61 132.37 351.59 127.52 348.9 120.43 351.84 111.71 351.33 106.26 349.65 104.05 347.59"/><polygon class="cls-14" points="135.75 338.1 130.89 350.77 127.52 348.9 122.62 350.93 129.77 337.27 132.77 337.11 135.75 338.1"/><path class="cls-7" d="M103,404.24s14.4,8.35,24.69.9c0,0,14.85,9.72,25.24,4.95l-1-2.28s-5.65,4.72-24.27-5.25a23.36,23.36,0,0,1-23.61,0Z" transform="translate(0 -54.95)"/><path class="cls-22" d="M103,404.24s14.4,8.35,24.69.9c0,0,14.85,9.72,25.24,4.95l-1-2.28s-5.65,4.72-24.27-5.25a23.36,23.36,0,0,1-23.61,0Z" transform="translate(0 -54.95)"/><path class="cls-7" d="M243.51,373.61l52.68,2.23s-.95-6.45-1.64-6.62-9.34-7.63-19.43-4.08c-2.2.77-3.8,1.35-4.94,1.78-1.1-.52-2.64-1.24-4.77-2.19-9.76-4.39-19,2.31-19.71,2.42S243.51,373.61,243.51,373.61Z" transform="translate(0 -54.95)"/><path class="cls-25" d="M243.51,373.61l52.68,2.23,0-.16c-.15-1-1-6.3-1.62-6.47l-.12-.05c-1.23-.67-9.6-7.44-19.3-4-2.21.77-3.81,1.35-4.94,1.78-1.11-.53-2.65-1.24-4.77-2.19-9.76-4.39-19,2.3-19.72,2.42S243.51,373.61,243.51,373.61Z" transform="translate(0 -54.95)"/><path class="cls-7" d="M237.49,373.35l53.32,2.26s-1-6.53-1.66-6.7-9.5-6.74-19.7-3.15c-2.23.78-5.1,4.05-5.1,4.05s-2.58-3.5-4.74-4.47c-9.88-4.44-19.2,1.35-19.91,1.47S237.49,373.35,237.49,373.35Z" transform="translate(0 -54.95)"/><path class="cls-22" d="M237.49,373.35l53.32,2.26s-1-6.53-1.66-6.7-9.5-6.74-19.7-3.15c-2.23.78-5.1,4.05-5.1,4.05s-2.58-3.5-4.74-4.47c-9.88-4.44-19.2,1.35-19.91,1.47S237.49,373.35,237.49,373.35Z" transform="translate(0 -54.95)"/><polygon class="cls-7" points="264.04 316.63 265.6 319.77 261.59 319.6 264.04 316.63"/><g class="cls-26"><polygon points="264.04 316.63 265.6 319.77 261.59 319.6 264.04 316.63"/></g><path class="cls-11" d="M289.22,368.94a11.85,11.85,0,0,1,.76,2.32c.42,2,.84,4.35.84,4.35l5.38.23,0-.16c-.15-1-1-6.3-1.62-6.47l-.12-.05Z" transform="translate(0 -54.95)"/><path class="cls-20" d="M235.37,375.24,261.49,377l.06,0a2.92,2.92,0,0,1,3.89.16l.06.05,26.94.79,6.8.21-.41-2.35-33.21-1.41a2.93,2.93,0,0,0-4-.17l-25.48-1.12Z" transform="translate(0 -54.95)"/><g class="cls-26"><polygon points="292.01 320.53 292.44 322.96 299.24 323.17 298.82 320.82 292.01 320.53"/></g><path class="cls-7" d="M261.78,370s-3.9-4.89-8.91-4.22C252.87,365.83,256.37,365.54,261.78,370Z" transform="translate(0 -54.95)"/><path class="cls-27" d="M261.78,370s-3.9-4.89-8.91-4.22C252.87,365.83,256.37,365.54,261.78,370Z" transform="translate(0 -54.95)"/><path class="cls-7" d="M271.46,372.63s5.61-2.75,9.86,0C281.32,372.62,278.27,370.86,271.46,372.63Z" transform="translate(0 -54.95)"/><path class="cls-27" d="M271.46,372.63s5.61-2.75,9.86,0C281.32,372.62,278.27,370.86,271.46,372.63Z" transform="translate(0 -54.95)"/><path class="cls-7" d="M266.34,370.8s4.58-4.26,9.44-2.87C275.77,367.93,272.35,367.13,266.34,370.8Z" transform="translate(0 -54.95)"/><path class="cls-27" d="M266.34,370.8s4.58-4.26,9.44-2.87C275.77,367.93,272.35,367.13,266.34,370.8Z" transform="translate(0 -54.95)"/><path class="cls-7" d="M255.25,369.7s-5.34-3.24-9.82-.9C245.43,368.8,248.62,367.32,255.25,369.7Z" transform="translate(0 -54.95)"/><path class="cls-27" d="M255.25,369.7s-5.34-3.24-9.82-.9C245.43,368.8,248.62,367.32,255.25,369.7Z" transform="translate(0 -54.95)"/></g><g id="Globe"><path class="cls-7" d="M324.21,369a27.12,27.12,0,0,1-5.19.52,26.67,26.67,0,0,1-19-7.81l-.77.78A27.76,27.76,0,0,0,319,370.57a28.24,28.24,0,0,0,5.47-.55,1.26,1.26,0,0,1-.32-.86A1.58,1.58,0,0,1,324.21,369Z" transform="translate(0 -54.95)"/><rect class="cls-7" x="322.17" y="368.13" width="5.31" height="15.35" transform="translate(-1.05 -54.05) rotate(-0.16)"/><g class="cls-14"><rect x="322.17" y="368.13" width="5.31" height="15.35" transform="translate(-1.05 -54.05) rotate(-0.16)"/></g><path class="cls-7" d="M308.69,389.79c0-4,7.2-7.27,16.11-7.29s16.14,3.2,16.15,7.2h0a60.44,60.44,0,0,1-31.87.2Z" transform="translate(0 -54.95)"/><rect class="cls-7" x="293.36" y="343.43" width="54.64" height="1.1" transform="translate(-149.4 275.52) rotate(-45.36)"/><path class="cls-7" d="M346.88,342.55a27.76,27.76,0,0,0-8.24-19.74l-.77.78A26.85,26.85,0,0,1,324.21,369a1.58,1.58,0,0,0,0,.21,1.26,1.26,0,0,0,.32.86,28,28,0,0,0,22.39-27.47Z" transform="translate(0 -54.95)"/><circle class="cls-7" cx="320.89" cy="343.98" r="19.89" transform="translate(-149.46 280.94) rotate(-46)"/><path class="cls-7" d="M328.4,351.24l-.64-.62c4.58-4.74,8.3-13.41,6.55-20.8l.87-.21C337,337.31,333.15,346.32,328.4,351.24Z" transform="translate(0 -54.95)"/><path class="cls-7" d="M307.44,358.33l.18-.88c7.45,1.49,16-2.53,20.56-7.27l.64.62C324.08,355.72,315.21,359.88,307.44,358.33Z" transform="translate(0 -54.95)"/><path class="cls-7" d="M314.1,337.42l-.64-.62c4.75-4.92,13.62-9.08,21.38-7.53l-.17.88C327.21,328.65,318.68,332.68,314.1,337.42Z" transform="translate(0 -54.95)"/><path class="cls-7" d="M307.1,358c-1.82-7.71,2-16.71,6.78-21.63l.64.62c-4.58,4.74-8.3,13.41-6.55,20.8Z" transform="translate(0 -54.95)"/><rect class="cls-7" x="301.04" y="343.57" width="39.78" height="0.9" transform="translate(-149.47 280.99) rotate(-46)"/><rect class="cls-7" x="327.84" y="319.56" width="0.9" height="33.68" transform="translate(-141.74 283.94) rotate(-46)"/><rect class="cls-7" x="320.25" y="324.38" width="0.9" height="39.77" transform="translate(-149.72 280.88) rotate(-46)"/><rect class="cls-7" x="312.66" y="335.73" width="0.9" height="32.79" transform="translate(-157.69 277.82) rotate(-46)"/><g class="cls-14"><path d="M328.4,351.24l-.64-.62c4.58-4.74,8.3-13.41,6.55-20.8l.87-.21C337,337.31,333.15,346.32,328.4,351.24Z" transform="translate(0 -54.95)"/><path d="M307.44,358.33l.18-.88c7.45,1.49,16-2.53,20.56-7.27l.64.62C324.08,355.72,315.21,359.88,307.44,358.33Z" transform="translate(0 -54.95)"/><path d="M314.1,337.42l-.64-.62c4.75-4.92,13.62-9.08,21.38-7.53l-.17.88C327.21,328.65,318.68,332.68,314.1,337.42Z" transform="translate(0 -54.95)"/><path d="M307.1,358c-1.82-7.71,2-16.71,6.78-21.63l.64.62c-4.58,4.74-8.3,13.41-6.55,20.8Z" transform="translate(0 -54.95)"/><rect x="301.04" y="343.57" width="39.78" height="0.9" transform="translate(-149.47 280.99) rotate(-46)"/><rect x="327.84" y="319.56" width="0.9" height="33.68" transform="translate(-141.74 283.94) rotate(-46)"/><rect x="320.25" y="324.38" width="0.9" height="39.77" transform="translate(-149.72 280.88) rotate(-46)"/><rect x="312.66" y="335.73" width="0.9" height="32.79" transform="translate(-157.69 277.82) rotate(-46)"/></g></g></svg>